<?xml version="1.0" encoding="utf-8" standalone="no"?>
<!DOCTYPE svg PUBLIC "-//W3C//DTD SVG 1.1//EN"
  "http://www.w3.org/Graphics/SVG/1.1/DTD/svg11.dtd">
<svg xmlns:xlink="http://www.w3.org/1999/xlink" width="360pt" height="288pt" viewBox="0 0 360 288" xmlns="http://www.w3.org/2000/svg" version="1.1">
 <metadata>
  <rdf:RDF xmlns:dc="http://purl.org/dc/elements/1.1/" xmlns:cc="http://creativecommons.org/ns#" xmlns:rdf="http://www.w3.org/1999/02/22-rdf-syntax-ns#">
   <cc:Work>
    <dc:type rdf:resource="http://purl.org/dc/dcmitype/StillImage"/>
    <dc:date>2025-04-09T13:08:34.060300</dc:date>
    <dc:format>image/svg+xml</dc:format>
    <dc:creator>
     <cc:Agent>
      <dc:title>Matplotlib v3.7.0, https://matplotlib.org/</dc:title>
     </cc:Agent>
    </dc:creator>
   </cc:Work>
  </rdf:RDF>
 </metadata>
 <defs>
  <style type="text/css">*{stroke-linejoin: round; stroke-linecap: butt}</style>
 </defs>
 <g id="figure_1">
  <g id="patch_1">
   <path d="M 0 288 
L 360 288 
L 360 0 
L 0 0 
z
" style="fill: #ffffff"/>
  </g>
  <g id="axes_1">
   <g id="patch_2">
    <path d="M 61.060559 246.161281 
L 260.318199 246.161281 
L 260.318199 12.42 
L 61.060559 12.42 
z
" style="fill: #ffffff"/>
   </g>
   <g id="PathCollection_1">
    <defs>
     <path id="me1e75b11c0" d="M 0 2.5 
C 0.663008 2.5 1.29895 2.236584 1.767767 1.767767 
C 2.236584 1.29895 2.5 0.663008 2.5 0 
C 2.5 -0.663008 2.236584 -1.29895 1.767767 -1.767767 
C 1.29895 -2.236584 0.663008 -2.5 0 -2.5 
C -0.663008 -2.5 -1.29895 -2.236584 -1.767767 -1.767767 
C -2.236584 -1.29895 -2.5 -0.663008 -2.5 0 
C -2.5 0.663008 -2.236584 1.29895 -1.767767 1.767767 
C -1.29895 2.236584 -0.663008 2.5 0 2.5 
z
" style="stroke: #000000"/>
    </defs>
    <g clip-path="url(#pc6e8e18f4a)">
     <use xlink:href="#me1e75b11c0" x="77.410596" y="130.415673" style="stroke: #000000"/>
    </g>
   </g>
   <g id="PathCollection_2">
    <g clip-path="url(#pc6e8e18f4a)">
     <use xlink:href="#me1e75b11c0" x="90.461031" y="129.153091" style="stroke: #000000"/>
    </g>
   </g>
   <g id="PathCollection_3">
    <g clip-path="url(#pc6e8e18f4a)">
     <use xlink:href="#me1e75b11c0" x="105.032443" y="126.305922" style="stroke: #000000"/>
    </g>
   </g>
   <g id="PathCollection_4">
    <g clip-path="url(#pc6e8e18f4a)">
     <use xlink:href="#me1e75b11c0" x="120.826059" y="121.438293" style="stroke: #000000"/>
    </g>
   </g>
   <g id="PathCollection_5">
    <g clip-path="url(#pc6e8e18f4a)">
     <use xlink:href="#me1e75b11c0" x="137.907086" y="114.059301" style="stroke: #000000"/>
    </g>
   </g>
   <g id="PathCollection_6">
    <g clip-path="url(#pc6e8e18f4a)">
     <use xlink:href="#me1e75b11c0" x="156.646497" y="103.52072" style="stroke: #000000"/>
    </g>
   </g>
   <g id="PathCollection_7">
    <g clip-path="url(#pc6e8e18f4a)">
     <use xlink:href="#me1e75b11c0" x="176.934765" y="89.248969" style="stroke: #000000"/>
    </g>
   </g>
   <g id="PathCollection_8">
    <g clip-path="url(#pc6e8e18f4a)">
     <use xlink:href="#me1e75b11c0" x="198.105891" y="70.992134" style="stroke: #000000"/>
    </g>
   </g>
   <g id="PathCollection_9">
    <g clip-path="url(#pc6e8e18f4a)">
     <use xlink:href="#me1e75b11c0" x="219.44513" y="48.821568" style="stroke: #000000"/>
    </g>
   </g>
   <g id="PathCollection_10">
    <g clip-path="url(#pc6e8e18f4a)">
     <use xlink:href="#me1e75b11c0" x="240.439229" y="23.044604" style="stroke: #000000"/>
    </g>
   </g>
   <g id="line2d_1">
    <path d="M 70.117724 130.600658 
L 71.947455 130.519479 
L 73.777185 130.461589 
L 75.606915 130.426988 
L 77.436646 130.415675 
L 79.266376 130.427651 
L 81.096107 130.462916 
L 82.925837 130.521469 
L 84.755567 130.60331 
L 86.585298 130.70844 
L 88.415028 130.836858 
L 90.244759 130.988565 
L 92.074489 131.163561 
L 93.904219 131.361845 
L 95.73395 131.583418 
L 97.56368 131.828279 
L 99.393411 132.096428 
L 101.223141 132.387867 
L 103.052871 132.702593 
L 104.882602 133.040609 
L 106.712332 133.401913 
L 108.542062 133.786505 
L 110.371793 134.194386 
L 112.201523 134.625555 
L 114.031254 135.080013 
L 115.860984 135.55776 
L 117.690714 136.058795 
L 119.520445 136.583118 
L 121.350175 137.13073 
L 123.179906 137.701631 
L 125.009636 138.29582 
L 126.839366 138.913298 
L 128.669097 139.554064 
L 130.498827 140.218119 
L 132.328558 140.905462 
L 134.158288 141.616094 
L 135.988018 142.350014 
L 137.817749 143.107223 
L 139.647479 143.88772 
L 141.47721 144.691506 
L 143.30694 145.518581 
L 145.13667 146.368944 
L 146.966401 147.242595 
L 148.796131 148.139535 
L 150.625862 149.059764 
L 152.455592 150.003281 
L 154.285322 150.970087 
L 156.115053 151.960181 
L 157.944783 152.973564 
L 159.774514 154.010235 
L 161.604244 155.070195 
L 163.433974 156.153443 
L 165.263705 157.25998 
L 167.093435 158.389805 
L 168.923166 159.542919 
L 170.752896 160.719322 
L 172.582626 161.919013 
L 174.412357 163.141992 
L 176.242087 164.38826 
L 178.071818 165.657817 
L 179.901548 166.950662 
L 181.731278 168.266796 
L 183.561009 169.606218 
L 185.390739 170.968929 
L 187.220469 172.354928 
L 189.0502 173.764216 
L 190.87993 175.196792 
L 192.709661 176.652657 
L 194.539391 178.13181 
L 196.369121 179.634252 
L 198.198852 181.159983 
L 200.028582 182.709002 
L 201.858313 184.281309 
L 203.688043 185.876905 
L 205.517773 187.49579 
L 207.347504 189.137963 
L 209.177234 190.803425 
L 211.006965 192.492175 
L 212.836695 194.204214 
L 214.666425 195.939541 
L 216.496156 197.698157 
L 218.325886 199.480061 
L 220.155617 201.285254 
L 221.985347 203.113735 
L 223.815077 204.965505 
L 225.644808 206.840563 
L 227.474538 208.73891 
L 229.304269 210.660546 
L 231.133999 212.60547 
L 232.963729 214.573683 
L 234.79346 216.565184 
L 236.62319 218.579973 
L 238.452921 220.618052 
L 240.282651 222.679418 
L 242.112381 224.764074 
L 243.942112 226.872017 
L 245.771842 229.00325 
L 247.601573 231.15777 
L 249.431303 233.33558 
L 251.261033 235.536678 
" clip-path="url(#pc6e8e18f4a)" style="fill: none; stroke: #f0a3ff; stroke-width: 1.1; stroke-linecap: square"/>
   </g>
   <g id="line2d_2">
    <path d="M 70.117724 130.600658 
L 71.947455 130.351972 
L 73.777185 130.126707 
L 75.606915 129.924863 
L 77.436646 129.74644 
L 79.266376 129.591437 
L 81.096107 129.459855 
L 82.925837 129.351693 
L 84.755567 129.266953 
L 86.585298 129.205633 
L 88.415028 129.167733 
L 90.244759 129.153255 
L 92.074489 129.162197 
L 93.904219 129.194559 
L 95.73395 129.250343 
L 97.56368 129.329547 
L 99.393411 129.432172 
L 101.223141 129.558217 
L 103.052871 129.707683 
L 104.882602 129.88057 
L 106.712332 130.076878 
L 108.542062 130.296606 
L 110.371793 130.539755 
L 112.201523 130.806324 
L 114.031254 131.096315 
L 115.860984 131.409726 
L 117.690714 131.746557 
L 119.520445 132.106809 
L 121.350175 132.490482 
L 123.179906 132.897576 
L 125.009636 133.32809 
L 126.839366 133.782026 
L 128.669097 134.259381 
L 130.498827 134.760158 
L 132.328558 135.284355 
L 134.158288 135.831973 
L 135.988018 136.403011 
L 137.817749 136.99747 
L 139.647479 137.61535 
L 141.47721 138.256651 
L 143.30694 138.921372 
L 145.13667 139.609514 
L 146.966401 140.321076 
L 148.796131 141.05606 
L 150.625862 141.814463 
L 152.455592 142.596288 
L 154.285322 143.401533 
L 156.115053 144.230199 
L 157.944783 145.082286 
L 159.774514 145.957794 
L 161.604244 146.856722 
L 163.433974 147.77907 
L 165.263705 148.72484 
L 167.093435 149.69403 
L 168.923166 150.686641 
L 170.752896 151.702672 
L 172.582626 152.742124 
L 174.412357 153.804997 
L 176.242087 154.891291 
L 178.071818 156.001005 
L 179.901548 157.13414 
L 181.731278 158.290695 
L 183.561009 159.470672 
L 185.390739 160.674069 
L 187.220469 161.900886 
L 189.0502 163.151125 
L 190.87993 164.424784 
L 192.709661 165.721863 
L 194.539391 167.042364 
L 196.369121 168.386285 
L 198.198852 169.753627 
L 200.028582 171.144389 
L 201.858313 172.558572 
L 203.688043 173.996176 
L 205.517773 175.4572 
L 207.347504 176.941646 
L 209.177234 178.449512 
L 211.006965 179.980798 
L 212.836695 181.535505 
L 214.666425 183.113633 
L 216.496156 184.715182 
L 218.325886 186.340151 
L 220.155617 187.988541 
L 221.985347 189.660352 
L 223.815077 191.355583 
L 225.644808 193.074235 
L 227.474538 194.816308 
L 229.304269 196.581801 
L 231.133999 198.370715 
L 232.963729 200.18305 
L 234.79346 202.018806 
L 236.62319 203.877982 
L 238.452921 205.760578 
L 240.282651 207.666596 
L 242.112381 209.596034 
L 243.942112 211.548893 
L 245.771842 213.525173 
L 247.601573 215.524873 
L 249.431303 217.547994 
L 251.261033 219.594535 
" clip-path="url(#pc6e8e18f4a)" style="fill: none; stroke: #0075dc; stroke-width: 1.1; stroke-linecap: square"/>
   </g>
   <g id="line2d_3">
    <path d="M 70.117724 130.600658 
L 71.947455 130.162315 
L 73.777185 129.747563 
L 75.606915 129.3564 
L 77.436646 128.988827 
L 79.266376 128.644843 
L 81.096107 128.32445 
L 82.925837 128.027646 
L 84.755567 127.754432 
L 86.585298 127.504808 
L 88.415028 127.278773 
L 90.244759 127.076328 
L 92.074489 126.897473 
L 93.904219 126.742208 
L 95.73395 126.610532 
L 97.56368 126.502447 
L 99.393411 126.417951 
L 101.223141 126.357045 
L 103.052871 126.319728 
L 104.882602 126.306001 
L 106.712332 126.315864 
L 108.542062 126.349317 
L 110.371793 126.40636 
L 112.201523 126.486992 
L 114.031254 126.591214 
L 115.860984 126.719026 
L 117.690714 126.870428 
L 119.520445 127.045419 
L 121.350175 127.244 
L 123.179906 127.466171 
L 125.009636 127.711932 
L 126.839366 127.981282 
L 128.669097 128.274222 
L 130.498827 128.590752 
L 132.328558 128.930872 
L 134.158288 129.294581 
L 135.988018 129.68188 
L 137.817749 130.092769 
L 139.647479 130.527248 
L 141.47721 130.985316 
L 143.30694 131.466975 
L 145.13667 131.972223 
L 146.966401 132.50106 
L 148.796131 133.053488 
L 150.625862 133.629505 
L 152.455592 134.229112 
L 154.285322 134.852309 
L 156.115053 135.499095 
L 157.944783 136.169472 
L 159.774514 136.863438 
L 161.604244 137.580994 
L 163.433974 138.322139 
L 165.263705 139.086874 
L 167.093435 139.8752 
L 168.923166 140.687114 
L 170.752896 141.522619 
L 172.582626 142.381713 
L 174.412357 143.264397 
L 176.242087 144.170671 
L 178.071818 145.100535 
L 179.901548 146.053988 
L 181.731278 147.031031 
L 183.561009 148.031664 
L 185.390739 149.055887 
L 187.220469 150.103699 
L 189.0502 151.175102 
L 190.87993 152.270094 
L 192.709661 153.388675 
L 194.539391 154.530847 
L 196.369121 155.696608 
L 198.198852 156.885959 
L 200.028582 158.0989 
L 201.858313 159.33543 
L 203.688043 160.59555 
L 205.517773 161.87926 
L 207.347504 163.18656 
L 209.177234 164.51745 
L 211.006965 165.871929 
L 212.836695 167.249998 
L 214.666425 168.651657 
L 216.496156 170.076905 
L 218.325886 171.525744 
L 220.155617 172.998172 
L 221.985347 174.49419 
L 223.815077 176.013797 
L 225.644808 177.556995 
L 227.474538 179.123782 
L 229.304269 180.714159 
L 231.133999 182.328125 
L 232.963729 183.965682 
L 234.79346 185.626828 
L 236.62319 187.311564 
L 238.452921 189.019889 
L 240.282651 190.751805 
L 242.112381 192.50731 
L 243.942112 194.286405 
L 245.771842 196.089089 
L 247.601573 197.915364 
L 249.431303 199.765228 
L 251.261033 201.638682 
" clip-path="url(#pc6e8e18f4a)" style="fill: none; stroke: #993f00; stroke-width: 1.1; stroke-linecap: square"/>
   </g>
   <g id="line2d_4">
    <path d="M 70.117724 130.600658 
L 71.947455 129.951368 
L 73.777185 129.325938 
L 75.606915 128.724366 
L 77.436646 128.146654 
L 79.266376 127.592801 
L 81.096107 127.062807 
L 82.925837 126.556671 
L 84.755567 126.074395 
L 86.585298 125.615978 
L 88.415028 125.18142 
L 90.244759 124.770721 
L 92.074489 124.383881 
L 93.904219 124.0209 
L 95.73395 123.681778 
L 97.56368 123.366516 
L 99.393411 123.075112 
L 101.223141 122.807567 
L 103.052871 122.563882 
L 104.882602 122.344055 
L 106.712332 122.148087 
L 108.542062 121.975979 
L 110.371793 121.827729 
L 112.201523 121.703339 
L 114.031254 121.602807 
L 115.860984 121.526135 
L 117.690714 121.473322 
L 119.520445 121.444367 
L 121.350175 121.439272 
L 123.179906 121.458036 
L 125.009636 121.500659 
L 126.839366 121.567141 
L 128.669097 121.657482 
L 130.498827 121.771682 
L 132.328558 121.909741 
L 134.158288 122.071659 
L 135.988018 122.257436 
L 137.817749 122.467072 
L 139.647479 122.700567 
L 141.47721 122.957922 
L 143.30694 123.239135 
L 145.13667 123.544207 
L 146.966401 123.873139 
L 148.796131 124.225929 
L 150.625862 124.602579 
L 152.455592 125.003087 
L 154.285322 125.427455 
L 156.115053 125.875681 
L 157.944783 126.347767 
L 159.774514 126.843712 
L 161.604244 127.363516 
L 163.433974 127.907178 
L 165.263705 128.4747 
L 167.093435 129.066081 
L 168.923166 129.681321 
L 170.752896 130.32042 
L 172.582626 130.983378 
L 174.412357 131.670195 
L 176.242087 132.380871 
L 178.071818 133.115406 
L 179.901548 133.873801 
L 181.731278 134.656054 
L 183.561009 135.462166 
L 185.390739 136.292138 
L 187.220469 137.145968 
L 189.0502 138.023657 
L 190.87993 138.925206 
L 192.709661 139.850613 
L 194.539391 140.79988 
L 196.369121 141.773005 
L 198.198852 142.76999 
L 200.028582 143.790834 
L 201.858313 144.835537 
L 203.688043 145.904098 
L 205.517773 146.996519 
L 207.347504 148.112799 
L 209.177234 149.252938 
L 211.006965 150.416936 
L 212.836695 151.604793 
L 214.666425 152.816509 
L 216.496156 154.052084 
L 218.325886 155.311518 
L 220.155617 156.594811 
L 221.985347 157.901964 
L 223.815077 159.232975 
L 225.644808 160.587845 
L 227.474538 161.966575 
L 229.304269 163.369163 
L 231.133999 164.795611 
L 232.963729 166.245917 
L 234.79346 167.720083 
L 236.62319 169.218107 
L 238.452921 170.739991 
L 240.282651 172.285734 
L 242.112381 173.855335 
L 243.942112 175.448796 
L 245.771842 177.066116 
L 247.601573 178.707295 
L 249.431303 180.372333 
L 251.261033 182.06123 
" clip-path="url(#pc6e8e18f4a)" style="fill: none; stroke: #4c005c; stroke-width: 1.1; stroke-linecap: square"/>
   </g>
   <g id="line2d_5">
    <path d="M 70.117724 130.600658 
L 71.947455 129.719759 
L 73.777185 128.862963 
L 75.606915 128.030269 
L 77.436646 127.221677 
L 79.266376 126.437187 
L 81.096107 125.676799 
L 82.925837 124.940512 
L 84.755567 124.228328 
L 86.585298 123.540245 
L 88.415028 122.876265 
L 90.244759 122.236386 
L 92.074489 121.62061 
L 93.904219 121.028935 
L 95.73395 120.461363 
L 97.56368 119.917892 
L 99.393411 119.398523 
L 101.223141 118.903256 
L 103.052871 118.432091 
L 104.882602 117.985028 
L 106.712332 117.562068 
L 108.542062 117.163209 
L 110.371793 116.788451 
L 112.201523 116.437796 
L 114.031254 116.111243 
L 115.860984 115.808792 
L 117.690714 115.530443 
L 119.520445 115.276196 
L 121.350175 115.04605 
L 123.179906 114.840007 
L 125.009636 114.658065 
L 126.839366 114.500226 
L 128.669097 114.366488 
L 130.498827 114.256853 
L 132.328558 114.171319 
L 134.158288 114.109888 
L 135.988018 114.072558 
L 137.817749 114.05933 
L 139.647479 114.070204 
L 141.47721 114.10518 
L 143.30694 114.164258 
L 145.13667 114.247439 
L 146.966401 114.354721 
L 148.796131 114.486104 
L 150.625862 114.64159 
L 152.455592 114.821178 
L 154.285322 115.024868 
L 156.115053 115.25266 
L 157.944783 115.504554 
L 159.774514 115.780549 
L 161.604244 116.080647 
L 163.433974 116.404846 
L 165.263705 116.753148 
L 167.093435 117.125551 
L 168.923166 117.522057 
L 170.752896 117.942664 
L 172.582626 118.387373 
L 174.412357 118.856185 
L 176.242087 119.349098 
L 178.071818 119.866113 
L 179.901548 120.40723 
L 181.731278 120.972449 
L 183.561009 121.56177 
L 185.390739 122.175193 
L 187.220469 122.812718 
L 189.0502 123.474345 
L 190.87993 124.160074 
L 192.709661 124.869905 
L 194.539391 125.603838 
L 196.369121 126.361872 
L 198.198852 127.144009 
L 200.028582 127.950248 
L 201.858313 128.780588 
L 203.688043 129.635031 
L 205.517773 130.513575 
L 207.347504 131.416222 
L 209.177234 132.34297 
L 211.006965 133.29382 
L 212.836695 134.268773 
L 214.666425 135.267827 
L 216.496156 136.290983 
L 218.325886 137.338241 
L 220.155617 138.409601 
L 221.985347 139.505063 
L 223.815077 140.624627 
L 225.644808 141.768293 
L 227.474538 142.936061 
L 229.304269 144.127931 
L 231.133999 145.343903 
L 232.963729 146.583977 
L 234.79346 147.848152 
L 236.62319 149.13643 
L 238.452921 150.44881 
L 240.282651 151.785291 
L 242.112381 153.145875 
L 243.942112 154.53056 
L 245.771842 155.939348 
L 247.601573 157.372237 
L 249.431303 158.829228 
L 251.261033 160.310322 
" clip-path="url(#pc6e8e18f4a)" style="fill: none; stroke: #426600; stroke-width: 1.1; stroke-linecap: square"/>
   </g>
   <g id="line2d_6">
    <path d="M 70.117724 130.600658 
L 71.947455 129.467506 
L 73.777185 128.358572 
L 75.606915 127.273856 
L 77.436646 126.213357 
L 79.266376 125.177076 
L 81.096107 124.165012 
L 82.925837 123.177166 
L 84.755567 122.213538 
L 86.585298 121.274127 
L 88.415028 120.358933 
L 90.244759 119.467958 
L 92.074489 118.6012 
L 93.904219 117.758659 
L 95.73395 116.940336 
L 97.56368 116.146231 
L 99.393411 115.376343 
L 101.223141 114.630673 
L 103.052871 113.90922 
L 104.882602 113.211985 
L 106.712332 112.538968 
L 108.542062 111.890168 
L 110.371793 111.265585 
L 112.201523 110.665221 
L 114.031254 110.089073 
L 115.860984 109.537144 
L 117.690714 109.009432 
L 119.520445 108.505938 
L 121.350175 108.026661 
L 123.179906 107.571601 
L 125.009636 107.14076 
L 126.839366 106.734136 
L 128.669097 106.351729 
L 130.498827 105.99354 
L 132.328558 105.659569 
L 134.158288 105.349815 
L 135.988018 105.064279 
L 137.817749 104.80296 
L 139.647479 104.565859 
L 141.47721 104.352976 
L 143.30694 104.16431 
L 145.13667 103.999862 
L 146.966401 103.859631 
L 148.796131 103.743618 
L 150.625862 103.651823 
L 152.455592 103.584245 
L 154.285322 103.540884 
L 156.115053 103.521742 
L 157.944783 103.526816 
L 159.774514 103.556109 
L 161.604244 103.609619 
L 163.433974 103.687346 
L 165.263705 103.789291 
L 167.093435 103.915454 
L 168.923166 104.065834 
L 170.752896 104.240432 
L 172.582626 104.439248 
L 174.412357 104.662281 
L 176.242087 104.909531 
L 178.071818 105.181 
L 179.901548 105.476685 
L 181.731278 105.796589 
L 183.561009 106.14071 
L 185.390739 106.509048 
L 187.220469 106.901604 
L 189.0502 107.318378 
L 190.87993 107.759369 
L 192.709661 108.224578 
L 194.539391 108.714005 
L 196.369121 109.227649 
L 198.198852 109.76551 
L 200.028582 110.327589 
L 201.858313 110.913886 
L 203.688043 111.524401 
L 205.517773 112.159133 
L 207.347504 112.818082 
L 209.177234 113.501249 
L 211.006965 114.208634 
L 212.836695 114.940236 
L 214.666425 115.696056 
L 216.496156 116.476093 
L 218.325886 117.280348 
L 220.155617 118.108821 
L 221.985347 118.961511 
L 223.815077 119.838419 
L 225.644808 120.739544 
L 227.474538 121.664887 
L 229.304269 122.614448 
L 231.133999 123.588226 
L 232.963729 124.586221 
L 234.79346 125.608434 
L 236.62319 126.654865 
L 238.452921 127.725514 
L 240.282651 128.82038 
L 242.112381 129.939463 
L 243.942112 131.082764 
L 245.771842 132.250283 
L 247.601573 133.442019 
L 249.431303 134.657973 
L 251.261033 135.898145 
" clip-path="url(#pc6e8e18f4a)" style="fill: none; stroke: #ff0010; stroke-width: 1.1; stroke-linecap: square"/>
   </g>
   <g id="line2d_7">
    <path d="M 70.117724 130.600658 
L 71.947455 129.196117 
L 73.777185 127.815844 
L 75.606915 126.459838 
L 77.436646 125.128099 
L 79.266376 123.820627 
L 81.096107 122.537422 
L 82.925837 121.278484 
L 84.755567 120.043813 
L 86.585298 118.833409 
L 88.415028 117.647272 
L 90.244759 116.485402 
L 92.074489 115.347799 
L 93.904219 114.234464 
L 95.73395 113.145395 
L 97.56368 112.080593 
L 99.393411 111.040058 
L 101.223141 110.02379 
L 103.052871 109.031789 
L 104.882602 108.064055 
L 106.712332 107.120589 
L 108.542062 106.201389 
L 110.371793 105.306456 
L 112.201523 104.43579 
L 114.031254 103.589392 
L 115.860984 102.76726 
L 117.690714 101.969395 
L 119.520445 101.195797 
L 121.350175 100.446467 
L 123.179906 99.721403 
L 125.009636 99.020606 
L 126.839366 98.344077 
L 128.669097 97.691814 
L 130.498827 97.063818 
L 132.328558 96.46009 
L 134.158288 95.880628 
L 135.988018 95.325434 
L 137.817749 94.794506 
L 139.647479 94.287846 
L 141.47721 93.805452 
L 143.30694 93.347326 
L 145.13667 92.913466 
L 146.966401 92.503874 
L 148.796131 92.118548 
L 150.625862 91.75749 
L 152.455592 91.420698 
L 154.285322 91.108174 
L 156.115053 90.819917 
L 157.944783 90.555926 
L 159.774514 90.316203 
L 161.604244 90.100746 
L 163.433974 89.909557 
L 165.263705 89.742635 
L 167.093435 89.59998 
L 168.923166 89.481591 
L 170.752896 89.38747 
L 172.582626 89.317616 
L 174.412357 89.272028 
L 176.242087 89.250708 
L 178.071818 89.253655 
L 179.901548 89.280869 
L 181.731278 89.33235 
L 183.561009 89.408097 
L 185.390739 89.508112 
L 187.220469 89.632394 
L 189.0502 89.780943 
L 190.87993 89.953759 
L 192.709661 90.150842 
L 194.539391 90.372192 
L 196.369121 90.617809 
L 198.198852 90.887693 
L 200.028582 91.181844 
L 201.858313 91.500262 
L 203.688043 91.842947 
L 205.517773 92.209899 
L 207.347504 92.601118 
L 209.177234 93.016604 
L 211.006965 93.456357 
L 212.836695 93.920377 
L 214.666425 94.408664 
L 216.496156 94.921218 
L 218.325886 95.458039 
L 220.155617 96.019127 
L 221.985347 96.604482 
L 223.815077 97.214105 
L 225.644808 97.847994 
L 227.474538 98.50615 
L 229.304269 99.188573 
L 231.133999 99.895263 
L 232.963729 100.626221 
L 234.79346 101.381445 
L 236.62319 102.160936 
L 238.452921 102.964694 
L 240.282651 103.79272 
L 242.112381 104.645012 
L 243.942112 105.521571 
L 245.771842 106.422398 
L 247.601573 107.347491 
L 249.431303 108.296851 
L 251.261033 109.270479 
" clip-path="url(#pc6e8e18f4a)" style="fill: none; stroke: #9dcc00; stroke-width: 1.1; stroke-linecap: square"/>
   </g>
   <g id="line2d_8">
    <path d="M 70.117724 130.600658 
L 71.947455 128.908503 
L 73.777185 127.240713 
L 75.606915 125.597289 
L 77.436646 123.97823 
L 79.266376 122.383536 
L 81.096107 120.813208 
L 82.925837 119.267245 
L 84.755567 117.745648 
L 86.585298 116.248416 
L 88.415028 114.775549 
L 90.244759 113.327048 
L 92.074489 111.902912 
L 93.904219 110.503141 
L 95.73395 109.127736 
L 97.56368 107.776696 
L 99.393411 106.450021 
L 101.223141 105.147712 
L 103.052871 103.869768 
L 104.882602 102.61619 
L 106.712332 101.386977 
L 108.542062 100.182129 
L 110.371793 99.001647 
L 112.201523 97.84553 
L 114.031254 96.713778 
L 115.860984 95.606392 
L 117.690714 94.523371 
L 119.520445 93.464716 
L 121.350175 92.430426 
L 123.179906 91.420501 
L 125.009636 90.434942 
L 126.839366 89.473748 
L 128.669097 88.536919 
L 130.498827 87.624456 
L 132.328558 86.736358 
L 134.158288 85.872625 
L 135.988018 85.033258 
L 137.817749 84.218256 
L 139.647479 83.42762 
L 141.47721 82.661348 
L 143.30694 81.919443 
L 145.13667 81.201902 
L 146.966401 80.508727 
L 148.796131 79.839918 
L 150.625862 79.195473 
L 152.455592 78.575394 
L 154.285322 77.979681 
L 156.115053 77.408333 
L 157.944783 76.86135 
L 159.774514 76.338732 
L 161.604244 75.84048 
L 163.433974 75.366594 
L 165.263705 74.917072 
L 167.093435 74.491916 
L 168.923166 74.091126 
L 170.752896 73.7147 
L 172.582626 73.36264 
L 174.412357 73.034946 
L 176.242087 72.731617 
L 178.071818 72.452653 
L 179.901548 72.198055 
L 181.731278 71.967821 
L 183.561009 71.761954 
L 185.390739 71.580451 
L 187.220469 71.423314 
L 189.0502 71.290543 
L 190.87993 71.182137 
L 192.709661 71.098096 
L 194.539391 71.03842 
L 196.369121 71.00311 
L 198.198852 70.992165 
L 200.028582 71.005586 
L 201.858313 71.043372 
L 203.688043 71.105523 
L 205.517773 71.19204 
L 207.347504 71.302922 
L 209.177234 71.438169 
L 211.006965 71.597782 
L 212.836695 71.78176 
L 214.666425 71.990104 
L 216.496156 72.222813 
L 218.325886 72.479887 
L 220.155617 72.761326 
L 221.985347 73.067131 
L 223.815077 73.397302 
L 225.644808 73.751837 
L 227.474538 74.130738 
L 229.304269 74.534005 
L 231.133999 74.961637 
L 232.963729 75.413634 
L 234.79346 75.889996 
L 236.62319 76.390724 
L 238.452921 76.915818 
L 240.282651 77.465276 
L 242.112381 78.0391 
L 243.942112 78.63729 
L 245.771842 79.259844 
L 247.601573 79.906764 
L 249.431303 80.57805 
L 251.261033 81.273701 
" clip-path="url(#pc6e8e18f4a)" style="fill: none; stroke: #c20088; stroke-width: 1.1; stroke-linecap: square"/>
   </g>
   <g id="line2d_9">
    <path d="M 70.117724 130.600658 
L 71.947455 128.608834 
L 73.777185 126.641566 
L 75.606915 124.698856 
L 77.436646 122.780701 
L 79.266376 120.887104 
L 81.096107 119.018063 
L 82.925837 117.173578 
L 84.755567 115.35365 
L 86.585298 113.558279 
L 88.415028 111.787464 
L 90.244759 110.041206 
L 92.074489 108.319504 
L 93.904219 106.622359 
L 95.73395 104.94977 
L 97.56368 103.301738 
L 99.393411 101.678263 
L 101.223141 100.079344 
L 103.052871 98.504981 
L 104.882602 96.955175 
L 106.712332 95.429926 
L 108.542062 93.929233 
L 110.371793 92.453097 
L 112.201523 91.001517 
L 114.031254 89.574494 
L 115.860984 88.172028 
L 117.690714 86.794118 
L 119.520445 85.440764 
L 121.350175 84.111967 
L 123.179906 82.807727 
L 125.009636 81.528043 
L 126.839366 80.272916 
L 128.669097 79.042345 
L 130.498827 77.836331 
L 132.328558 76.654874 
L 134.158288 75.497973 
L 135.988018 74.365628 
L 137.817749 73.25784 
L 139.647479 72.174609 
L 141.47721 71.115934 
L 143.30694 70.081816 
L 145.13667 69.072254 
L 146.966401 68.087249 
L 148.796131 67.126801 
L 150.625862 66.190909 
L 152.455592 65.279573 
L 154.285322 64.392794 
L 156.115053 63.530572 
L 157.944783 62.692906 
L 159.774514 61.879797 
L 161.604244 61.091244 
L 163.433974 60.327248 
L 165.263705 59.587809 
L 167.093435 58.872926 
L 168.923166 58.182599 
L 170.752896 57.516829 
L 172.582626 56.875616 
L 174.412357 56.258959 
L 176.242087 55.666859 
L 178.071818 55.099315 
L 179.901548 54.556328 
L 181.731278 54.037898 
L 183.561009 53.544024 
L 185.390739 53.074706 
L 187.220469 52.629945 
L 189.0502 52.209741 
L 190.87993 51.814093 
L 192.709661 51.443002 
L 194.539391 51.096467 
L 196.369121 50.774489 
L 198.198852 50.477067 
L 200.028582 50.204202 
L 201.858313 49.955894 
L 203.688043 49.732142 
L 205.517773 49.532946 
L 207.347504 49.358308 
L 209.177234 49.208225 
L 211.006965 49.0827 
L 212.836695 48.981731 
L 214.666425 48.905318 
L 216.496156 48.853462 
L 218.325886 48.826162 
L 220.155617 48.823419 
L 221.985347 48.845233 
L 223.815077 48.891603 
L 225.644808 48.96253 
L 227.474538 49.058013 
L 229.304269 49.178053 
L 231.133999 49.322649 
L 232.963729 49.491802 
L 234.79346 49.685512 
L 236.62319 49.903778 
L 238.452921 50.146601 
L 240.282651 50.41398 
L 242.112381 50.705915 
L 243.942112 51.022408 
L 245.771842 51.363457 
L 247.601573 51.729062 
L 249.431303 52.119224 
L 251.261033 52.533942 
" clip-path="url(#pc6e8e18f4a)" style="fill: none; stroke: #003380; stroke-width: 1.1; stroke-linecap: square"/>
   </g>
   <g id="line2d_10">
    <path d="M 70.117724 130.600658 
L 71.947455 128.302163 
L 73.777185 126.028495 
L 75.606915 123.779652 
L 77.436646 121.555634 
L 79.266376 119.356443 
L 81.096107 117.182077 
L 82.925837 115.032536 
L 84.755567 112.907821 
L 86.585298 110.807932 
L 88.415028 108.732868 
L 90.244759 106.68263 
L 92.074489 104.657218 
L 93.904219 102.656631 
L 95.73395 100.68087 
L 97.56368 98.729934 
L 99.393411 96.803824 
L 101.223141 94.90254 
L 103.052871 93.026081 
L 104.882602 91.174448 
L 106.712332 89.347641 
L 108.542062 87.545659 
L 110.371793 85.768503 
L 112.201523 84.016172 
L 114.031254 82.288667 
L 115.860984 80.585988 
L 117.690714 78.908134 
L 119.520445 77.255106 
L 121.350175 75.626904 
L 123.179906 74.023527 
L 125.009636 72.444976 
L 126.839366 70.89125 
L 128.669097 69.36235 
L 130.498827 67.858276 
L 132.328558 66.379027 
L 134.158288 64.924604 
L 135.988018 63.495006 
L 137.817749 62.090234 
L 139.647479 60.710288 
L 141.47721 59.355167 
L 143.30694 58.024872 
L 145.13667 56.719403 
L 146.966401 55.438759 
L 148.796131 54.182941 
L 150.625862 52.951948 
L 152.455592 51.745781 
L 154.285322 50.56444 
L 156.115053 49.407924 
L 157.944783 48.276234 
L 159.774514 47.169369 
L 161.604244 46.08733 
L 163.433974 45.030117 
L 165.263705 43.99773 
L 167.093435 42.990168 
L 168.923166 42.007431 
L 170.752896 41.04952 
L 172.582626 40.116435 
L 174.412357 39.208176 
L 176.242087 38.324742 
L 178.071818 37.466133 
L 179.901548 36.632351 
L 181.731278 35.823394 
L 183.561009 35.039262 
L 185.390739 34.279956 
L 187.220469 33.545476 
L 189.0502 32.835822 
L 190.87993 32.150993 
L 192.709661 31.490989 
L 194.539391 30.855812 
L 196.369121 30.24546 
L 198.198852 29.659933 
L 200.028582 29.099232 
L 201.858313 28.563357 
L 203.688043 28.052307 
L 205.517773 27.566083 
L 207.347504 27.104685 
L 209.177234 26.668112 
L 211.006965 26.256365 
L 212.836695 25.869443 
L 214.666425 25.507347 
L 216.496156 25.170077 
L 218.325886 24.857632 
L 220.155617 24.570013 
L 221.985347 24.30722 
L 223.815077 24.069252 
L 225.644808 23.85611 
L 227.474538 23.667793 
L 229.304269 23.504302 
L 231.133999 23.365637 
L 232.963729 23.251797 
L 234.79346 23.162783 
L 236.62319 23.098595 
L 238.452921 23.059232 
L 240.282651 23.044695 
L 242.112381 23.054983 
L 243.942112 23.090097 
L 245.771842 23.150037 
L 247.601573 23.234802 
L 249.431303 23.344393 
L 251.261033 23.478809 
" clip-path="url(#pc6e8e18f4a)" style="fill: none; stroke: #ffa405; stroke-width: 1.1; stroke-linecap: square"/>
   </g>
   <g id="patch_3">
    <path d="M 61.060559 246.161281 
L 61.060559 12.42 
" style="fill: none; stroke: #000000; stroke-width: 0.8; stroke-linejoin: miter; stroke-linecap: square"/>
   </g>
   <g id="patch_4">
    <path d="M 260.318199 246.161281 
L 260.318199 12.42 
" style="fill: none; stroke: #000000; stroke-width: 0.8; stroke-linejoin: miter; stroke-linecap: square"/>
   </g>
   <g id="patch_5">
    <path d="M 61.060559 246.161281 
L 260.318199 246.161281 
" style="fill: none; stroke: #000000; stroke-width: 0.8; stroke-linejoin: miter; stroke-linecap: square"/>
   </g>
   <g id="patch_6">
    <path d="M 61.060559 12.42 
L 260.318199 12.42 
" style="fill: none; stroke: #000000; stroke-width: 0.8; stroke-linejoin: miter; stroke-linecap: square"/>
   </g>
   <g id="matplotlib.axis_1">
    <g id="xtick_1">
     <g id="line2d_11">
      <path d="M 70.117724 246.161281 
L 70.117724 12.42 
" clip-path="url(#pc6e8e18f4a)" style="fill: none; stroke-dasharray: 1.85,0.8; stroke-dashoffset: 0; stroke: #000000; stroke-width: 0.5"/>
     </g>
     <g id="line2d_12">
      <defs>
       <path id="m0c43aa8a08" d="M 0 0 
L 0 -3.5 
" style="stroke: #000000; stroke-width: 0.8"/>
      </defs>
      <g>
       <use xlink:href="#m0c43aa8a08" x="70.117724" y="246.161281" style="stroke: #000000; stroke-width: 0.8"/>
      </g>
     </g>
     <g id="text_1">
      <!-- $\mathdefault{0.0}$ -->
      <g transform="translate(62.797937 258.32435) scale(0.115 -0.115)">
       <defs>
        <path id="CMR17-30" d="M 2688 2038 
C 2688 2430 2682 3099 2413 3613 
C 2176 4063 1798 4224 1466 4224 
C 1158 4224 768 4082 525 3620 
C 269 3137 243 2539 243 2038 
C 243 1671 250 1112 448 623 
C 723 -39 1216 -128 1466 -128 
C 1760 -128 2208 -7 2470 604 
C 2662 1048 2688 1568 2688 2038 
z
M 1466 -26 
C 1056 -26 813 328 723 816 
C 653 1196 653 1749 653 2109 
C 653 2604 653 3015 736 3407 
C 858 3954 1216 4121 1466 4121 
C 1728 4121 2067 3947 2189 3420 
C 2272 3054 2278 2623 2278 2109 
C 2278 1691 2278 1176 2202 797 
C 2067 96 1690 -26 1466 -26 
z
" transform="scale(0.015625)"/>
        <path id="CMMI12-3a" d="M 1178 307 
C 1178 492 1024 620 870 620 
C 685 620 557 467 557 313 
C 557 128 710 0 864 0 
C 1050 0 1178 153 1178 307 
z
" transform="scale(0.015625)"/>
       </defs>
       <use xlink:href="#CMR17-30" transform="scale(0.996264)"/>
       <use xlink:href="#CMMI12-3a" transform="translate(45.690477 0) scale(0.996264)"/>
       <use xlink:href="#CMR17-30" transform="translate(72.787654 0) scale(0.996264)"/>
      </g>
     </g>
    </g>
    <g id="xtick_2">
     <g id="line2d_13">
      <path d="M 113.40494 246.161281 
L 113.40494 12.42 
" clip-path="url(#pc6e8e18f4a)" style="fill: none; stroke-dasharray: 1.85,0.8; stroke-dashoffset: 0; stroke: #000000; stroke-width: 0.5"/>
     </g>
     <g id="line2d_14">
      <g>
       <use xlink:href="#m0c43aa8a08" x="113.40494" y="246.161281" style="stroke: #000000; stroke-width: 0.8"/>
      </g>
     </g>
     <g id="text_2">
      <!-- $\mathdefault{0.2}$ -->
      <g transform="translate(106.085153 258.32435) scale(0.115 -0.115)">
       <defs>
        <path id="CMR17-32" d="M 2669 990 
L 2554 990 
C 2490 537 2438 460 2413 422 
C 2381 371 1920 371 1830 371 
L 602 371 
C 832 620 1280 1073 1824 1596 
C 2214 1966 2669 2400 2669 3033 
C 2669 3788 2067 4224 1395 4224 
C 691 4224 262 3603 262 3027 
C 262 2777 448 2745 525 2745 
C 589 2745 781 2783 781 3007 
C 781 3206 614 3264 525 3264 
C 486 3264 448 3257 422 3244 
C 544 3788 915 4057 1306 4057 
C 1862 4057 2227 3616 2227 3033 
C 2227 2477 1901 1998 1536 1583 
L 262 147 
L 262 0 
L 2515 0 
L 2669 990 
z
" transform="scale(0.015625)"/>
       </defs>
       <use xlink:href="#CMR17-30" transform="scale(0.996264)"/>
       <use xlink:href="#CMMI12-3a" transform="translate(45.690477 0) scale(0.996264)"/>
       <use xlink:href="#CMR17-32" transform="translate(72.787654 0) scale(0.996264)"/>
      </g>
     </g>
    </g>
    <g id="xtick_3">
     <g id="line2d_15">
      <path d="M 156.692156 246.161281 
L 156.692156 12.42 
" clip-path="url(#pc6e8e18f4a)" style="fill: none; stroke-dasharray: 1.85,0.8; stroke-dashoffset: 0; stroke: #000000; stroke-width: 0.5"/>
     </g>
     <g id="line2d_16">
      <g>
       <use xlink:href="#m0c43aa8a08" x="156.692156" y="246.161281" style="stroke: #000000; stroke-width: 0.8"/>
      </g>
     </g>
     <g id="text_3">
      <!-- $\mathdefault{0.4}$ -->
      <g transform="translate(149.372368 258.32435) scale(0.115 -0.115)">
       <defs>
        <path id="CMR17-34" d="M 2150 4147 
C 2150 4281 2144 4288 2029 4288 
L 128 1254 
L 128 1088 
L 1779 1088 
L 1779 460 
C 1779 230 1766 166 1318 166 
L 1197 166 
L 1197 0 
C 1402 12 1747 12 1965 12 
C 2182 12 2528 12 2733 0 
L 2733 166 
L 2611 166 
C 2163 166 2150 230 2150 460 
L 2150 1088 
L 2803 1088 
L 2803 1254 
L 2150 1254 
L 2150 4147 
z
M 1798 3723 
L 1798 1254 
L 256 1254 
L 1798 3723 
z
" transform="scale(0.015625)"/>
       </defs>
       <use xlink:href="#CMR17-30" transform="scale(0.996264)"/>
       <use xlink:href="#CMMI12-3a" transform="translate(45.690477 0) scale(0.996264)"/>
       <use xlink:href="#CMR17-34" transform="translate(72.787654 0) scale(0.996264)"/>
      </g>
     </g>
    </g>
    <g id="xtick_4">
     <g id="line2d_17">
      <path d="M 199.979372 246.161281 
L 199.979372 12.42 
" clip-path="url(#pc6e8e18f4a)" style="fill: none; stroke-dasharray: 1.85,0.8; stroke-dashoffset: 0; stroke: #000000; stroke-width: 0.5"/>
     </g>
     <g id="line2d_18">
      <g>
       <use xlink:href="#m0c43aa8a08" x="199.979372" y="246.161281" style="stroke: #000000; stroke-width: 0.8"/>
      </g>
     </g>
     <g id="text_4">
      <!-- $\mathdefault{0.6}$ -->
      <g transform="translate(192.659584 258.32435) scale(0.115 -0.115)">
       <defs>
        <path id="CMR17-36" d="M 678 2198 
C 678 3712 1395 4076 1811 4076 
C 1946 4076 2272 4049 2400 3782 
C 2298 3782 2106 3782 2106 3558 
C 2106 3385 2246 3328 2336 3328 
C 2394 3328 2566 3353 2566 3571 
C 2566 3987 2246 4224 1805 4224 
C 1043 4224 243 3411 243 2011 
C 243 257 966 -128 1478 -128 
C 2099 -128 2688 431 2688 1295 
C 2688 2101 2170 2688 1517 2688 
C 1126 2688 838 2430 678 1979 
L 678 2198 
z
M 1478 25 
C 691 25 691 1212 691 1450 
C 691 1914 909 2585 1504 2585 
C 1613 2585 1926 2585 2138 2140 
C 2253 1889 2253 1624 2253 1302 
C 2253 954 2253 696 2118 438 
C 1978 173 1773 25 1478 25 
z
" transform="scale(0.015625)"/>
       </defs>
       <use xlink:href="#CMR17-30" transform="scale(0.996264)"/>
       <use xlink:href="#CMMI12-3a" transform="translate(45.690477 0) scale(0.996264)"/>
       <use xlink:href="#CMR17-36" transform="translate(72.787654 0) scale(0.996264)"/>
      </g>
     </g>
    </g>
    <g id="xtick_5">
     <g id="line2d_19">
      <path d="M 243.266587 246.161281 
L 243.266587 12.42 
" clip-path="url(#pc6e8e18f4a)" style="fill: none; stroke-dasharray: 1.85,0.8; stroke-dashoffset: 0; stroke: #000000; stroke-width: 0.5"/>
     </g>
     <g id="line2d_20">
      <g>
       <use xlink:href="#m0c43aa8a08" x="243.266587" y="246.161281" style="stroke: #000000; stroke-width: 0.8"/>
      </g>
     </g>
     <g id="text_5">
      <!-- $\mathdefault{0.8}$ -->
      <g transform="translate(235.9468 258.32435) scale(0.115 -0.115)">
       <defs>
        <path id="CMR17-38" d="M 1741 2289 
C 2144 2494 2554 2803 2554 3298 
C 2554 3884 1990 4224 1472 4224 
C 890 4224 378 3800 378 3215 
C 378 3054 416 2777 666 2533 
C 730 2469 998 2276 1171 2154 
C 883 2006 211 1652 211 945 
C 211 282 838 -128 1459 -128 
C 2144 -128 2720 366 2720 1022 
C 2720 1607 2330 1877 2074 2051 
L 1741 2289 
z
M 902 2855 
C 851 2887 595 3086 595 3388 
C 595 3781 998 4076 1459 4076 
C 1965 4076 2336 3716 2336 3298 
C 2336 2700 1670 2359 1638 2359 
C 1632 2359 1626 2359 1574 2398 
L 902 2855 
z
M 2080 1536 
C 2176 1466 2483 1253 2483 861 
C 2483 385 2010 25 1472 25 
C 890 25 448 443 448 951 
C 448 1459 838 1884 1280 2083 
L 2080 1536 
z
" transform="scale(0.015625)"/>
       </defs>
       <use xlink:href="#CMR17-30" transform="scale(0.996264)"/>
       <use xlink:href="#CMMI12-3a" transform="translate(45.690477 0) scale(0.996264)"/>
       <use xlink:href="#CMR17-38" transform="translate(72.787654 0) scale(0.996264)"/>
      </g>
     </g>
    </g>
    <g id="text_6">
     <!-- Current (A) -->
     <g transform="translate(132.362248 273.139719) scale(0.115 -0.115)">
      <defs>
       <path id="NimbusSanL-Regu-43" d="M 4237 3219 
C 4051 4236 3462 4736 2438 4736 
C 1811 4736 1306 4537 960 4154 
C 538 3696 307 3035 307 2284 
C 307 1522 544 867 986 415 
C 1344 44 1805 -128 2413 -128 
C 3552 -128 4192 485 4333 1712 
L 3718 1712 
C 3667 1394 3603 1178 3507 994 
C 3315 612 2918 396 2419 396 
C 1491 396 902 1134 902 2291 
C 902 3480 1466 4211 2368 4211 
C 2746 4211 3098 4096 3290 3918 
C 3462 3759 3558 3562 3629 3219 
L 4237 3219 
z
" transform="scale(0.015625)"/>
       <path id="NimbusSanL-Regu-75" d="M 3085 19 
L 3085 3328 
L 2554 3328 
L 2554 1454 
C 2554 780 2195 339 1638 339 
C 1216 339 947 591 947 988 
L 947 3328 
L 416 3328 
L 416 780 
C 416 230 832 -128 1485 -128 
C 1978 -128 2291 44 2605 484 
L 2605 19 
L 3085 19 
z
" transform="scale(0.015625)"/>
       <path id="NimbusSanL-Regu-72" d="M 442 3328 
L 442 0 
L 979 0 
L 979 1727 
C 979 2203 1101 2514 1357 2698 
C 1523 2819 1683 2857 2054 2863 
L 2054 3404 
C 1965 3449 1920 3456 1850 3456 
C 1504 3456 1242 3251 934 2750 
L 934 3328 
L 442 3328 
z
" transform="scale(0.015625)"/>
       <path id="NimbusSanL-Regu-65" d="M 3283 1484 
C 3283 1998 3245 2311 3149 2565 
C 2931 3123 2419 3456 1792 3456 
C 858 3456 256 2734 256 1619 
C 256 545 838 -128 1779 -128 
C 2547 -128 3078 307 3213 1018 
L 2675 1018 
C 2528 588 2227 364 1798 364 
C 1459 364 1171 514 992 787 
C 864 974 819 1161 813 1484 
L 3283 1484 
z
M 826 1920 
C 870 2552 1248 2963 1786 2963 
C 2310 2963 2714 2519 2714 1959 
C 2714 1946 2714 1933 2707 1920 
L 826 1920 
z
" transform="scale(0.015625)"/>
       <path id="NimbusSanL-Regu-6e" d="M 448 3328 
L 448 0 
L 986 0 
L 986 1835 
C 986 2539 1344 2988 1894 2988 
C 2317 2988 2586 2732 2586 2328 
L 2586 0 
L 3117 0 
L 3117 2539 
C 3117 3097 2701 3456 2054 3456 
C 1555 3456 1235 3263 941 2796 
L 941 3328 
L 448 3328 
z
" transform="scale(0.015625)"/>
       <path id="NimbusSanL-Regu-74" d="M 1626 3328 
L 1075 3328 
L 1075 4249 
L 544 4249 
L 544 3328 
L 90 3328 
L 90 2892 
L 544 2892 
L 544 402 
C 544 64 774 -128 1190 -128 
C 1318 -128 1446 -116 1626 -84 
L 1626 364 
C 1555 345 1472 339 1370 339 
C 1139 339 1075 402 1075 634 
L 1075 2892 
L 1626 2892 
L 1626 3328 
z
" transform="scale(0.015625)"/>
       <path id="NimbusSanL-Regu-28" d="M 1510 4672 
C 870 3833 467 2668 467 1663 
C 467 652 870 -513 1510 -1351 
L 1862 -1351 
C 1299 -436 986 639 986 1663 
C 986 2681 1299 3763 1862 4672 
L 1510 4672 
z
" transform="scale(0.015625)"/>
       <path id="NimbusSanL-Regu-41" d="M 3034 1408 
L 3514 0 
L 4179 0 
L 2541 4672 
L 1773 4672 
L 109 0 
L 742 0 
L 1235 1408 
L 3034 1408 
z
M 2867 1907 
L 1382 1907 
L 2150 4032 
L 2867 1907 
z
" transform="scale(0.015625)"/>
       <path id="NimbusSanL-Regu-29" d="M 595 -1351 
C 1235 -513 1638 652 1638 1657 
C 1638 2668 1235 3833 595 4672 
L 243 4672 
C 806 3756 1120 2681 1120 1657 
C 1120 639 806 -442 243 -1351 
L 595 -1351 
z
" transform="scale(0.015625)"/>
      </defs>
      <use xlink:href="#NimbusSanL-Regu-43" transform="scale(0.996264)"/>
      <use xlink:href="#NimbusSanL-Regu-75" transform="translate(71.929985 0) scale(0.996264)"/>
      <use xlink:href="#NimbusSanL-Regu-72" transform="translate(127.321662 0) scale(0.996264)"/>
      <use xlink:href="#NimbusSanL-Regu-72" transform="translate(160.496892 0) scale(0.996264)"/>
      <use xlink:href="#NimbusSanL-Regu-65" transform="translate(193.672121 0) scale(0.996264)"/>
      <use xlink:href="#NimbusSanL-Regu-6e" transform="translate(249.063798 0) scale(0.996264)"/>
      <use xlink:href="#NimbusSanL-Regu-74" transform="translate(304.455475 0) scale(0.996264)"/>
      <use xlink:href="#NimbusSanL-Regu-28" transform="translate(359.845814 0) scale(0.996264)"/>
      <use xlink:href="#NimbusSanL-Regu-41" transform="translate(393.021044 0) scale(0.996264)"/>
      <use xlink:href="#NimbusSanL-Regu-29" transform="translate(459.471075 0) scale(0.996264)"/>
     </g>
    </g>
   </g>
   <g id="matplotlib.axis_2">
    <g id="ytick_1">
     <g id="line2d_21">
      <path d="M 61.060559 224.755028 
L 260.318199 224.755028 
" clip-path="url(#pc6e8e18f4a)" style="fill: none; stroke-dasharray: 1.85,0.8; stroke-dashoffset: 0; stroke: #000000; stroke-width: 0.5"/>
     </g>
     <g id="line2d_22">
      <defs>
       <path id="m4d428c72a2" d="M 0 0 
L 3.5 0 
" style="stroke: #000000; stroke-width: 0.8"/>
      </defs>
      <g>
       <use xlink:href="#m4d428c72a2" x="61.060559" y="224.755028" style="stroke: #000000; stroke-width: 0.8"/>
      </g>
     </g>
     <g id="text_7">
      <!-- $\mathdefault{−4000}$ -->
      <g transform="translate(27.235369 228.836562) scale(0.115 -0.115)">
       <defs>
        <path id="CMSY10-0" d="M 4218 1472 
C 4326 1472 4442 1472 4442 1600 
C 4442 1728 4326 1728 4218 1728 
L 755 1728 
C 646 1728 531 1728 531 1600 
C 531 1472 646 1472 755 1472 
L 4218 1472 
z
" transform="scale(0.015625)"/>
       </defs>
       <use xlink:href="#CMSY10-0" transform="scale(0.996264)"/>
       <use xlink:href="#CMR17-34" transform="translate(77.487468 0) scale(0.996264)"/>
       <use xlink:href="#CMR17-30" transform="translate(123.177945 0) scale(0.996264)"/>
       <use xlink:href="#CMR17-30" transform="translate(168.868422 0) scale(0.996264)"/>
       <use xlink:href="#CMR17-30" transform="translate(214.558899 0) scale(0.996264)"/>
      </g>
     </g>
    </g>
    <g id="ytick_2">
     <g id="line2d_23">
      <path d="M 61.060559 177.677843 
L 260.318199 177.677843 
" clip-path="url(#pc6e8e18f4a)" style="fill: none; stroke-dasharray: 1.85,0.8; stroke-dashoffset: 0; stroke: #000000; stroke-width: 0.5"/>
     </g>
     <g id="line2d_24">
      <g>
       <use xlink:href="#m4d428c72a2" x="61.060559" y="177.677843" style="stroke: #000000; stroke-width: 0.8"/>
      </g>
     </g>
     <g id="text_8">
      <!-- $\mathdefault{−2000}$ -->
      <g transform="translate(27.235369 181.759377) scale(0.115 -0.115)">
       <use xlink:href="#CMSY10-0" transform="scale(0.996264)"/>
       <use xlink:href="#CMR17-32" transform="translate(77.487468 0) scale(0.996264)"/>
       <use xlink:href="#CMR17-30" transform="translate(123.177945 0) scale(0.996264)"/>
       <use xlink:href="#CMR17-30" transform="translate(168.868422 0) scale(0.996264)"/>
       <use xlink:href="#CMR17-30" transform="translate(214.558899 0) scale(0.996264)"/>
      </g>
     </g>
    </g>
    <g id="ytick_3">
     <g id="line2d_25">
      <path d="M 61.060559 130.600658 
L 260.318199 130.600658 
" clip-path="url(#pc6e8e18f4a)" style="fill: none; stroke-dasharray: 1.85,0.8; stroke-dashoffset: 0; stroke: #000000; stroke-width: 0.5"/>
     </g>
     <g id="line2d_26">
      <g>
       <use xlink:href="#m4d428c72a2" x="61.060559" y="130.600658" style="stroke: #000000; stroke-width: 0.8"/>
      </g>
     </g>
     <g id="text_9">
      <!-- $\mathdefault{0}$ -->
      <g transform="translate(53.332025 134.682192) scale(0.115 -0.115)">
       <use xlink:href="#CMR17-30" transform="scale(0.996264)"/>
      </g>
     </g>
    </g>
    <g id="ytick_4">
     <g id="line2d_27">
      <path d="M 61.060559 83.523472 
L 260.318199 83.523472 
" clip-path="url(#pc6e8e18f4a)" style="fill: none; stroke-dasharray: 1.85,0.8; stroke-dashoffset: 0; stroke: #000000; stroke-width: 0.5"/>
     </g>
     <g id="line2d_28">
      <g>
       <use xlink:href="#m4d428c72a2" x="61.060559" y="83.523472" style="stroke: #000000; stroke-width: 0.8"/>
      </g>
     </g>
     <g id="text_10">
      <!-- $\mathdefault{2000}$ -->
      <g transform="translate(36.146426 87.605006) scale(0.115 -0.115)">
       <use xlink:href="#CMR17-32" transform="scale(0.996264)"/>
       <use xlink:href="#CMR17-30" transform="translate(45.690477 0) scale(0.996264)"/>
       <use xlink:href="#CMR17-30" transform="translate(91.380954 0) scale(0.996264)"/>
       <use xlink:href="#CMR17-30" transform="translate(137.071431 0) scale(0.996264)"/>
      </g>
     </g>
    </g>
    <g id="ytick_5">
     <g id="line2d_29">
      <path d="M 61.060559 36.446287 
L 260.318199 36.446287 
" clip-path="url(#pc6e8e18f4a)" style="fill: none; stroke-dasharray: 1.85,0.8; stroke-dashoffset: 0; stroke: #000000; stroke-width: 0.5"/>
     </g>
     <g id="line2d_30">
      <g>
       <use xlink:href="#m4d428c72a2" x="61.060559" y="36.446287" style="stroke: #000000; stroke-width: 0.8"/>
      </g>
     </g>
     <g id="text_11">
      <!-- $\mathdefault{4000}$ -->
      <g transform="translate(36.146426 40.527821) scale(0.115 -0.115)">
       <use xlink:href="#CMR17-34" transform="scale(0.996264)"/>
       <use xlink:href="#CMR17-30" transform="translate(45.690477 0) scale(0.996264)"/>
       <use xlink:href="#CMR17-30" transform="translate(91.380954 0) scale(0.996264)"/>
       <use xlink:href="#CMR17-30" transform="translate(137.071431 0) scale(0.996264)"/>
      </g>
     </g>
    </g>
    <g id="text_12">
     <!-- Power ($\mu$W) -->
     <g transform="translate(20.795088 159.362518) rotate(-90) scale(0.115 -0.115)">
      <defs>
       <path id="NimbusSanL-Regu-50" d="M 1178 1984 
L 2643 1984 
C 3008 1984 3296 2092 3546 2316 
C 3827 2572 3949 2873 3949 3302 
C 3949 4179 3430 4672 2509 4672 
L 582 4672 
L 582 0 
L 1178 0 
L 1178 1984 
z
M 1178 2508 
L 1178 4147 
L 2419 4147 
C 2989 4147 3328 3839 3328 3327 
C 3328 2816 2989 2508 2419 2508 
L 1178 2508 
z
" transform="scale(0.015625)"/>
       <path id="NimbusSanL-Regu-6f" d="M 1741 3456 
C 800 3456 230 2784 230 1663 
C 230 543 794 -128 1747 -128 
C 2688 -128 3264 543 3264 1638 
C 3264 2791 2707 3456 1741 3456 
z
M 1747 2963 
C 2349 2963 2707 2472 2707 1644 
C 2707 861 2336 364 1747 364 
C 1152 364 787 855 787 1663 
C 787 2466 1152 2963 1747 2963 
z
" transform="scale(0.015625)"/>
       <path id="NimbusSanL-Regu-77" d="M 3546 0 
L 4531 3328 
L 3930 3328 
L 3264 737 
L 2605 3328 
L 1952 3328 
L 1312 737 
L 627 3328 
L 38 3328 
L 1011 0 
L 1613 0 
L 2259 2609 
L 2938 0 
L 3546 0 
z
" transform="scale(0.015625)"/>
       <path id="CMMI12-16" d="M 922 140 
C 1082 -7 1318 -64 1536 -64 
C 1946 -64 2227 210 2374 408 
C 2438 70 2707 -64 2931 -64 
C 3123 -64 3277 51 3392 281 
C 3494 498 3584 887 3584 913 
C 3584 944 3558 970 3520 970 
C 3462 970 3456 938 3430 842 
C 3334 466 3213 64 2950 64 
C 2765 64 2752 229 2752 357 
C 2752 504 2810 734 2854 925 
L 3034 1615 
C 3059 1736 3130 2023 3162 2138 
C 3200 2291 3270 2566 3270 2591 
C 3270 2687 3194 2752 3098 2752 
C 3040 2752 2906 2726 2854 2534 
L 2406 759 
C 2374 632 2374 619 2291 517 
C 2214 408 1965 64 1562 64 
C 1203 64 1088 325 1088 625 
C 1088 811 1146 1034 1171 1143 
L 1459 2292 
C 1491 2413 1542 2617 1542 2656 
C 1542 2758 1459 2816 1376 2816 
C 1318 2816 1178 2796 1126 2592 
L 198 -1085 
C 192 -1116 179 -1154 179 -1191 
C 179 -1287 256 -1351 352 -1351 
C 538 -1351 576 -1204 621 -1029 
L 922 140 
z
" transform="scale(0.015625)"/>
       <path id="NimbusSanL-Regu-57" d="M 4762 0 
L 5946 4672 
L 5280 4672 
L 4422 877 
L 3360 4672 
L 2720 4672 
L 1683 877 
L 806 4672 
L 141 4672 
L 1338 0 
L 1990 0 
L 3034 3838 
L 4109 0 
L 4762 0 
z
" transform="scale(0.015625)"/>
      </defs>
      <use xlink:href="#NimbusSanL-Regu-50" transform="scale(0.996264)"/>
      <use xlink:href="#NimbusSanL-Regu-6f" transform="translate(61.468681 0) scale(0.996264)"/>
      <use xlink:href="#NimbusSanL-Regu-77" transform="translate(115.366965 0) scale(0.996264)"/>
      <use xlink:href="#NimbusSanL-Regu-65" transform="translate(186.300853 0) scale(0.996264)"/>
      <use xlink:href="#NimbusSanL-Regu-72" transform="translate(241.69253 0) scale(0.996264)"/>
      <use xlink:href="#NimbusSanL-Regu-28" transform="translate(302.562929 0) scale(0.996264)"/>
      <use xlink:href="#CMMI12-16" transform="translate(335.738159 0) scale(0.996264)"/>
      <use xlink:href="#NimbusSanL-Regu-57" transform="translate(394.42958 0) scale(0.996264)"/>
      <use xlink:href="#NimbusSanL-Regu-29" transform="translate(488.47635 0) scale(0.996264)"/>
     </g>
    </g>
   </g>
   <g id="legend_1">
    <g id="line2d_31">
     <path d="M 270.668199 26.908068 
L 279.293199 26.908068 
L 287.918199 26.908068 
" style="fill: none; stroke: #f0a3ff; stroke-width: 1.1; stroke-linecap: square"/>
    </g>
    <g id="text_13">
     <!-- 323.15 K -->
     <g transform="translate(297.118199 30.933068) scale(0.115 -0.115)">
      <defs>
       <path id="NimbusSanL-Regu-33" d="M 1414 2093 
L 1485 2093 
L 1722 2099 
C 2342 2099 2662 1819 2662 1276 
C 2662 709 2310 371 1722 371 
C 1107 371 806 677 768 1334 
L 205 1334 
C 230 970 294 734 403 530 
C 634 96 1082 -128 1702 -128 
C 2637 -128 3238 428 3238 1283 
C 3238 1857 3014 2176 2470 2361 
C 2893 2526 3104 2845 3104 3298 
C 3104 4076 2586 4544 1722 4544 
C 806 4544 320 4044 301 3081 
L 864 3081 
C 870 3356 896 3509 966 3649 
C 1094 3898 1376 4051 1728 4051 
C 2227 4051 2528 3757 2528 3279 
C 2528 2960 2413 2769 2163 2667 
C 2010 2603 1811 2577 1414 2571 
L 1414 2093 
z
" transform="scale(0.015625)"/>
       <path id="NimbusSanL-Regu-32" d="M 3238 556 
L 851 556 
C 909 928 1114 1165 1670 1493 
L 2310 1839 
C 2944 2185 3270 2653 3270 3211 
C 3270 3589 3117 3942 2848 4185 
C 2579 4428 2246 4544 1818 4544 
C 1242 4544 813 4339 563 3955 
C 403 3711 333 3429 320 2967 
L 883 2967 
C 902 3275 941 3461 1018 3608 
C 1165 3884 1459 4051 1798 4051 
C 2310 4051 2694 3685 2694 3198 
C 2694 2839 2483 2531 2080 2300 
L 1491 1967 
C 544 1428 269 999 218 0 
L 3238 0 
L 3238 556 
z
" transform="scale(0.015625)"/>
       <path id="NimbusSanL-Regu-2e" d="M 1222 665 
L 557 665 
L 557 0 
L 1222 0 
L 1222 665 
z
" transform="scale(0.015625)"/>
       <path id="NimbusSanL-Regu-31" d="M 1658 3232 
L 1658 0 
L 2221 0 
L 2221 4537 
L 1850 4537 
C 1651 3840 1523 3744 653 3635 
L 653 3232 
L 1658 3232 
z
" transform="scale(0.015625)"/>
       <path id="NimbusSanL-Regu-35" d="M 3046 4544 
L 704 4544 
L 365 2076 
L 883 2076 
C 1146 2387 1363 2496 1715 2496 
C 2323 2496 2707 2082 2707 1414 
C 2707 765 2330 371 1715 371 
C 1222 371 922 619 787 1128 
L 224 1128 
C 301 759 365 581 499 415 
C 755 70 1216 -128 1728 -128 
C 2643 -128 3283 536 3283 1490 
C 3283 2381 2688 2995 1818 2995 
C 1498 2995 1242 2912 979 2720 
L 1158 3987 
L 3046 3987 
L 3046 4544 
z
" transform="scale(0.015625)"/>
       <path id="NimbusSanL-Regu-4b" d="M 1101 1634 
L 1862 2396 
L 3507 0 
L 4211 0 
L 2291 2768 
L 4192 4672 
L 3424 4672 
L 1101 2307 
L 1101 4672 
L 506 4672 
L 506 0 
L 1101 0 
L 1101 1634 
z
" transform="scale(0.015625)"/>
      </defs>
      <use xlink:href="#NimbusSanL-Regu-33" transform="scale(0.996264)"/>
      <use xlink:href="#NimbusSanL-Regu-32" transform="translate(55.391677 0) scale(0.996264)"/>
      <use xlink:href="#NimbusSanL-Regu-33" transform="translate(110.783354 0) scale(0.996264)"/>
      <use xlink:href="#NimbusSanL-Regu-2e" transform="translate(166.175031 0) scale(0.996264)"/>
      <use xlink:href="#NimbusSanL-Regu-31" transform="translate(193.8702 0) scale(0.996264)"/>
      <use xlink:href="#NimbusSanL-Regu-35" transform="translate(249.261877 0) scale(0.996264)"/>
      <use xlink:href="#NimbusSanL-Regu-4b" transform="translate(332.348724 0) scale(0.996264)"/>
     </g>
    </g>
    <g id="line2d_32">
     <path d="M 270.668199 43.261418 
L 279.293199 43.261418 
L 287.918199 43.261418 
" style="fill: none; stroke: #0075dc; stroke-width: 1.1; stroke-linecap: square"/>
    </g>
    <g id="text_14">
     <!-- 373.15 K -->
     <g transform="translate(297.118199 47.286418) scale(0.115 -0.115)">
      <defs>
       <path id="NimbusSanL-Regu-37" d="M 3328 4544 
L 294 4544 
L 294 3987 
L 2746 3987 
C 1664 2442 1222 1493 883 0 
L 1485 0 
C 1734 1454 2304 2704 3328 4070 
L 3328 4544 
z
" transform="scale(0.015625)"/>
      </defs>
      <use xlink:href="#NimbusSanL-Regu-33" transform="scale(0.996264)"/>
      <use xlink:href="#NimbusSanL-Regu-37" transform="translate(55.391677 0) scale(0.996264)"/>
      <use xlink:href="#NimbusSanL-Regu-33" transform="translate(110.783354 0) scale(0.996264)"/>
      <use xlink:href="#NimbusSanL-Regu-2e" transform="translate(166.175031 0) scale(0.996264)"/>
      <use xlink:href="#NimbusSanL-Regu-31" transform="translate(193.8702 0) scale(0.996264)"/>
      <use xlink:href="#NimbusSanL-Regu-35" transform="translate(249.261877 0) scale(0.996264)"/>
      <use xlink:href="#NimbusSanL-Regu-4b" transform="translate(332.348724 0) scale(0.996264)"/>
     </g>
    </g>
    <g id="line2d_33">
     <path d="M 270.668199 59.614768 
L 279.293199 59.614768 
L 287.918199 59.614768 
" style="fill: none; stroke: #993f00; stroke-width: 1.1; stroke-linecap: square"/>
    </g>
    <g id="text_15">
     <!-- 423.15 K -->
     <g transform="translate(297.118199 63.639768) scale(0.115 -0.115)">
      <defs>
       <path id="NimbusSanL-Regu-34" d="M 2093 1088 
L 2093 0 
L 2656 0 
L 2656 1088 
L 3328 1088 
L 3328 1593 
L 2656 1593 
L 2656 4537 
L 2240 4537 
L 179 1683 
L 179 1088 
L 2093 1088 
z
M 2093 1593 
L 672 1593 
L 2093 3577 
L 2093 1593 
z
" transform="scale(0.015625)"/>
      </defs>
      <use xlink:href="#NimbusSanL-Regu-34" transform="scale(0.996264)"/>
      <use xlink:href="#NimbusSanL-Regu-32" transform="translate(55.391677 0) scale(0.996264)"/>
      <use xlink:href="#NimbusSanL-Regu-33" transform="translate(110.783354 0) scale(0.996264)"/>
      <use xlink:href="#NimbusSanL-Regu-2e" transform="translate(166.175031 0) scale(0.996264)"/>
      <use xlink:href="#NimbusSanL-Regu-31" transform="translate(193.8702 0) scale(0.996264)"/>
      <use xlink:href="#NimbusSanL-Regu-35" transform="translate(249.261877 0) scale(0.996264)"/>
      <use xlink:href="#NimbusSanL-Regu-4b" transform="translate(332.348724 0) scale(0.996264)"/>
     </g>
    </g>
    <g id="line2d_34">
     <path d="M 270.668199 75.968117 
L 279.293199 75.968117 
L 287.918199 75.968117 
" style="fill: none; stroke: #4c005c; stroke-width: 1.1; stroke-linecap: square"/>
    </g>
    <g id="text_16">
     <!-- 473.15 K -->
     <g transform="translate(297.118199 79.993117) scale(0.115 -0.115)">
      <use xlink:href="#NimbusSanL-Regu-34" transform="scale(0.996264)"/>
      <use xlink:href="#NimbusSanL-Regu-37" transform="translate(55.391677 0) scale(0.996264)"/>
      <use xlink:href="#NimbusSanL-Regu-33" transform="translate(110.783354 0) scale(0.996264)"/>
      <use xlink:href="#NimbusSanL-Regu-2e" transform="translate(166.175031 0) scale(0.996264)"/>
      <use xlink:href="#NimbusSanL-Regu-31" transform="translate(193.8702 0) scale(0.996264)"/>
      <use xlink:href="#NimbusSanL-Regu-35" transform="translate(249.261877 0) scale(0.996264)"/>
      <use xlink:href="#NimbusSanL-Regu-4b" transform="translate(332.348724 0) scale(0.996264)"/>
     </g>
    </g>
    <g id="line2d_35">
     <path d="M 270.668199 92.321467 
L 279.293199 92.321467 
L 287.918199 92.321467 
" style="fill: none; stroke: #426600; stroke-width: 1.1; stroke-linecap: square"/>
    </g>
    <g id="text_17">
     <!-- 523.15 K -->
     <g transform="translate(297.118199 96.346467) scale(0.115 -0.115)">
      <use xlink:href="#NimbusSanL-Regu-35" transform="scale(0.996264)"/>
      <use xlink:href="#NimbusSanL-Regu-32" transform="translate(55.391677 0) scale(0.996264)"/>
      <use xlink:href="#NimbusSanL-Regu-33" transform="translate(110.783354 0) scale(0.996264)"/>
      <use xlink:href="#NimbusSanL-Regu-2e" transform="translate(166.175031 0) scale(0.996264)"/>
      <use xlink:href="#NimbusSanL-Regu-31" transform="translate(193.8702 0) scale(0.996264)"/>
      <use xlink:href="#NimbusSanL-Regu-35" transform="translate(249.261877 0) scale(0.996264)"/>
      <use xlink:href="#NimbusSanL-Regu-4b" transform="translate(332.348724 0) scale(0.996264)"/>
     </g>
    </g>
    <g id="line2d_36">
     <path d="M 270.668199 108.674816 
L 279.293199 108.674816 
L 287.918199 108.674816 
" style="fill: none; stroke: #ff0010; stroke-width: 1.1; stroke-linecap: square"/>
    </g>
    <g id="text_18">
     <!-- 573.15 K -->
     <g transform="translate(297.118199 112.699816) scale(0.115 -0.115)">
      <use xlink:href="#NimbusSanL-Regu-35" transform="scale(0.996264)"/>
      <use xlink:href="#NimbusSanL-Regu-37" transform="translate(55.391677 0) scale(0.996264)"/>
      <use xlink:href="#NimbusSanL-Regu-33" transform="translate(110.783354 0) scale(0.996264)"/>
      <use xlink:href="#NimbusSanL-Regu-2e" transform="translate(166.175031 0) scale(0.996264)"/>
      <use xlink:href="#NimbusSanL-Regu-31" transform="translate(193.8702 0) scale(0.996264)"/>
      <use xlink:href="#NimbusSanL-Regu-35" transform="translate(249.261877 0) scale(0.996264)"/>
      <use xlink:href="#NimbusSanL-Regu-4b" transform="translate(332.348724 0) scale(0.996264)"/>
     </g>
    </g>
    <g id="line2d_37">
     <path d="M 270.668199 125.028166 
L 279.293199 125.028166 
L 287.918199 125.028166 
" style="fill: none; stroke: #9dcc00; stroke-width: 1.1; stroke-linecap: square"/>
    </g>
    <g id="text_19">
     <!-- 623.15 K -->
     <g transform="translate(297.118199 129.053166) scale(0.115 -0.115)">
      <defs>
       <path id="NimbusSanL-Regu-36" d="M 3187 3352 
C 3078 4102 2592 4544 1901 4544 
C 1402 4544 954 4300 685 3895 
C 403 3449 275 2887 275 2064 
C 275 1312 390 832 659 434 
C 902 70 1299 -128 1798 -128 
C 2662 -128 3283 510 3283 1388 
C 3283 2221 2707 2816 1894 2816 
C 1446 2816 1094 2643 851 2310 
C 858 3423 1216 4044 1862 4044 
C 2259 4044 2534 3792 2624 3352 
L 3187 3352 
z
M 1824 2316 
C 2368 2316 2707 1944 2707 1343 
C 2707 781 2323 371 1805 371 
C 1280 371 883 800 883 1375 
C 883 1931 1267 2316 1824 2316 
z
" transform="scale(0.015625)"/>
      </defs>
      <use xlink:href="#NimbusSanL-Regu-36" transform="scale(0.996264)"/>
      <use xlink:href="#NimbusSanL-Regu-32" transform="translate(55.391677 0) scale(0.996264)"/>
      <use xlink:href="#NimbusSanL-Regu-33" transform="translate(110.783354 0) scale(0.996264)"/>
      <use xlink:href="#NimbusSanL-Regu-2e" transform="translate(166.175031 0) scale(0.996264)"/>
      <use xlink:href="#NimbusSanL-Regu-31" transform="translate(193.8702 0) scale(0.996264)"/>
      <use xlink:href="#NimbusSanL-Regu-35" transform="translate(249.261877 0) scale(0.996264)"/>
      <use xlink:href="#NimbusSanL-Regu-4b" transform="translate(332.348724 0) scale(0.996264)"/>
     </g>
    </g>
    <g id="line2d_38">
     <path d="M 270.668199 141.381516 
L 279.293199 141.381516 
L 287.918199 141.381516 
" style="fill: none; stroke: #c20088; stroke-width: 1.1; stroke-linecap: square"/>
    </g>
    <g id="text_20">
     <!-- 673.15 K -->
     <g transform="translate(297.118199 145.406516) scale(0.115 -0.115)">
      <use xlink:href="#NimbusSanL-Regu-36" transform="scale(0.996264)"/>
      <use xlink:href="#NimbusSanL-Regu-37" transform="translate(55.391677 0) scale(0.996264)"/>
      <use xlink:href="#NimbusSanL-Regu-33" transform="translate(110.783354 0) scale(0.996264)"/>
      <use xlink:href="#NimbusSanL-Regu-2e" transform="translate(166.175031 0) scale(0.996264)"/>
      <use xlink:href="#NimbusSanL-Regu-31" transform="translate(193.8702 0) scale(0.996264)"/>
      <use xlink:href="#NimbusSanL-Regu-35" transform="translate(249.261877 0) scale(0.996264)"/>
      <use xlink:href="#NimbusSanL-Regu-4b" transform="translate(332.348724 0) scale(0.996264)"/>
     </g>
    </g>
    <g id="line2d_39">
     <path d="M 270.668199 157.734865 
L 279.293199 157.734865 
L 287.918199 157.734865 
" style="fill: none; stroke: #003380; stroke-width: 1.1; stroke-linecap: square"/>
    </g>
    <g id="text_21">
     <!-- 723.15 K -->
     <g transform="translate(297.118199 161.759865) scale(0.115 -0.115)">
      <use xlink:href="#NimbusSanL-Regu-37" transform="scale(0.996264)"/>
      <use xlink:href="#NimbusSanL-Regu-32" transform="translate(55.391677 0) scale(0.996264)"/>
      <use xlink:href="#NimbusSanL-Regu-33" transform="translate(110.783354 0) scale(0.996264)"/>
      <use xlink:href="#NimbusSanL-Regu-2e" transform="translate(166.175031 0) scale(0.996264)"/>
      <use xlink:href="#NimbusSanL-Regu-31" transform="translate(193.8702 0) scale(0.996264)"/>
      <use xlink:href="#NimbusSanL-Regu-35" transform="translate(249.261877 0) scale(0.996264)"/>
      <use xlink:href="#NimbusSanL-Regu-4b" transform="translate(332.348724 0) scale(0.996264)"/>
     </g>
    </g>
    <g id="line2d_40">
     <path d="M 270.668199 174.088215 
L 279.293199 174.088215 
L 287.918199 174.088215 
" style="fill: none; stroke: #ffa405; stroke-width: 1.1; stroke-linecap: square"/>
    </g>
    <g id="text_22">
     <!-- 773.15 K -->
     <g transform="translate(297.118199 178.113215) scale(0.115 -0.115)">
      <use xlink:href="#NimbusSanL-Regu-37" transform="scale(0.996264)"/>
      <use xlink:href="#NimbusSanL-Regu-37" transform="translate(55.391677 0) scale(0.996264)"/>
      <use xlink:href="#NimbusSanL-Regu-33" transform="translate(110.783354 0) scale(0.996264)"/>
      <use xlink:href="#NimbusSanL-Regu-2e" transform="translate(166.175031 0) scale(0.996264)"/>
      <use xlink:href="#NimbusSanL-Regu-31" transform="translate(193.8702 0) scale(0.996264)"/>
      <use xlink:href="#NimbusSanL-Regu-35" transform="translate(249.261877 0) scale(0.996264)"/>
      <use xlink:href="#NimbusSanL-Regu-4b" transform="translate(332.348724 0) scale(0.996264)"/>
     </g>
    </g>
   </g>
  </g>
 </g>
 <defs>
  <clipPath id="pc6e8e18f4a">
   <rect x="61.060559" y="12.42" width="199.25764" height="233.741281"/>
  </clipPath>
 </defs>
</svg>
