<?xml version="1.0" encoding="utf-8" standalone="no"?>
<!DOCTYPE svg PUBLIC "-//W3C//DTD SVG 1.1//EN"
  "http://www.w3.org/Graphics/SVG/1.1/DTD/svg11.dtd">
<svg xmlns:xlink="http://www.w3.org/1999/xlink" width="360pt" height="288pt" viewBox="0 0 360 288" xmlns="http://www.w3.org/2000/svg" version="1.1">
 <metadata>
  <rdf:RDF xmlns:dc="http://purl.org/dc/elements/1.1/" xmlns:cc="http://creativecommons.org/ns#" xmlns:rdf="http://www.w3.org/1999/02/22-rdf-syntax-ns#">
   <cc:Work>
    <dc:type rdf:resource="http://purl.org/dc/dcmitype/StillImage"/>
    <dc:date>2025-04-09T13:08:49.272315</dc:date>
    <dc:format>image/svg+xml</dc:format>
    <dc:creator>
     <cc:Agent>
      <dc:title>Matplotlib v3.7.0, https://matplotlib.org/</dc:title>
     </cc:Agent>
    </dc:creator>
   </cc:Work>
  </rdf:RDF>
 </metadata>
 <defs>
  <style type="text/css">*{stroke-linejoin: round; stroke-linecap: butt}</style>
 </defs>
 <g id="figure_1">
  <g id="patch_1">
   <path d="M 0 288 
L 360 288 
L 360 0 
L 0 0 
z
" style="fill: #ffffff"/>
  </g>
  <g id="axes_1">
   <g id="patch_2">
    <path d="M 61.060559 246.161281 
L 260.318199 246.161281 
L 260.318199 12.42 
L 61.060559 12.42 
z
" style="fill: #ffffff"/>
   </g>
   <g id="PathCollection_1">
    <defs>
     <path id="m4851e5fc04" d="M -2.5 2.5 
L 2.5 2.5 
L 2.5 -2.5 
L -2.5 -2.5 
z
" style="stroke: #000000"/>
    </defs>
    <g clip-path="url(#p619b57bc38)">
     <use xlink:href="#m4851e5fc04" x="77.236393" y="127.769343" style="stroke: #000000"/>
    </g>
   </g>
   <g id="PathCollection_2">
    <g clip-path="url(#p619b57bc38)">
     <use xlink:href="#m4851e5fc04" x="89.972271" y="126.53907" style="stroke: #000000"/>
    </g>
   </g>
   <g id="PathCollection_3">
    <g clip-path="url(#p619b57bc38)">
     <use xlink:href="#m4851e5fc04" x="104.208316" y="123.760756" style="stroke: #000000"/>
    </g>
   </g>
   <g id="PathCollection_4">
    <g clip-path="url(#p619b57bc38)">
     <use xlink:href="#m4851e5fc04" x="119.626982" y="119.016326" style="stroke: #000000"/>
    </g>
   </g>
   <g id="PathCollection_5">
    <g clip-path="url(#p619b57bc38)">
     <use xlink:href="#m4851e5fc04" x="136.31437" y="111.818304" style="stroke: #000000"/>
    </g>
   </g>
   <g id="PathCollection_6">
    <g clip-path="url(#p619b57bc38)">
     <use xlink:href="#m4851e5fc04" x="154.604508" y="101.544162" style="stroke: #000000"/>
    </g>
   </g>
   <g id="PathCollection_7">
    <g clip-path="url(#p619b57bc38)">
     <use xlink:href="#m4851e5fc04" x="174.402679" y="87.6306" style="stroke: #000000"/>
    </g>
   </g>
   <g id="PathCollection_8">
    <g clip-path="url(#p619b57bc38)">
     <use xlink:href="#m4851e5fc04" x="195.07092" y="69.831545" style="stroke: #000000"/>
    </g>
   </g>
   <g id="PathCollection_9">
    <g clip-path="url(#p619b57bc38)">
     <use xlink:href="#m4851e5fc04" x="215.932281" y="48.204824" style="stroke: #000000"/>
    </g>
   </g>
   <g id="PathCollection_10">
    <g clip-path="url(#p619b57bc38)">
     <use xlink:href="#m4851e5fc04" x="236.46944" y="23.044604" style="stroke: #000000"/>
    </g>
   </g>
   <g id="line2d_1">
    <path d="M 70.117724 127.949671 
L 71.947455 127.868884 
L 73.777185 127.811924 
L 75.606915 127.778791 
L 77.436646 127.769486 
L 79.266376 127.784007 
L 81.096107 127.822355 
L 82.925837 127.88453 
L 84.755567 127.970533 
L 86.585298 128.080362 
L 88.415028 128.214018 
L 90.244759 128.371502 
L 92.074489 128.552812 
L 93.904219 128.75795 
L 95.73395 128.986914 
L 97.56368 129.239706 
L 99.393411 129.516324 
L 101.223141 129.81677 
L 103.052871 130.141042 
L 104.882602 130.489142 
L 106.712332 130.861068 
L 108.542062 131.256822 
L 110.371793 131.676403 
L 112.201523 132.11981 
L 114.031254 132.587045 
L 115.860984 133.078107 
L 117.690714 133.592996 
L 119.520445 134.131712 
L 121.350175 134.694254 
L 123.179906 135.280624 
L 125.009636 135.890821 
L 126.839366 136.524845 
L 128.669097 137.182696 
L 130.498827 137.864374 
L 132.328558 138.569879 
L 134.158288 139.299211 
L 135.988018 140.05237 
L 137.817749 140.829356 
L 139.647479 141.630169 
L 141.47721 142.45481 
L 143.30694 143.303277 
L 145.13667 144.175571 
L 146.966401 145.071692 
L 148.796131 145.99164 
L 150.625862 146.935416 
L 152.455592 147.903018 
L 154.285322 148.894447 
L 156.115053 149.909704 
L 157.944783 150.948787 
L 159.774514 152.011698 
L 161.604244 153.098435 
L 163.433974 154.208999 
L 165.263705 155.343391 
L 167.093435 156.501609 
L 168.923166 157.683655 
L 170.752896 158.889528 
L 172.582626 160.119227 
L 174.412357 161.372754 
L 176.242087 162.650108 
L 178.071818 163.951288 
L 179.901548 165.276296 
L 181.731278 166.625131 
L 183.561009 167.997792 
L 185.390739 169.394281 
L 187.220469 170.814597 
L 189.0502 172.25874 
L 190.87993 173.72671 
L 192.709661 175.218507 
L 194.539391 176.734131 
L 196.369121 178.273582 
L 198.198852 179.83686 
L 200.028582 181.423965 
L 201.858313 183.034897 
L 203.688043 184.669656 
L 205.517773 186.328242 
L 207.347504 188.010655 
L 209.177234 189.716895 
L 211.006965 191.446962 
L 212.836695 193.200856 
L 214.666425 194.978578 
L 216.496156 196.780126 
L 218.325886 198.605501 
L 220.155617 200.454703 
L 221.985347 202.327733 
L 223.815077 204.224589 
L 225.644808 206.145273 
L 227.474538 208.089783 
L 229.304269 210.05812 
L 231.133999 212.050285 
L 232.963729 214.066276 
L 234.79346 216.106095 
L 236.62319 218.16974 
L 238.452921 220.257213 
L 240.282651 222.368513 
L 242.112381 224.503639 
L 243.942112 226.662593 
L 245.771842 228.845374 
L 247.601573 231.051981 
L 249.431303 233.282416 
L 251.261033 235.536678 
" clip-path="url(#p619b57bc38)" style="fill: none; stroke: #f0a3ff; stroke-width: 1.1; stroke-linecap: square"/>
   </g>
   <g id="line2d_2">
    <path d="M 70.117724 127.949671 
L 71.947455 127.701658 
L 73.777185 127.477605 
L 75.606915 127.277513 
L 77.436646 127.10138 
L 79.266376 126.949208 
L 81.096107 126.820996 
L 82.925837 126.716744 
L 84.755567 126.636451 
L 86.585298 126.580119 
L 88.415028 126.547747 
L 90.244759 126.539336 
L 92.074489 126.554884 
L 93.904219 126.594392 
L 95.73395 126.657861 
L 97.56368 126.745289 
L 99.393411 126.856678 
L 101.223141 126.992026 
L 103.052871 127.151335 
L 104.882602 127.334604 
L 106.712332 127.541833 
L 108.542062 127.773022 
L 110.371793 128.028171 
L 112.201523 128.30728 
L 114.031254 128.61035 
L 115.860984 128.937379 
L 117.690714 129.288369 
L 119.520445 129.663318 
L 121.350175 130.062228 
L 123.179906 130.485098 
L 125.009636 130.931927 
L 126.839366 131.402717 
L 128.669097 131.897467 
L 130.498827 132.416178 
L 132.328558 132.958848 
L 134.158288 133.525478 
L 135.988018 134.116068 
L 137.817749 134.730619 
L 139.647479 135.369129 
L 141.47721 136.0316 
L 143.30694 136.718031 
L 145.13667 137.428422 
L 146.966401 138.162773 
L 148.796131 138.921084 
L 150.625862 139.703355 
L 152.455592 140.509586 
L 154.285322 141.339777 
L 156.115053 142.193928 
L 157.944783 143.07204 
L 159.774514 143.974111 
L 161.604244 144.900143 
L 163.433974 145.850135 
L 165.263705 146.824087 
L 167.093435 147.821999 
L 168.923166 148.843871 
L 170.752896 149.889703 
L 172.582626 150.959495 
L 174.412357 152.053247 
L 176.242087 153.170959 
L 178.071818 154.312632 
L 179.901548 155.478264 
L 181.731278 156.667857 
L 183.561009 157.88141 
L 185.390739 159.118922 
L 187.220469 160.380395 
L 189.0502 161.665828 
L 190.87993 162.975221 
L 192.709661 164.308575 
L 194.539391 165.665888 
L 196.369121 167.047161 
L 198.198852 168.452394 
L 200.028582 169.881588 
L 201.858313 171.334742 
L 203.688043 172.811855 
L 205.517773 174.312929 
L 207.347504 175.837963 
L 209.177234 177.386957 
L 211.006965 178.959911 
L 212.836695 180.556825 
L 214.666425 182.177699 
L 216.496156 183.822534 
L 218.325886 185.491328 
L 220.155617 187.184082 
L 221.985347 188.900797 
L 223.815077 190.641472 
L 225.644808 192.406106 
L 227.474538 194.194701 
L 229.304269 196.007256 
L 231.133999 197.843771 
L 232.963729 199.704246 
L 234.79346 201.588682 
L 236.62319 203.497077 
L 238.452921 205.429432 
L 240.282651 207.385748 
L 242.112381 209.366023 
L 243.942112 211.370259 
L 245.771842 213.398455 
L 247.601573 215.45061 
L 249.431303 217.526726 
L 251.261033 219.626802 
" clip-path="url(#p619b57bc38)" style="fill: none; stroke: #0075dc; stroke-width: 1.1; stroke-linecap: square"/>
   </g>
   <g id="line2d_3">
    <path d="M 70.117724 127.949671 
L 71.947455 127.512078 
L 73.777185 127.09862 
L 75.606915 126.709296 
L 77.436646 126.344107 
L 79.266376 126.003052 
L 81.096107 125.686131 
L 82.925837 125.393345 
L 84.755567 125.124693 
L 86.585298 124.880176 
L 88.415028 124.659793 
L 90.244759 124.463544 
L 92.074489 124.29143 
L 93.904219 124.143451 
L 95.73395 124.019605 
L 97.56368 123.919894 
L 99.393411 123.844318 
L 101.223141 123.792876 
L 103.052871 123.765568 
L 104.882602 123.762395 
L 106.712332 123.783356 
L 108.542062 123.828451 
L 110.371793 123.897681 
L 112.201523 123.991046 
L 114.031254 124.108545 
L 115.860984 124.250178 
L 117.690714 124.415945 
L 119.520445 124.605847 
L 121.350175 124.819884 
L 123.179906 125.058054 
L 125.009636 125.32036 
L 126.839366 125.606799 
L 128.669097 125.917373 
L 130.498827 126.252082 
L 132.328558 126.610925 
L 134.158288 126.993902 
L 135.988018 127.401014 
L 137.817749 127.83226 
L 139.647479 128.28764 
L 141.47721 128.767155 
L 143.30694 129.270804 
L 145.13667 129.798588 
L 146.966401 130.350506 
L 148.796131 130.926559 
L 150.625862 131.526746 
L 152.455592 132.151067 
L 154.285322 132.799523 
L 156.115053 133.472113 
L 157.944783 134.168838 
L 159.774514 134.889697 
L 161.604244 135.63469 
L 163.433974 136.403818 
L 165.263705 137.19708 
L 167.093435 138.014477 
L 168.923166 138.856008 
L 170.752896 139.721673 
L 172.582626 140.611473 
L 174.412357 141.525407 
L 176.242087 142.463476 
L 178.071818 143.425679 
L 179.901548 144.412017 
L 181.731278 145.422489 
L 183.561009 146.457095 
L 185.390739 147.515836 
L 187.220469 148.598711 
L 189.0502 149.70572 
L 190.87993 150.836864 
L 192.709661 151.992143 
L 194.539391 153.171555 
L 196.369121 154.375103 
L 198.198852 155.602784 
L 200.028582 156.8546 
L 201.858313 158.13055 
L 203.688043 159.430635 
L 205.517773 160.754855 
L 207.347504 162.103208 
L 209.177234 163.475696 
L 211.006965 164.872319 
L 212.836695 166.293076 
L 214.666425 167.737967 
L 216.496156 169.206992 
L 218.325886 170.700153 
L 220.155617 172.217447 
L 221.985347 173.758876 
L 223.815077 175.324439 
L 225.644808 176.914137 
L 227.474538 178.527969 
L 229.304269 180.165936 
L 231.133999 181.828037 
L 232.963729 183.514272 
L 234.79346 185.224642 
L 236.62319 186.959146 
L 238.452921 188.717784 
L 240.282651 190.500557 
L 242.112381 192.307465 
L 243.942112 194.138507 
L 245.771842 195.993683 
L 247.601573 197.872993 
L 249.431303 199.776439 
L 251.261033 201.704018 
" clip-path="url(#p619b57bc38)" style="fill: none; stroke: #993f00; stroke-width: 1.1; stroke-linecap: square"/>
   </g>
   <g id="line2d_4">
    <path d="M 70.117724 127.949671 
L 71.947455 127.301567 
L 73.777185 126.677866 
L 75.606915 126.078569 
L 77.436646 125.503675 
L 79.266376 124.953183 
L 81.096107 124.427095 
L 82.925837 123.92541 
L 84.755567 123.448128 
L 86.585298 122.99525 
L 88.415028 122.566774 
L 90.244759 122.162701 
L 92.074489 121.783032 
L 93.904219 121.427766 
L 95.73395 121.096903 
L 97.56368 120.790443 
L 99.393411 120.508386 
L 101.223141 120.250732 
L 103.052871 120.017482 
L 104.882602 119.808634 
L 106.712332 119.62419 
L 108.542062 119.464149 
L 110.371793 119.328511 
L 112.201523 119.217276 
L 114.031254 119.130444 
L 115.860984 119.068015 
L 117.690714 119.029989 
L 119.520445 119.016367 
L 121.350175 119.027148 
L 123.179906 119.062332 
L 125.009636 119.121918 
L 126.839366 119.205909 
L 128.669097 119.314302 
L 130.498827 119.447098 
L 132.328558 119.604298 
L 134.158288 119.7859 
L 135.988018 119.991906 
L 137.817749 120.222315 
L 139.647479 120.477127 
L 141.47721 120.756342 
L 143.30694 121.05996 
L 145.13667 121.387981 
L 146.966401 121.740406 
L 148.796131 122.117233 
L 150.625862 122.518464 
L 152.455592 122.944098 
L 154.285322 123.394135 
L 156.115053 123.868575 
L 157.944783 124.367418 
L 159.774514 124.890665 
L 161.604244 125.438314 
L 163.433974 126.010367 
L 165.263705 126.606822 
L 167.093435 127.227681 
L 168.923166 127.872943 
L 170.752896 128.542608 
L 172.582626 129.236677 
L 174.412357 129.955148 
L 176.242087 130.698023 
L 178.071818 131.4653 
L 179.901548 132.256981 
L 181.731278 133.073065 
L 183.561009 133.913552 
L 185.390739 134.778442 
L 187.220469 135.667735 
L 189.0502 136.581432 
L 190.87993 137.519531 
L 192.709661 138.482034 
L 194.539391 139.46894 
L 196.369121 140.480249 
L 198.198852 141.515961 
L 200.028582 142.576076 
L 201.858313 143.660594 
L 203.688043 144.769516 
L 205.517773 145.90284 
L 207.347504 147.060568 
L 209.177234 148.242699 
L 211.006965 149.449233 
L 212.836695 150.68017 
L 214.666425 151.93551 
L 216.496156 153.215253 
L 218.325886 154.5194 
L 220.155617 155.847949 
L 221.985347 157.200902 
L 223.815077 158.578258 
L 225.644808 159.980017 
L 227.474538 161.406179 
L 229.304269 162.856744 
L 231.133999 164.331712 
L 232.963729 165.831084 
L 234.79346 167.354859 
L 236.62319 168.903036 
L 238.452921 170.475617 
L 240.282651 172.072601 
L 242.112381 173.693988 
L 243.942112 175.339778 
L 245.771842 177.009972 
L 247.601573 178.704568 
L 249.431303 180.423568 
L 251.261033 182.166971 
" clip-path="url(#p619b57bc38)" style="fill: none; stroke: #4c005c; stroke-width: 1.1; stroke-linecap: square"/>
   </g>
   <g id="line2d_5">
    <path d="M 70.117724 127.949671 
L 71.947455 127.070227 
L 73.777185 126.215432 
L 75.606915 125.385286 
L 77.436646 124.579789 
L 79.266376 123.798942 
L 81.096107 123.042744 
L 82.925837 122.311195 
L 84.755567 121.604296 
L 86.585298 120.922045 
L 88.415028 120.264444 
L 90.244759 119.631492 
L 92.074489 119.02319 
L 93.904219 118.439536 
L 95.73395 117.880532 
L 97.56368 117.346177 
L 99.393411 116.836472 
L 101.223141 116.351415 
L 103.052871 115.891008 
L 104.882602 115.45525 
L 106.712332 115.044141 
L 108.542062 114.657681 
L 110.371793 114.295871 
L 112.201523 113.95871 
L 114.031254 113.646198 
L 115.860984 113.358336 
L 117.690714 113.095122 
L 119.520445 112.856558 
L 121.350175 112.642643 
L 123.179906 112.453377 
L 125.009636 112.288761 
L 126.839366 112.148794 
L 128.669097 112.033476 
L 130.498827 111.942807 
L 132.328558 111.876787 
L 134.158288 111.835417 
L 135.988018 111.818696 
L 137.817749 111.826624 
L 139.647479 111.859202 
L 141.47721 111.916428 
L 143.30694 111.998304 
L 145.13667 112.104829 
L 146.966401 112.236004 
L 148.796131 112.391827 
L 150.625862 112.5723 
L 152.455592 112.777422 
L 154.285322 113.007193 
L 156.115053 113.261614 
L 157.944783 113.540683 
L 159.774514 113.844402 
L 161.604244 114.17277 
L 163.433974 114.525788 
L 165.263705 114.903455 
L 167.093435 115.30577 
L 168.923166 115.732736 
L 170.752896 116.18435 
L 172.582626 116.660613 
L 174.412357 117.161526 
L 176.242087 117.687088 
L 178.071818 118.2373 
L 179.901548 118.81216 
L 181.731278 119.41167 
L 183.561009 120.035829 
L 185.390739 120.684637 
L 187.220469 121.358094 
L 189.0502 122.056201 
L 190.87993 122.778957 
L 192.709661 123.526362 
L 194.539391 124.298416 
L 196.369121 125.09512 
L 198.198852 125.916473 
L 200.028582 126.762475 
L 201.858313 127.633126 
L 203.688043 128.528427 
L 205.517773 129.448377 
L 207.347504 130.392976 
L 209.177234 131.362224 
L 211.006965 132.356121 
L 212.836695 133.374668 
L 214.666425 134.417864 
L 216.496156 135.485709 
L 218.325886 136.578203 
L 220.155617 137.695347 
L 221.985347 138.83714 
L 223.815077 140.003582 
L 225.644808 141.194673 
L 227.474538 142.410414 
L 229.304269 143.650803 
L 231.133999 144.915843 
L 232.963729 146.205531 
L 234.79346 147.519868 
L 236.62319 148.858855 
L 238.452921 150.222491 
L 240.282651 151.610776 
L 242.112381 153.02371 
L 243.942112 154.461294 
L 245.771842 155.923527 
L 247.601573 157.410409 
L 249.431303 158.92194 
L 251.261033 160.458121 
" clip-path="url(#p619b57bc38)" style="fill: none; stroke: #426600; stroke-width: 1.1; stroke-linecap: square"/>
   </g>
   <g id="line2d_6">
    <path d="M 70.117724 127.949671 
L 71.947455 126.818327 
L 73.777185 125.711754 
L 75.606915 124.62995 
L 77.436646 123.572916 
L 79.266376 122.540651 
L 81.096107 121.533156 
L 82.925837 120.550431 
L 84.755567 119.592476 
L 86.585298 118.65929 
L 88.415028 117.750874 
L 90.244759 116.867228 
L 92.074489 116.008352 
L 93.904219 115.174245 
L 95.73395 114.364908 
L 97.56368 113.580341 
L 99.393411 112.820543 
L 101.223141 112.085516 
L 103.052871 111.375257 
L 104.882602 110.689769 
L 106.712332 110.02905 
L 108.542062 109.393102 
L 110.371793 108.781922 
L 112.201523 108.195513 
L 114.031254 107.633873 
L 115.860984 107.097003 
L 117.690714 106.584903 
L 119.520445 106.097572 
L 121.350175 105.635011 
L 123.179906 105.19722 
L 125.009636 104.784199 
L 126.839366 104.395947 
L 128.669097 104.032465 
L 130.498827 103.693753 
L 132.328558 103.379811 
L 134.158288 103.090638 
L 135.988018 102.826235 
L 137.817749 102.586602 
L 139.647479 102.371738 
L 141.47721 102.181644 
L 143.30694 102.01632 
L 145.13667 101.875766 
L 146.966401 101.759981 
L 148.796131 101.668966 
L 150.625862 101.602721 
L 152.455592 101.561245 
L 154.285322 101.544539 
L 156.115053 101.552603 
L 157.944783 101.585437 
L 159.774514 101.64304 
L 161.604244 101.725413 
L 163.433974 101.832556 
L 165.263705 101.964469 
L 167.093435 102.121151 
L 168.923166 102.302603 
L 170.752896 102.508825 
L 172.582626 102.739816 
L 174.412357 102.995578 
L 176.242087 103.276108 
L 178.071818 103.581409 
L 179.901548 103.911479 
L 181.731278 104.26632 
L 183.561009 104.645929 
L 185.390739 105.050309 
L 187.220469 105.479458 
L 189.0502 105.933377 
L 190.87993 106.412066 
L 192.709661 106.915524 
L 194.539391 107.443752 
L 196.369121 107.99675 
L 198.198852 108.574518 
L 200.028582 109.177055 
L 201.858313 109.804362 
L 203.688043 110.456439 
L 205.517773 111.133286 
L 207.347504 111.834902 
L 209.177234 112.561288 
L 211.006965 113.312443 
L 212.836695 114.088369 
L 214.666425 114.889064 
L 216.496156 115.714529 
L 218.325886 116.564763 
L 220.155617 117.439768 
L 221.985347 118.339542 
L 223.815077 119.264086 
L 225.644808 120.213399 
L 227.474538 121.187482 
L 229.304269 122.186335 
L 231.133999 123.209958 
L 232.963729 124.25835 
L 234.79346 125.331512 
L 236.62319 126.429444 
L 238.452921 127.552146 
L 240.282651 128.699617 
L 242.112381 129.871858 
L 243.942112 131.068869 
L 245.771842 132.290649 
L 247.601573 133.537199 
L 249.431303 134.808519 
L 251.261033 136.104609 
" clip-path="url(#p619b57bc38)" style="fill: none; stroke: #ff0010; stroke-width: 1.1; stroke-linecap: square"/>
   </g>
   <g id="line2d_7">
    <path d="M 70.117724 127.949671 
L 71.947455 126.547247 
L 73.777185 125.169648 
L 75.606915 123.816872 
L 77.436646 122.488921 
L 79.266376 121.185793 
L 81.096107 119.907489 
L 82.925837 118.65401 
L 84.755567 117.425354 
L 86.585298 116.221522 
L 88.415028 115.042515 
L 90.244759 113.888331 
L 92.074489 112.758971 
L 93.904219 111.654435 
L 95.73395 110.574724 
L 97.56368 109.519836 
L 99.393411 108.489772 
L 101.223141 107.484532 
L 103.052871 106.504116 
L 104.882602 105.548524 
L 106.712332 104.617756 
L 108.542062 103.711812 
L 110.371793 102.830692 
L 112.201523 101.974396 
L 114.031254 101.142924 
L 115.860984 100.336276 
L 117.690714 99.554452 
L 119.520445 98.797452 
L 121.350175 98.065276 
L 123.179906 97.357924 
L 125.009636 96.675396 
L 126.839366 96.017692 
L 128.669097 95.384812 
L 130.498827 94.776755 
L 132.328558 94.193523 
L 134.158288 93.635115 
L 135.988018 93.101531 
L 137.817749 92.59277 
L 139.647479 92.108834 
L 141.47721 91.649722 
L 143.30694 91.215433 
L 145.13667 90.805969 
L 146.966401 90.421329 
L 148.796131 90.061512 
L 150.625862 89.72652 
L 152.455592 89.416351 
L 154.285322 89.131007 
L 156.115053 88.870486 
L 157.944783 88.63479 
L 159.774514 88.423917 
L 161.604244 88.237869 
L 163.433974 88.076644 
L 165.263705 87.940244 
L 167.093435 87.828667 
L 168.923166 87.741914 
L 170.752896 87.679986 
L 172.582626 87.642881 
L 174.412357 87.6306 
L 176.242087 87.643144 
L 178.071818 87.680511 
L 179.901548 87.742702 
L 181.731278 87.829717 
L 183.561009 87.941557 
L 185.390739 88.07822 
L 187.220469 88.239707 
L 189.0502 88.426018 
L 190.87993 88.637153 
L 192.709661 88.873112 
L 194.539391 89.133895 
L 196.369121 89.419503 
L 198.198852 89.729934 
L 200.028582 90.065189 
L 201.858313 90.425268 
L 203.688043 90.810171 
L 205.517773 91.219898 
L 207.347504 91.654448 
L 209.177234 92.113823 
L 211.006965 92.598022 
L 212.836695 93.107045 
L 214.666425 93.640892 
L 216.496156 94.199563 
L 218.325886 94.783058 
L 220.155617 95.391376 
L 221.985347 96.024519 
L 223.815077 96.682486 
L 225.644808 97.365277 
L 227.474538 98.072891 
L 229.304269 98.80533 
L 231.133999 99.562593 
L 232.963729 100.344679 
L 234.79346 101.15159 
L 236.62319 101.983325 
L 238.452921 102.839883 
L 240.282651 103.721266 
L 242.112381 104.627472 
L 243.942112 105.558503 
L 245.771842 106.514357 
L 247.601573 107.495036 
L 249.431303 108.500538 
L 251.261033 109.530865 
" clip-path="url(#p619b57bc38)" style="fill: none; stroke: #9dcc00; stroke-width: 1.1; stroke-linecap: square"/>
   </g>
   <g id="line2d_8">
    <path d="M 70.117724 127.949671 
L 71.947455 126.260048 
L 73.777185 124.595349 
L 75.606915 122.955574 
L 77.436646 121.340723 
L 79.266376 119.750797 
L 81.096107 118.185794 
L 82.925837 116.645716 
L 84.755567 115.130562 
L 86.585298 113.640333 
L 88.415028 112.175027 
L 90.244759 110.734646 
L 92.074489 109.319189 
L 93.904219 107.928656 
L 95.73395 106.563047 
L 97.56368 105.222362 
L 99.393411 103.906602 
L 101.223141 102.615766 
L 103.052871 101.349854 
L 104.882602 100.108866 
L 106.712332 98.892802 
L 108.542062 97.701663 
L 110.371793 96.535448 
L 112.201523 95.394157 
L 114.031254 94.27779 
L 115.860984 93.186347 
L 117.690714 92.119829 
L 119.520445 91.078234 
L 121.350175 90.061564 
L 123.179906 89.069818 
L 125.009636 88.102997 
L 126.839366 87.161099 
L 128.669097 86.244126 
L 130.498827 85.352077 
L 132.328558 84.484952 
L 134.158288 83.642751 
L 135.988018 82.825474 
L 137.817749 82.033122 
L 139.647479 81.265694 
L 141.47721 80.52319 
L 143.30694 79.80561 
L 145.13667 79.112955 
L 146.966401 78.445223 
L 148.796131 77.802416 
L 150.625862 77.184533 
L 152.455592 76.591574 
L 154.285322 76.023539 
L 156.115053 75.480429 
L 157.944783 74.962243 
L 159.774514 74.46898 
L 161.604244 74.000643 
L 163.433974 73.557229 
L 165.263705 73.138739 
L 167.093435 72.745174 
L 168.923166 72.376533 
L 170.752896 72.032816 
L 172.582626 71.714023 
L 174.412357 71.420155 
L 176.242087 71.15121 
L 178.071818 70.90719 
L 179.901548 70.688094 
L 181.731278 70.493922 
L 183.561009 70.324675 
L 185.390739 70.180351 
L 187.220469 70.060952 
L 189.0502 69.966477 
L 190.87993 69.896926 
L 192.709661 69.8523 
L 194.539391 69.832597 
L 196.369121 69.837819 
L 198.198852 69.867965 
L 200.028582 69.923035 
L 201.858313 70.003029 
L 203.688043 70.107948 
L 205.517773 70.23779 
L 207.347504 70.392557 
L 209.177234 70.572248 
L 211.006965 70.776864 
L 212.836695 71.006403 
L 214.666425 71.260867 
L 216.496156 71.540254 
L 218.325886 71.844566 
L 220.155617 72.173803 
L 221.985347 72.527963 
L 223.815077 72.907048 
L 225.644808 73.311056 
L 227.474538 73.739989 
L 229.304269 74.193847 
L 231.133999 74.672628 
L 232.963729 75.176333 
L 234.79346 75.704963 
L 236.62319 76.258517 
L 238.452921 76.836995 
L 240.282651 77.440398 
L 242.112381 78.068724 
L 243.942112 78.721975 
L 245.771842 79.40015 
L 247.601573 80.103249 
L 249.431303 80.831272 
L 251.261033 81.584219 
" clip-path="url(#p619b57bc38)" style="fill: none; stroke: #c20088; stroke-width: 1.1; stroke-linecap: square"/>
   </g>
   <g id="line2d_9">
    <path d="M 70.117724 127.949671 
L 71.947455 125.960897 
L 73.777185 123.997236 
L 75.606915 122.058689 
L 77.436646 120.145255 
L 79.266376 118.256935 
L 81.096107 116.393728 
L 82.925837 114.555634 
L 84.755567 112.742654 
L 86.585298 110.954787 
L 88.415028 109.192033 
L 90.244759 107.454393 
L 92.074489 105.741866 
L 93.904219 104.054453 
L 95.73395 102.392153 
L 97.56368 100.754966 
L 99.393411 99.142893 
L 101.223141 97.555933 
L 103.052871 95.994086 
L 104.882602 94.457353 
L 106.712332 92.945733 
L 108.542062 91.459227 
L 110.371793 89.997834 
L 112.201523 88.561554 
L 114.031254 87.150387 
L 115.860984 85.764334 
L 117.690714 84.403395 
L 119.520445 83.067569 
L 121.350175 81.756856 
L 123.179906 80.471256 
L 125.009636 79.21077 
L 126.839366 77.975398 
L 128.669097 76.765138 
L 130.498827 75.579992 
L 132.328558 74.41996 
L 134.158288 73.28504 
L 135.988018 72.175234 
L 137.817749 71.090542 
L 139.647479 70.030963 
L 141.47721 68.996497 
L 143.30694 67.987145 
L 145.13667 67.002906 
L 146.966401 66.04378 
L 148.796131 65.109768 
L 150.625862 64.200869 
L 152.455592 63.317084 
L 154.285322 62.458411 
L 156.115053 61.624853 
L 157.944783 60.816407 
L 159.774514 60.033075 
L 161.604244 59.274857 
L 163.433974 58.541751 
L 165.263705 57.83376 
L 167.093435 57.150881 
L 168.923166 56.493116 
L 170.752896 55.860464 
L 172.582626 55.252926 
L 174.412357 54.670501 
L 176.242087 54.113189 
L 178.071818 53.580991 
L 179.901548 53.073906 
L 181.731278 52.591935 
L 183.561009 52.135076 
L 185.390739 51.703332 
L 187.220469 51.2967 
L 189.0502 50.915182 
L 190.87993 50.558778 
L 192.709661 50.227486 
L 194.539391 49.921308 
L 196.369121 49.640244 
L 198.198852 49.384293 
L 200.028582 49.153455 
L 201.858313 48.947731 
L 203.688043 48.76712 
L 205.517773 48.611622 
L 207.347504 48.481238 
L 209.177234 48.375967 
L 211.006965 48.295809 
L 212.836695 48.240765 
L 214.666425 48.210834 
L 216.496156 48.206017 
L 218.325886 48.226313 
L 220.155617 48.271722 
L 221.985347 48.342245 
L 223.815077 48.437881 
L 225.644808 48.558631 
L 227.474538 48.704493 
L 229.304269 48.87547 
L 231.133999 49.071559 
L 232.963729 49.292762 
L 234.79346 49.539078 
L 236.62319 49.810508 
L 238.452921 50.107051 
L 240.282651 50.428708 
L 242.112381 50.775478 
L 243.942112 51.147361 
L 245.771842 51.544357 
L 247.601573 51.966467 
L 249.431303 52.413691 
L 251.261033 52.886027 
" clip-path="url(#p619b57bc38)" style="fill: none; stroke: #003380; stroke-width: 1.1; stroke-linecap: square"/>
   </g>
   <g id="line2d_10">
    <path d="M 70.117724 127.949671 
L 71.947455 125.654626 
L 73.777185 123.384964 
L 75.606915 121.140685 
L 77.436646 118.921789 
L 79.266376 116.728277 
L 81.096107 114.560147 
L 82.925837 112.417401 
L 84.755567 110.300038 
L 86.585298 108.208058 
L 88.415028 106.141462 
L 90.244759 104.100248 
L 92.074489 102.084418 
L 93.904219 100.093971 
L 95.73395 98.128907 
L 97.56368 96.189227 
L 99.393411 94.274929 
L 101.223141 92.386015 
L 103.052871 90.522484 
L 104.882602 88.684336 
L 106.712332 86.871571 
L 108.542062 85.08419 
L 110.371793 83.322191 
L 112.201523 81.585576 
L 114.031254 79.874344 
L 115.860984 78.188495 
L 117.690714 76.52803 
L 119.520445 74.892947 
L 121.350175 73.283248 
L 123.179906 71.698932 
L 125.009636 70.139999 
L 126.839366 68.606449 
L 128.669097 67.098283 
L 130.498827 65.615499 
L 132.328558 64.158099 
L 134.158288 62.726082 
L 135.988018 61.319448 
L 137.817749 59.938198 
L 139.647479 58.58233 
L 141.47721 57.251846 
L 143.30694 55.946745 
L 145.13667 54.667027 
L 146.966401 53.412693 
L 148.796131 52.183741 
L 150.625862 50.980173 
L 152.455592 49.801988 
L 154.285322 48.649186 
L 156.115053 47.521767 
L 157.944783 46.419731 
L 159.774514 45.343079 
L 161.604244 44.29181 
L 163.433974 43.265924 
L 165.263705 42.265421 
L 167.093435 41.290301 
L 168.923166 40.340565 
L 170.752896 39.416211 
L 172.582626 38.517241 
L 174.412357 37.643654 
L 176.242087 36.795451 
L 178.071818 35.97263 
L 179.901548 35.175193 
L 181.731278 34.403138 
L 183.561009 33.656467 
L 185.390739 32.93518 
L 187.220469 32.239275 
L 189.0502 31.568754 
L 190.87993 30.923615 
L 192.709661 30.30386 
L 194.539391 29.709488 
L 196.369121 29.1405 
L 198.198852 28.596894 
L 200.028582 28.078672 
L 201.858313 27.585833 
L 203.688043 27.118377 
L 205.517773 26.676304 
L 207.347504 26.259614 
L 209.177234 25.868308 
L 211.006965 25.502384 
L 212.836695 25.161844 
L 214.666425 24.846688 
L 216.496156 24.556914 
L 218.325886 24.292523 
L 220.155617 24.053516 
L 221.985347 23.839892 
L 223.815077 23.651651 
L 225.644808 23.488793 
L 227.474538 23.351319 
L 229.304269 23.239227 
L 231.133999 23.152519 
L 232.963729 23.091194 
L 234.79346 23.055252 
L 236.62319 23.044693 
L 238.452921 23.059518 
L 240.282651 23.099726 
L 242.112381 23.165316 
L 243.942112 23.25629 
L 245.771842 23.372648 
L 247.601573 23.514388 
L 249.431303 23.681512 
L 251.261033 23.874019 
" clip-path="url(#p619b57bc38)" style="fill: none; stroke: #ffa405; stroke-width: 1.1; stroke-linecap: square"/>
   </g>
   <g id="patch_3">
    <path d="M 61.060559 246.161281 
L 61.060559 12.42 
" style="fill: none; stroke: #000000; stroke-width: 0.8; stroke-linejoin: miter; stroke-linecap: square"/>
   </g>
   <g id="patch_4">
    <path d="M 260.318199 246.161281 
L 260.318199 12.42 
" style="fill: none; stroke: #000000; stroke-width: 0.8; stroke-linejoin: miter; stroke-linecap: square"/>
   </g>
   <g id="patch_5">
    <path d="M 61.060559 246.161281 
L 260.318199 246.161281 
" style="fill: none; stroke: #000000; stroke-width: 0.8; stroke-linejoin: miter; stroke-linecap: square"/>
   </g>
   <g id="patch_6">
    <path d="M 61.060559 12.42 
L 260.318199 12.42 
" style="fill: none; stroke: #000000; stroke-width: 0.8; stroke-linejoin: miter; stroke-linecap: square"/>
   </g>
   <g id="matplotlib.axis_1">
    <g id="xtick_1">
     <g id="line2d_11">
      <path d="M 70.117724 246.161281 
L 70.117724 12.42 
" clip-path="url(#p619b57bc38)" style="fill: none; stroke-dasharray: 1.85,0.8; stroke-dashoffset: 0; stroke: #000000; stroke-width: 0.5"/>
     </g>
     <g id="line2d_12">
      <defs>
       <path id="m26c08d0e99" d="M 0 0 
L 0 -3.5 
" style="stroke: #000000; stroke-width: 0.8"/>
      </defs>
      <g>
       <use xlink:href="#m26c08d0e99" x="70.117724" y="246.161281" style="stroke: #000000; stroke-width: 0.8"/>
      </g>
     </g>
     <g id="text_1">
      <!-- $\mathdefault{0.0}$ -->
      <g transform="translate(62.797937 258.32435) scale(0.115 -0.115)">
       <defs>
        <path id="CMR17-30" d="M 2688 2038 
C 2688 2430 2682 3099 2413 3613 
C 2176 4063 1798 4224 1466 4224 
C 1158 4224 768 4082 525 3620 
C 269 3137 243 2539 243 2038 
C 243 1671 250 1112 448 623 
C 723 -39 1216 -128 1466 -128 
C 1760 -128 2208 -7 2470 604 
C 2662 1048 2688 1568 2688 2038 
z
M 1466 -26 
C 1056 -26 813 328 723 816 
C 653 1196 653 1749 653 2109 
C 653 2604 653 3015 736 3407 
C 858 3954 1216 4121 1466 4121 
C 1728 4121 2067 3947 2189 3420 
C 2272 3054 2278 2623 2278 2109 
C 2278 1691 2278 1176 2202 797 
C 2067 96 1690 -26 1466 -26 
z
" transform="scale(0.015625)"/>
        <path id="CMMI12-3a" d="M 1178 307 
C 1178 492 1024 620 870 620 
C 685 620 557 467 557 313 
C 557 128 710 0 864 0 
C 1050 0 1178 153 1178 307 
z
" transform="scale(0.015625)"/>
       </defs>
       <use xlink:href="#CMR17-30" transform="scale(0.996264)"/>
       <use xlink:href="#CMMI12-3a" transform="translate(45.690477 0) scale(0.996264)"/>
       <use xlink:href="#CMR17-30" transform="translate(72.787654 0) scale(0.996264)"/>
      </g>
     </g>
    </g>
    <g id="xtick_2">
     <g id="line2d_13">
      <path d="M 129.284098 246.161281 
L 129.284098 12.42 
" clip-path="url(#p619b57bc38)" style="fill: none; stroke-dasharray: 1.85,0.8; stroke-dashoffset: 0; stroke: #000000; stroke-width: 0.5"/>
     </g>
     <g id="line2d_14">
      <g>
       <use xlink:href="#m26c08d0e99" x="129.284098" y="246.161281" style="stroke: #000000; stroke-width: 0.8"/>
      </g>
     </g>
     <g id="text_2">
      <!-- $\mathdefault{0.2}$ -->
      <g transform="translate(121.96431 258.32435) scale(0.115 -0.115)">
       <defs>
        <path id="CMR17-32" d="M 2669 990 
L 2554 990 
C 2490 537 2438 460 2413 422 
C 2381 371 1920 371 1830 371 
L 602 371 
C 832 620 1280 1073 1824 1596 
C 2214 1966 2669 2400 2669 3033 
C 2669 3788 2067 4224 1395 4224 
C 691 4224 262 3603 262 3027 
C 262 2777 448 2745 525 2745 
C 589 2745 781 2783 781 3007 
C 781 3206 614 3264 525 3264 
C 486 3264 448 3257 422 3244 
C 544 3788 915 4057 1306 4057 
C 1862 4057 2227 3616 2227 3033 
C 2227 2477 1901 1998 1536 1583 
L 262 147 
L 262 0 
L 2515 0 
L 2669 990 
z
" transform="scale(0.015625)"/>
       </defs>
       <use xlink:href="#CMR17-30" transform="scale(0.996264)"/>
       <use xlink:href="#CMMI12-3a" transform="translate(45.690477 0) scale(0.996264)"/>
       <use xlink:href="#CMR17-32" transform="translate(72.787654 0) scale(0.996264)"/>
      </g>
     </g>
    </g>
    <g id="xtick_3">
     <g id="line2d_15">
      <path d="M 188.450471 246.161281 
L 188.450471 12.42 
" clip-path="url(#p619b57bc38)" style="fill: none; stroke-dasharray: 1.85,0.8; stroke-dashoffset: 0; stroke: #000000; stroke-width: 0.5"/>
     </g>
     <g id="line2d_16">
      <g>
       <use xlink:href="#m26c08d0e99" x="188.450471" y="246.161281" style="stroke: #000000; stroke-width: 0.8"/>
      </g>
     </g>
     <g id="text_3">
      <!-- $\mathdefault{0.4}$ -->
      <g transform="translate(181.130684 258.32435) scale(0.115 -0.115)">
       <defs>
        <path id="CMR17-34" d="M 2150 4147 
C 2150 4281 2144 4288 2029 4288 
L 128 1254 
L 128 1088 
L 1779 1088 
L 1779 460 
C 1779 230 1766 166 1318 166 
L 1197 166 
L 1197 0 
C 1402 12 1747 12 1965 12 
C 2182 12 2528 12 2733 0 
L 2733 166 
L 2611 166 
C 2163 166 2150 230 2150 460 
L 2150 1088 
L 2803 1088 
L 2803 1254 
L 2150 1254 
L 2150 4147 
z
M 1798 3723 
L 1798 1254 
L 256 1254 
L 1798 3723 
z
" transform="scale(0.015625)"/>
       </defs>
       <use xlink:href="#CMR17-30" transform="scale(0.996264)"/>
       <use xlink:href="#CMMI12-3a" transform="translate(45.690477 0) scale(0.996264)"/>
       <use xlink:href="#CMR17-34" transform="translate(72.787654 0) scale(0.996264)"/>
      </g>
     </g>
    </g>
    <g id="xtick_4">
     <g id="line2d_17">
      <path d="M 247.616845 246.161281 
L 247.616845 12.42 
" clip-path="url(#p619b57bc38)" style="fill: none; stroke-dasharray: 1.85,0.8; stroke-dashoffset: 0; stroke: #000000; stroke-width: 0.5"/>
     </g>
     <g id="line2d_18">
      <g>
       <use xlink:href="#m26c08d0e99" x="247.616845" y="246.161281" style="stroke: #000000; stroke-width: 0.8"/>
      </g>
     </g>
     <g id="text_4">
      <!-- $\mathdefault{0.6}$ -->
      <g transform="translate(240.297057 258.32435) scale(0.115 -0.115)">
       <defs>
        <path id="CMR17-36" d="M 678 2198 
C 678 3712 1395 4076 1811 4076 
C 1946 4076 2272 4049 2400 3782 
C 2298 3782 2106 3782 2106 3558 
C 2106 3385 2246 3328 2336 3328 
C 2394 3328 2566 3353 2566 3571 
C 2566 3987 2246 4224 1805 4224 
C 1043 4224 243 3411 243 2011 
C 243 257 966 -128 1478 -128 
C 2099 -128 2688 431 2688 1295 
C 2688 2101 2170 2688 1517 2688 
C 1126 2688 838 2430 678 1979 
L 678 2198 
z
M 1478 25 
C 691 25 691 1212 691 1450 
C 691 1914 909 2585 1504 2585 
C 1613 2585 1926 2585 2138 2140 
C 2253 1889 2253 1624 2253 1302 
C 2253 954 2253 696 2118 438 
C 1978 173 1773 25 1478 25 
z
" transform="scale(0.015625)"/>
       </defs>
       <use xlink:href="#CMR17-30" transform="scale(0.996264)"/>
       <use xlink:href="#CMMI12-3a" transform="translate(45.690477 0) scale(0.996264)"/>
       <use xlink:href="#CMR17-36" transform="translate(72.787654 0) scale(0.996264)"/>
      </g>
     </g>
    </g>
    <g id="text_5">
     <!-- Current (A) -->
     <g transform="translate(132.362248 273.139719) scale(0.115 -0.115)">
      <defs>
       <path id="NimbusSanL-Regu-43" d="M 4237 3219 
C 4051 4236 3462 4736 2438 4736 
C 1811 4736 1306 4537 960 4154 
C 538 3696 307 3035 307 2284 
C 307 1522 544 867 986 415 
C 1344 44 1805 -128 2413 -128 
C 3552 -128 4192 485 4333 1712 
L 3718 1712 
C 3667 1394 3603 1178 3507 994 
C 3315 612 2918 396 2419 396 
C 1491 396 902 1134 902 2291 
C 902 3480 1466 4211 2368 4211 
C 2746 4211 3098 4096 3290 3918 
C 3462 3759 3558 3562 3629 3219 
L 4237 3219 
z
" transform="scale(0.015625)"/>
       <path id="NimbusSanL-Regu-75" d="M 3085 19 
L 3085 3328 
L 2554 3328 
L 2554 1454 
C 2554 780 2195 339 1638 339 
C 1216 339 947 591 947 988 
L 947 3328 
L 416 3328 
L 416 780 
C 416 230 832 -128 1485 -128 
C 1978 -128 2291 44 2605 484 
L 2605 19 
L 3085 19 
z
" transform="scale(0.015625)"/>
       <path id="NimbusSanL-Regu-72" d="M 442 3328 
L 442 0 
L 979 0 
L 979 1727 
C 979 2203 1101 2514 1357 2698 
C 1523 2819 1683 2857 2054 2863 
L 2054 3404 
C 1965 3449 1920 3456 1850 3456 
C 1504 3456 1242 3251 934 2750 
L 934 3328 
L 442 3328 
z
" transform="scale(0.015625)"/>
       <path id="NimbusSanL-Regu-65" d="M 3283 1484 
C 3283 1998 3245 2311 3149 2565 
C 2931 3123 2419 3456 1792 3456 
C 858 3456 256 2734 256 1619 
C 256 545 838 -128 1779 -128 
C 2547 -128 3078 307 3213 1018 
L 2675 1018 
C 2528 588 2227 364 1798 364 
C 1459 364 1171 514 992 787 
C 864 974 819 1161 813 1484 
L 3283 1484 
z
M 826 1920 
C 870 2552 1248 2963 1786 2963 
C 2310 2963 2714 2519 2714 1959 
C 2714 1946 2714 1933 2707 1920 
L 826 1920 
z
" transform="scale(0.015625)"/>
       <path id="NimbusSanL-Regu-6e" d="M 448 3328 
L 448 0 
L 986 0 
L 986 1835 
C 986 2539 1344 2988 1894 2988 
C 2317 2988 2586 2732 2586 2328 
L 2586 0 
L 3117 0 
L 3117 2539 
C 3117 3097 2701 3456 2054 3456 
C 1555 3456 1235 3263 941 2796 
L 941 3328 
L 448 3328 
z
" transform="scale(0.015625)"/>
       <path id="NimbusSanL-Regu-74" d="M 1626 3328 
L 1075 3328 
L 1075 4249 
L 544 4249 
L 544 3328 
L 90 3328 
L 90 2892 
L 544 2892 
L 544 402 
C 544 64 774 -128 1190 -128 
C 1318 -128 1446 -116 1626 -84 
L 1626 364 
C 1555 345 1472 339 1370 339 
C 1139 339 1075 402 1075 634 
L 1075 2892 
L 1626 2892 
L 1626 3328 
z
" transform="scale(0.015625)"/>
       <path id="NimbusSanL-Regu-28" d="M 1510 4672 
C 870 3833 467 2668 467 1663 
C 467 652 870 -513 1510 -1351 
L 1862 -1351 
C 1299 -436 986 639 986 1663 
C 986 2681 1299 3763 1862 4672 
L 1510 4672 
z
" transform="scale(0.015625)"/>
       <path id="NimbusSanL-Regu-41" d="M 3034 1408 
L 3514 0 
L 4179 0 
L 2541 4672 
L 1773 4672 
L 109 0 
L 742 0 
L 1235 1408 
L 3034 1408 
z
M 2867 1907 
L 1382 1907 
L 2150 4032 
L 2867 1907 
z
" transform="scale(0.015625)"/>
       <path id="NimbusSanL-Regu-29" d="M 595 -1351 
C 1235 -513 1638 652 1638 1657 
C 1638 2668 1235 3833 595 4672 
L 243 4672 
C 806 3756 1120 2681 1120 1657 
C 1120 639 806 -442 243 -1351 
L 595 -1351 
z
" transform="scale(0.015625)"/>
      </defs>
      <use xlink:href="#NimbusSanL-Regu-43" transform="scale(0.996264)"/>
      <use xlink:href="#NimbusSanL-Regu-75" transform="translate(71.929985 0) scale(0.996264)"/>
      <use xlink:href="#NimbusSanL-Regu-72" transform="translate(127.321662 0) scale(0.996264)"/>
      <use xlink:href="#NimbusSanL-Regu-72" transform="translate(160.496892 0) scale(0.996264)"/>
      <use xlink:href="#NimbusSanL-Regu-65" transform="translate(193.672121 0) scale(0.996264)"/>
      <use xlink:href="#NimbusSanL-Regu-6e" transform="translate(249.063798 0) scale(0.996264)"/>
      <use xlink:href="#NimbusSanL-Regu-74" transform="translate(304.455475 0) scale(0.996264)"/>
      <use xlink:href="#NimbusSanL-Regu-28" transform="translate(359.845814 0) scale(0.996264)"/>
      <use xlink:href="#NimbusSanL-Regu-41" transform="translate(393.021044 0) scale(0.996264)"/>
      <use xlink:href="#NimbusSanL-Regu-29" transform="translate(459.471075 0) scale(0.996264)"/>
     </g>
    </g>
   </g>
   <g id="matplotlib.axis_2">
    <g id="ytick_1">
     <g id="line2d_19">
      <path d="M 61.060559 224.329441 
L 260.318199 224.329441 
" clip-path="url(#p619b57bc38)" style="fill: none; stroke-dasharray: 1.85,0.8; stroke-dashoffset: 0; stroke: #000000; stroke-width: 0.5"/>
     </g>
     <g id="line2d_20">
      <defs>
       <path id="m83de89b07b" d="M 0 0 
L 3.5 0 
" style="stroke: #000000; stroke-width: 0.8"/>
      </defs>
      <g>
       <use xlink:href="#m83de89b07b" x="61.060559" y="224.329441" style="stroke: #000000; stroke-width: 0.8"/>
      </g>
     </g>
     <g id="text_6">
      <!-- $\mathdefault{−3000}$ -->
      <g transform="translate(27.235369 228.410975) scale(0.115 -0.115)">
       <defs>
        <path id="CMSY10-0" d="M 4218 1472 
C 4326 1472 4442 1472 4442 1600 
C 4442 1728 4326 1728 4218 1728 
L 755 1728 
C 646 1728 531 1728 531 1600 
C 531 1472 646 1472 755 1472 
L 4218 1472 
z
" transform="scale(0.015625)"/>
        <path id="CMR17-33" d="M 1414 2176 
C 1984 2176 2234 1673 2234 1094 
C 2234 322 1824 25 1453 25 
C 1114 25 563 193 390 691 
C 422 678 454 678 486 678 
C 640 678 755 780 755 947 
C 755 1132 614 1216 486 1216 
C 378 1216 211 1164 211 927 
C 211 335 787 -128 1466 -128 
C 2176 -128 2720 432 2720 1087 
C 2720 1718 2208 2176 1600 2246 
C 2086 2347 2554 2776 2554 3353 
C 2554 3856 2048 4224 1472 4224 
C 890 4224 378 3862 378 3347 
C 378 3123 544 3084 627 3084 
C 762 3084 877 3167 877 3334 
C 877 3500 762 3584 627 3584 
C 602 3584 570 3584 544 3571 
C 730 3999 1235 4076 1459 4076 
C 1683 4076 2106 3966 2106 3347 
C 2106 3167 2080 2851 1862 2574 
C 1670 2329 1453 2316 1242 2297 
C 1210 2297 1062 2284 1037 2284 
C 992 2278 966 2272 966 2227 
C 966 2182 973 2176 1101 2176 
L 1414 2176 
z
" transform="scale(0.015625)"/>
       </defs>
       <use xlink:href="#CMSY10-0" transform="scale(0.996264)"/>
       <use xlink:href="#CMR17-33" transform="translate(77.487468 0) scale(0.996264)"/>
       <use xlink:href="#CMR17-30" transform="translate(123.177945 0) scale(0.996264)"/>
       <use xlink:href="#CMR17-30" transform="translate(168.868422 0) scale(0.996264)"/>
       <use xlink:href="#CMR17-30" transform="translate(214.558899 0) scale(0.996264)"/>
      </g>
     </g>
    </g>
    <g id="ytick_2">
     <g id="line2d_21">
      <path d="M 61.060559 192.202851 
L 260.318199 192.202851 
" clip-path="url(#p619b57bc38)" style="fill: none; stroke-dasharray: 1.85,0.8; stroke-dashoffset: 0; stroke: #000000; stroke-width: 0.5"/>
     </g>
     <g id="line2d_22">
      <g>
       <use xlink:href="#m83de89b07b" x="61.060559" y="192.202851" style="stroke: #000000; stroke-width: 0.8"/>
      </g>
     </g>
     <g id="text_7">
      <!-- $\mathdefault{−2000}$ -->
      <g transform="translate(27.235369 196.284385) scale(0.115 -0.115)">
       <use xlink:href="#CMSY10-0" transform="scale(0.996264)"/>
       <use xlink:href="#CMR17-32" transform="translate(77.487468 0) scale(0.996264)"/>
       <use xlink:href="#CMR17-30" transform="translate(123.177945 0) scale(0.996264)"/>
       <use xlink:href="#CMR17-30" transform="translate(168.868422 0) scale(0.996264)"/>
       <use xlink:href="#CMR17-30" transform="translate(214.558899 0) scale(0.996264)"/>
      </g>
     </g>
    </g>
    <g id="ytick_3">
     <g id="line2d_23">
      <path d="M 61.060559 160.076261 
L 260.318199 160.076261 
" clip-path="url(#p619b57bc38)" style="fill: none; stroke-dasharray: 1.85,0.8; stroke-dashoffset: 0; stroke: #000000; stroke-width: 0.5"/>
     </g>
     <g id="line2d_24">
      <g>
       <use xlink:href="#m83de89b07b" x="61.060559" y="160.076261" style="stroke: #000000; stroke-width: 0.8"/>
      </g>
     </g>
     <g id="text_8">
      <!-- $\mathdefault{−1000}$ -->
      <g transform="translate(27.235369 164.157795) scale(0.115 -0.115)">
       <defs>
        <path id="CMR17-31" d="M 1702 4083 
C 1702 4217 1696 4224 1606 4224 
C 1357 3927 979 3833 621 3820 
C 602 3820 570 3820 563 3808 
C 557 3795 557 3782 557 3648 
C 755 3648 1088 3686 1344 3839 
L 1344 467 
C 1344 243 1331 166 781 166 
L 589 166 
L 589 0 
C 896 6 1216 12 1523 12 
C 1830 12 2150 6 2458 0 
L 2458 166 
L 2266 166 
C 1715 166 1702 236 1702 467 
L 1702 4083 
z
" transform="scale(0.015625)"/>
       </defs>
       <use xlink:href="#CMSY10-0" transform="scale(0.996264)"/>
       <use xlink:href="#CMR17-31" transform="translate(77.487468 0) scale(0.996264)"/>
       <use xlink:href="#CMR17-30" transform="translate(123.177945 0) scale(0.996264)"/>
       <use xlink:href="#CMR17-30" transform="translate(168.868422 0) scale(0.996264)"/>
       <use xlink:href="#CMR17-30" transform="translate(214.558899 0) scale(0.996264)"/>
      </g>
     </g>
    </g>
    <g id="ytick_4">
     <g id="line2d_25">
      <path d="M 61.060559 127.949671 
L 260.318199 127.949671 
" clip-path="url(#p619b57bc38)" style="fill: none; stroke-dasharray: 1.85,0.8; stroke-dashoffset: 0; stroke: #000000; stroke-width: 0.5"/>
     </g>
     <g id="line2d_26">
      <g>
       <use xlink:href="#m83de89b07b" x="61.060559" y="127.949671" style="stroke: #000000; stroke-width: 0.8"/>
      </g>
     </g>
     <g id="text_9">
      <!-- $\mathdefault{0}$ -->
      <g transform="translate(53.332025 132.031205) scale(0.115 -0.115)">
       <use xlink:href="#CMR17-30" transform="scale(0.996264)"/>
      </g>
     </g>
    </g>
    <g id="ytick_5">
     <g id="line2d_27">
      <path d="M 61.060559 95.823081 
L 260.318199 95.823081 
" clip-path="url(#p619b57bc38)" style="fill: none; stroke-dasharray: 1.85,0.8; stroke-dashoffset: 0; stroke: #000000; stroke-width: 0.5"/>
     </g>
     <g id="line2d_28">
      <g>
       <use xlink:href="#m83de89b07b" x="61.060559" y="95.823081" style="stroke: #000000; stroke-width: 0.8"/>
      </g>
     </g>
     <g id="text_10">
      <!-- $\mathdefault{1000}$ -->
      <g transform="translate(36.146426 99.904615) scale(0.115 -0.115)">
       <use xlink:href="#CMR17-31" transform="scale(0.996264)"/>
       <use xlink:href="#CMR17-30" transform="translate(45.690477 0) scale(0.996264)"/>
       <use xlink:href="#CMR17-30" transform="translate(91.380954 0) scale(0.996264)"/>
       <use xlink:href="#CMR17-30" transform="translate(137.071431 0) scale(0.996264)"/>
      </g>
     </g>
    </g>
    <g id="ytick_6">
     <g id="line2d_29">
      <path d="M 61.060559 63.696491 
L 260.318199 63.696491 
" clip-path="url(#p619b57bc38)" style="fill: none; stroke-dasharray: 1.85,0.8; stroke-dashoffset: 0; stroke: #000000; stroke-width: 0.5"/>
     </g>
     <g id="line2d_30">
      <g>
       <use xlink:href="#m83de89b07b" x="61.060559" y="63.696491" style="stroke: #000000; stroke-width: 0.8"/>
      </g>
     </g>
     <g id="text_11">
      <!-- $\mathdefault{2000}$ -->
      <g transform="translate(36.146426 67.778025) scale(0.115 -0.115)">
       <use xlink:href="#CMR17-32" transform="scale(0.996264)"/>
       <use xlink:href="#CMR17-30" transform="translate(45.690477 0) scale(0.996264)"/>
       <use xlink:href="#CMR17-30" transform="translate(91.380954 0) scale(0.996264)"/>
       <use xlink:href="#CMR17-30" transform="translate(137.071431 0) scale(0.996264)"/>
      </g>
     </g>
    </g>
    <g id="ytick_7">
     <g id="line2d_31">
      <path d="M 61.060559 31.5699 
L 260.318199 31.5699 
" clip-path="url(#p619b57bc38)" style="fill: none; stroke-dasharray: 1.85,0.8; stroke-dashoffset: 0; stroke: #000000; stroke-width: 0.5"/>
     </g>
     <g id="line2d_32">
      <g>
       <use xlink:href="#m83de89b07b" x="61.060559" y="31.5699" style="stroke: #000000; stroke-width: 0.8"/>
      </g>
     </g>
     <g id="text_12">
      <!-- $\mathdefault{3000}$ -->
      <g transform="translate(36.146426 35.651435) scale(0.115 -0.115)">
       <use xlink:href="#CMR17-33" transform="scale(0.996264)"/>
       <use xlink:href="#CMR17-30" transform="translate(45.690477 0) scale(0.996264)"/>
       <use xlink:href="#CMR17-30" transform="translate(91.380954 0) scale(0.996264)"/>
       <use xlink:href="#CMR17-30" transform="translate(137.071431 0) scale(0.996264)"/>
      </g>
     </g>
    </g>
    <g id="text_13">
     <!-- Power ($\mu$W) -->
     <g transform="translate(20.795088 159.362518) rotate(-90) scale(0.115 -0.115)">
      <defs>
       <path id="NimbusSanL-Regu-50" d="M 1178 1984 
L 2643 1984 
C 3008 1984 3296 2092 3546 2316 
C 3827 2572 3949 2873 3949 3302 
C 3949 4179 3430 4672 2509 4672 
L 582 4672 
L 582 0 
L 1178 0 
L 1178 1984 
z
M 1178 2508 
L 1178 4147 
L 2419 4147 
C 2989 4147 3328 3839 3328 3327 
C 3328 2816 2989 2508 2419 2508 
L 1178 2508 
z
" transform="scale(0.015625)"/>
       <path id="NimbusSanL-Regu-6f" d="M 1741 3456 
C 800 3456 230 2784 230 1663 
C 230 543 794 -128 1747 -128 
C 2688 -128 3264 543 3264 1638 
C 3264 2791 2707 3456 1741 3456 
z
M 1747 2963 
C 2349 2963 2707 2472 2707 1644 
C 2707 861 2336 364 1747 364 
C 1152 364 787 855 787 1663 
C 787 2466 1152 2963 1747 2963 
z
" transform="scale(0.015625)"/>
       <path id="NimbusSanL-Regu-77" d="M 3546 0 
L 4531 3328 
L 3930 3328 
L 3264 737 
L 2605 3328 
L 1952 3328 
L 1312 737 
L 627 3328 
L 38 3328 
L 1011 0 
L 1613 0 
L 2259 2609 
L 2938 0 
L 3546 0 
z
" transform="scale(0.015625)"/>
       <path id="CMMI12-16" d="M 922 140 
C 1082 -7 1318 -64 1536 -64 
C 1946 -64 2227 210 2374 408 
C 2438 70 2707 -64 2931 -64 
C 3123 -64 3277 51 3392 281 
C 3494 498 3584 887 3584 913 
C 3584 944 3558 970 3520 970 
C 3462 970 3456 938 3430 842 
C 3334 466 3213 64 2950 64 
C 2765 64 2752 229 2752 357 
C 2752 504 2810 734 2854 925 
L 3034 1615 
C 3059 1736 3130 2023 3162 2138 
C 3200 2291 3270 2566 3270 2591 
C 3270 2687 3194 2752 3098 2752 
C 3040 2752 2906 2726 2854 2534 
L 2406 759 
C 2374 632 2374 619 2291 517 
C 2214 408 1965 64 1562 64 
C 1203 64 1088 325 1088 625 
C 1088 811 1146 1034 1171 1143 
L 1459 2292 
C 1491 2413 1542 2617 1542 2656 
C 1542 2758 1459 2816 1376 2816 
C 1318 2816 1178 2796 1126 2592 
L 198 -1085 
C 192 -1116 179 -1154 179 -1191 
C 179 -1287 256 -1351 352 -1351 
C 538 -1351 576 -1204 621 -1029 
L 922 140 
z
" transform="scale(0.015625)"/>
       <path id="NimbusSanL-Regu-57" d="M 4762 0 
L 5946 4672 
L 5280 4672 
L 4422 877 
L 3360 4672 
L 2720 4672 
L 1683 877 
L 806 4672 
L 141 4672 
L 1338 0 
L 1990 0 
L 3034 3838 
L 4109 0 
L 4762 0 
z
" transform="scale(0.015625)"/>
      </defs>
      <use xlink:href="#NimbusSanL-Regu-50" transform="scale(0.996264)"/>
      <use xlink:href="#NimbusSanL-Regu-6f" transform="translate(61.468681 0) scale(0.996264)"/>
      <use xlink:href="#NimbusSanL-Regu-77" transform="translate(115.366965 0) scale(0.996264)"/>
      <use xlink:href="#NimbusSanL-Regu-65" transform="translate(186.300853 0) scale(0.996264)"/>
      <use xlink:href="#NimbusSanL-Regu-72" transform="translate(241.69253 0) scale(0.996264)"/>
      <use xlink:href="#NimbusSanL-Regu-28" transform="translate(302.562929 0) scale(0.996264)"/>
      <use xlink:href="#CMMI12-16" transform="translate(335.738159 0) scale(0.996264)"/>
      <use xlink:href="#NimbusSanL-Regu-57" transform="translate(394.42958 0) scale(0.996264)"/>
      <use xlink:href="#NimbusSanL-Regu-29" transform="translate(488.47635 0) scale(0.996264)"/>
     </g>
    </g>
   </g>
   <g id="legend_1">
    <g id="line2d_33">
     <path d="M 270.668199 26.908068 
L 279.293199 26.908068 
L 287.918199 26.908068 
" style="fill: none; stroke: #f0a3ff; stroke-width: 1.1; stroke-linecap: square"/>
    </g>
    <g id="text_14">
     <!-- 323.15 K -->
     <g transform="translate(297.118199 30.933068) scale(0.115 -0.115)">
      <defs>
       <path id="NimbusSanL-Regu-33" d="M 1414 2093 
L 1485 2093 
L 1722 2099 
C 2342 2099 2662 1819 2662 1276 
C 2662 709 2310 371 1722 371 
C 1107 371 806 677 768 1334 
L 205 1334 
C 230 970 294 734 403 530 
C 634 96 1082 -128 1702 -128 
C 2637 -128 3238 428 3238 1283 
C 3238 1857 3014 2176 2470 2361 
C 2893 2526 3104 2845 3104 3298 
C 3104 4076 2586 4544 1722 4544 
C 806 4544 320 4044 301 3081 
L 864 3081 
C 870 3356 896 3509 966 3649 
C 1094 3898 1376 4051 1728 4051 
C 2227 4051 2528 3757 2528 3279 
C 2528 2960 2413 2769 2163 2667 
C 2010 2603 1811 2577 1414 2571 
L 1414 2093 
z
" transform="scale(0.015625)"/>
       <path id="NimbusSanL-Regu-32" d="M 3238 556 
L 851 556 
C 909 928 1114 1165 1670 1493 
L 2310 1839 
C 2944 2185 3270 2653 3270 3211 
C 3270 3589 3117 3942 2848 4185 
C 2579 4428 2246 4544 1818 4544 
C 1242 4544 813 4339 563 3955 
C 403 3711 333 3429 320 2967 
L 883 2967 
C 902 3275 941 3461 1018 3608 
C 1165 3884 1459 4051 1798 4051 
C 2310 4051 2694 3685 2694 3198 
C 2694 2839 2483 2531 2080 2300 
L 1491 1967 
C 544 1428 269 999 218 0 
L 3238 0 
L 3238 556 
z
" transform="scale(0.015625)"/>
       <path id="NimbusSanL-Regu-2e" d="M 1222 665 
L 557 665 
L 557 0 
L 1222 0 
L 1222 665 
z
" transform="scale(0.015625)"/>
       <path id="NimbusSanL-Regu-31" d="M 1658 3232 
L 1658 0 
L 2221 0 
L 2221 4537 
L 1850 4537 
C 1651 3840 1523 3744 653 3635 
L 653 3232 
L 1658 3232 
z
" transform="scale(0.015625)"/>
       <path id="NimbusSanL-Regu-35" d="M 3046 4544 
L 704 4544 
L 365 2076 
L 883 2076 
C 1146 2387 1363 2496 1715 2496 
C 2323 2496 2707 2082 2707 1414 
C 2707 765 2330 371 1715 371 
C 1222 371 922 619 787 1128 
L 224 1128 
C 301 759 365 581 499 415 
C 755 70 1216 -128 1728 -128 
C 2643 -128 3283 536 3283 1490 
C 3283 2381 2688 2995 1818 2995 
C 1498 2995 1242 2912 979 2720 
L 1158 3987 
L 3046 3987 
L 3046 4544 
z
" transform="scale(0.015625)"/>
       <path id="NimbusSanL-Regu-4b" d="M 1101 1634 
L 1862 2396 
L 3507 0 
L 4211 0 
L 2291 2768 
L 4192 4672 
L 3424 4672 
L 1101 2307 
L 1101 4672 
L 506 4672 
L 506 0 
L 1101 0 
L 1101 1634 
z
" transform="scale(0.015625)"/>
      </defs>
      <use xlink:href="#NimbusSanL-Regu-33" transform="scale(0.996264)"/>
      <use xlink:href="#NimbusSanL-Regu-32" transform="translate(55.391677 0) scale(0.996264)"/>
      <use xlink:href="#NimbusSanL-Regu-33" transform="translate(110.783354 0) scale(0.996264)"/>
      <use xlink:href="#NimbusSanL-Regu-2e" transform="translate(166.175031 0) scale(0.996264)"/>
      <use xlink:href="#NimbusSanL-Regu-31" transform="translate(193.8702 0) scale(0.996264)"/>
      <use xlink:href="#NimbusSanL-Regu-35" transform="translate(249.261877 0) scale(0.996264)"/>
      <use xlink:href="#NimbusSanL-Regu-4b" transform="translate(332.348724 0) scale(0.996264)"/>
     </g>
    </g>
    <g id="line2d_34">
     <path d="M 270.668199 43.261418 
L 279.293199 43.261418 
L 287.918199 43.261418 
" style="fill: none; stroke: #0075dc; stroke-width: 1.1; stroke-linecap: square"/>
    </g>
    <g id="text_15">
     <!-- 373.15 K -->
     <g transform="translate(297.118199 47.286418) scale(0.115 -0.115)">
      <defs>
       <path id="NimbusSanL-Regu-37" d="M 3328 4544 
L 294 4544 
L 294 3987 
L 2746 3987 
C 1664 2442 1222 1493 883 0 
L 1485 0 
C 1734 1454 2304 2704 3328 4070 
L 3328 4544 
z
" transform="scale(0.015625)"/>
      </defs>
      <use xlink:href="#NimbusSanL-Regu-33" transform="scale(0.996264)"/>
      <use xlink:href="#NimbusSanL-Regu-37" transform="translate(55.391677 0) scale(0.996264)"/>
      <use xlink:href="#NimbusSanL-Regu-33" transform="translate(110.783354 0) scale(0.996264)"/>
      <use xlink:href="#NimbusSanL-Regu-2e" transform="translate(166.175031 0) scale(0.996264)"/>
      <use xlink:href="#NimbusSanL-Regu-31" transform="translate(193.8702 0) scale(0.996264)"/>
      <use xlink:href="#NimbusSanL-Regu-35" transform="translate(249.261877 0) scale(0.996264)"/>
      <use xlink:href="#NimbusSanL-Regu-4b" transform="translate(332.348724 0) scale(0.996264)"/>
     </g>
    </g>
    <g id="line2d_35">
     <path d="M 270.668199 59.614768 
L 279.293199 59.614768 
L 287.918199 59.614768 
" style="fill: none; stroke: #993f00; stroke-width: 1.1; stroke-linecap: square"/>
    </g>
    <g id="text_16">
     <!-- 423.15 K -->
     <g transform="translate(297.118199 63.639768) scale(0.115 -0.115)">
      <defs>
       <path id="NimbusSanL-Regu-34" d="M 2093 1088 
L 2093 0 
L 2656 0 
L 2656 1088 
L 3328 1088 
L 3328 1593 
L 2656 1593 
L 2656 4537 
L 2240 4537 
L 179 1683 
L 179 1088 
L 2093 1088 
z
M 2093 1593 
L 672 1593 
L 2093 3577 
L 2093 1593 
z
" transform="scale(0.015625)"/>
      </defs>
      <use xlink:href="#NimbusSanL-Regu-34" transform="scale(0.996264)"/>
      <use xlink:href="#NimbusSanL-Regu-32" transform="translate(55.391677 0) scale(0.996264)"/>
      <use xlink:href="#NimbusSanL-Regu-33" transform="translate(110.783354 0) scale(0.996264)"/>
      <use xlink:href="#NimbusSanL-Regu-2e" transform="translate(166.175031 0) scale(0.996264)"/>
      <use xlink:href="#NimbusSanL-Regu-31" transform="translate(193.8702 0) scale(0.996264)"/>
      <use xlink:href="#NimbusSanL-Regu-35" transform="translate(249.261877 0) scale(0.996264)"/>
      <use xlink:href="#NimbusSanL-Regu-4b" transform="translate(332.348724 0) scale(0.996264)"/>
     </g>
    </g>
    <g id="line2d_36">
     <path d="M 270.668199 75.968117 
L 279.293199 75.968117 
L 287.918199 75.968117 
" style="fill: none; stroke: #4c005c; stroke-width: 1.1; stroke-linecap: square"/>
    </g>
    <g id="text_17">
     <!-- 473.15 K -->
     <g transform="translate(297.118199 79.993117) scale(0.115 -0.115)">
      <use xlink:href="#NimbusSanL-Regu-34" transform="scale(0.996264)"/>
      <use xlink:href="#NimbusSanL-Regu-37" transform="translate(55.391677 0) scale(0.996264)"/>
      <use xlink:href="#NimbusSanL-Regu-33" transform="translate(110.783354 0) scale(0.996264)"/>
      <use xlink:href="#NimbusSanL-Regu-2e" transform="translate(166.175031 0) scale(0.996264)"/>
      <use xlink:href="#NimbusSanL-Regu-31" transform="translate(193.8702 0) scale(0.996264)"/>
      <use xlink:href="#NimbusSanL-Regu-35" transform="translate(249.261877 0) scale(0.996264)"/>
      <use xlink:href="#NimbusSanL-Regu-4b" transform="translate(332.348724 0) scale(0.996264)"/>
     </g>
    </g>
    <g id="line2d_37">
     <path d="M 270.668199 92.321467 
L 279.293199 92.321467 
L 287.918199 92.321467 
" style="fill: none; stroke: #426600; stroke-width: 1.1; stroke-linecap: square"/>
    </g>
    <g id="text_18">
     <!-- 523.15 K -->
     <g transform="translate(297.118199 96.346467) scale(0.115 -0.115)">
      <use xlink:href="#NimbusSanL-Regu-35" transform="scale(0.996264)"/>
      <use xlink:href="#NimbusSanL-Regu-32" transform="translate(55.391677 0) scale(0.996264)"/>
      <use xlink:href="#NimbusSanL-Regu-33" transform="translate(110.783354 0) scale(0.996264)"/>
      <use xlink:href="#NimbusSanL-Regu-2e" transform="translate(166.175031 0) scale(0.996264)"/>
      <use xlink:href="#NimbusSanL-Regu-31" transform="translate(193.8702 0) scale(0.996264)"/>
      <use xlink:href="#NimbusSanL-Regu-35" transform="translate(249.261877 0) scale(0.996264)"/>
      <use xlink:href="#NimbusSanL-Regu-4b" transform="translate(332.348724 0) scale(0.996264)"/>
     </g>
    </g>
    <g id="line2d_38">
     <path d="M 270.668199 108.674816 
L 279.293199 108.674816 
L 287.918199 108.674816 
" style="fill: none; stroke: #ff0010; stroke-width: 1.1; stroke-linecap: square"/>
    </g>
    <g id="text_19">
     <!-- 573.15 K -->
     <g transform="translate(297.118199 112.699816) scale(0.115 -0.115)">
      <use xlink:href="#NimbusSanL-Regu-35" transform="scale(0.996264)"/>
      <use xlink:href="#NimbusSanL-Regu-37" transform="translate(55.391677 0) scale(0.996264)"/>
      <use xlink:href="#NimbusSanL-Regu-33" transform="translate(110.783354 0) scale(0.996264)"/>
      <use xlink:href="#NimbusSanL-Regu-2e" transform="translate(166.175031 0) scale(0.996264)"/>
      <use xlink:href="#NimbusSanL-Regu-31" transform="translate(193.8702 0) scale(0.996264)"/>
      <use xlink:href="#NimbusSanL-Regu-35" transform="translate(249.261877 0) scale(0.996264)"/>
      <use xlink:href="#NimbusSanL-Regu-4b" transform="translate(332.348724 0) scale(0.996264)"/>
     </g>
    </g>
    <g id="line2d_39">
     <path d="M 270.668199 125.028166 
L 279.293199 125.028166 
L 287.918199 125.028166 
" style="fill: none; stroke: #9dcc00; stroke-width: 1.1; stroke-linecap: square"/>
    </g>
    <g id="text_20">
     <!-- 623.15 K -->
     <g transform="translate(297.118199 129.053166) scale(0.115 -0.115)">
      <defs>
       <path id="NimbusSanL-Regu-36" d="M 3187 3352 
C 3078 4102 2592 4544 1901 4544 
C 1402 4544 954 4300 685 3895 
C 403 3449 275 2887 275 2064 
C 275 1312 390 832 659 434 
C 902 70 1299 -128 1798 -128 
C 2662 -128 3283 510 3283 1388 
C 3283 2221 2707 2816 1894 2816 
C 1446 2816 1094 2643 851 2310 
C 858 3423 1216 4044 1862 4044 
C 2259 4044 2534 3792 2624 3352 
L 3187 3352 
z
M 1824 2316 
C 2368 2316 2707 1944 2707 1343 
C 2707 781 2323 371 1805 371 
C 1280 371 883 800 883 1375 
C 883 1931 1267 2316 1824 2316 
z
" transform="scale(0.015625)"/>
      </defs>
      <use xlink:href="#NimbusSanL-Regu-36" transform="scale(0.996264)"/>
      <use xlink:href="#NimbusSanL-Regu-32" transform="translate(55.391677 0) scale(0.996264)"/>
      <use xlink:href="#NimbusSanL-Regu-33" transform="translate(110.783354 0) scale(0.996264)"/>
      <use xlink:href="#NimbusSanL-Regu-2e" transform="translate(166.175031 0) scale(0.996264)"/>
      <use xlink:href="#NimbusSanL-Regu-31" transform="translate(193.8702 0) scale(0.996264)"/>
      <use xlink:href="#NimbusSanL-Regu-35" transform="translate(249.261877 0) scale(0.996264)"/>
      <use xlink:href="#NimbusSanL-Regu-4b" transform="translate(332.348724 0) scale(0.996264)"/>
     </g>
    </g>
    <g id="line2d_40">
     <path d="M 270.668199 141.381516 
L 279.293199 141.381516 
L 287.918199 141.381516 
" style="fill: none; stroke: #c20088; stroke-width: 1.1; stroke-linecap: square"/>
    </g>
    <g id="text_21">
     <!-- 673.15 K -->
     <g transform="translate(297.118199 145.406516) scale(0.115 -0.115)">
      <use xlink:href="#NimbusSanL-Regu-36" transform="scale(0.996264)"/>
      <use xlink:href="#NimbusSanL-Regu-37" transform="translate(55.391677 0) scale(0.996264)"/>
      <use xlink:href="#NimbusSanL-Regu-33" transform="translate(110.783354 0) scale(0.996264)"/>
      <use xlink:href="#NimbusSanL-Regu-2e" transform="translate(166.175031 0) scale(0.996264)"/>
      <use xlink:href="#NimbusSanL-Regu-31" transform="translate(193.8702 0) scale(0.996264)"/>
      <use xlink:href="#NimbusSanL-Regu-35" transform="translate(249.261877 0) scale(0.996264)"/>
      <use xlink:href="#NimbusSanL-Regu-4b" transform="translate(332.348724 0) scale(0.996264)"/>
     </g>
    </g>
    <g id="line2d_41">
     <path d="M 270.668199 157.734865 
L 279.293199 157.734865 
L 287.918199 157.734865 
" style="fill: none; stroke: #003380; stroke-width: 1.1; stroke-linecap: square"/>
    </g>
    <g id="text_22">
     <!-- 723.15 K -->
     <g transform="translate(297.118199 161.759865) scale(0.115 -0.115)">
      <use xlink:href="#NimbusSanL-Regu-37" transform="scale(0.996264)"/>
      <use xlink:href="#NimbusSanL-Regu-32" transform="translate(55.391677 0) scale(0.996264)"/>
      <use xlink:href="#NimbusSanL-Regu-33" transform="translate(110.783354 0) scale(0.996264)"/>
      <use xlink:href="#NimbusSanL-Regu-2e" transform="translate(166.175031 0) scale(0.996264)"/>
      <use xlink:href="#NimbusSanL-Regu-31" transform="translate(193.8702 0) scale(0.996264)"/>
      <use xlink:href="#NimbusSanL-Regu-35" transform="translate(249.261877 0) scale(0.996264)"/>
      <use xlink:href="#NimbusSanL-Regu-4b" transform="translate(332.348724 0) scale(0.996264)"/>
     </g>
    </g>
    <g id="line2d_42">
     <path d="M 270.668199 174.088215 
L 279.293199 174.088215 
L 287.918199 174.088215 
" style="fill: none; stroke: #ffa405; stroke-width: 1.1; stroke-linecap: square"/>
    </g>
    <g id="text_23">
     <!-- 773.15 K -->
     <g transform="translate(297.118199 178.113215) scale(0.115 -0.115)">
      <use xlink:href="#NimbusSanL-Regu-37" transform="scale(0.996264)"/>
      <use xlink:href="#NimbusSanL-Regu-37" transform="translate(55.391677 0) scale(0.996264)"/>
      <use xlink:href="#NimbusSanL-Regu-33" transform="translate(110.783354 0) scale(0.996264)"/>
      <use xlink:href="#NimbusSanL-Regu-2e" transform="translate(166.175031 0) scale(0.996264)"/>
      <use xlink:href="#NimbusSanL-Regu-31" transform="translate(193.8702 0) scale(0.996264)"/>
      <use xlink:href="#NimbusSanL-Regu-35" transform="translate(249.261877 0) scale(0.996264)"/>
      <use xlink:href="#NimbusSanL-Regu-4b" transform="translate(332.348724 0) scale(0.996264)"/>
     </g>
    </g>
   </g>
  </g>
 </g>
 <defs>
  <clipPath id="p619b57bc38">
   <rect x="61.060559" y="12.42" width="199.25764" height="233.741281"/>
  </clipPath>
 </defs>
</svg>
