<?xml version="1.0" encoding="utf-8" standalone="no"?>
<!DOCTYPE svg PUBLIC "-//W3C//DTD SVG 1.1//EN"
  "http://www.w3.org/Graphics/SVG/1.1/DTD/svg11.dtd">
<svg xmlns:xlink="http://www.w3.org/1999/xlink" width="360pt" height="288pt" viewBox="0 0 360 288" xmlns="http://www.w3.org/2000/svg" version="1.1">
 <metadata>
  <rdf:RDF xmlns:dc="http://purl.org/dc/elements/1.1/" xmlns:cc="http://creativecommons.org/ns#" xmlns:rdf="http://www.w3.org/1999/02/22-rdf-syntax-ns#">
   <cc:Work>
    <dc:type rdf:resource="http://purl.org/dc/dcmitype/StillImage"/>
    <dc:date>2025-04-09T13:08:52.231898</dc:date>
    <dc:format>image/svg+xml</dc:format>
    <dc:creator>
     <cc:Agent>
      <dc:title>Matplotlib v3.7.0, https://matplotlib.org/</dc:title>
     </cc:Agent>
    </dc:creator>
   </cc:Work>
  </rdf:RDF>
 </metadata>
 <defs>
  <style type="text/css">*{stroke-linejoin: round; stroke-linecap: butt}</style>
 </defs>
 <g id="figure_1">
  <g id="patch_1">
   <path d="M 0 288 
L 360 288 
L 360 0 
L 0 0 
z
" style="fill: #ffffff"/>
  </g>
  <g id="axes_1">
   <g id="patch_2">
    <path d="M 61.060559 246.161281 
L 260.318199 246.161281 
L 260.318199 12.42 
L 61.060559 12.42 
z
" style="fill: #ffffff"/>
   </g>
   <g id="PathCollection_1">
    <defs>
     <path id="mb732059000" d="M 0 -2.5 
L -2.165064 -1.25 
L -2.165064 1.25 
L -0 2.5 
L 2.165064 1.25 
L 2.165064 -1.25 
z
" style="stroke: #000000"/>
    </defs>
    <g clip-path="url(#p129a651f2b)">
     <use xlink:href="#mb732059000" x="76.90149" y="122.602694" style="stroke: #000000"/>
    </g>
   </g>
   <g id="PathCollection_2">
    <g clip-path="url(#p129a651f2b)">
     <use xlink:href="#mb732059000" x="89.062528" y="121.433012" style="stroke: #000000"/>
    </g>
   </g>
   <g id="PathCollection_3">
    <g clip-path="url(#p129a651f2b)">
     <use xlink:href="#mb732059000" x="102.634535" y="118.795992" style="stroke: #000000"/>
    </g>
   </g>
   <g id="PathCollection_4">
    <g clip-path="url(#p129a651f2b)">
     <use xlink:href="#mb732059000" x="117.371268" y="114.281356" style="stroke: #000000"/>
    </g>
   </g>
   <g id="PathCollection_5">
    <g clip-path="url(#p129a651f2b)">
     <use xlink:href="#mb732059000" x="133.311697" y="107.435586" style="stroke: #000000"/>
    </g>
   </g>
   <g id="PathCollection_6">
    <g clip-path="url(#p129a651f2b)">
     <use xlink:href="#mb732059000" x="150.753417" y="97.682544" style="stroke: #000000"/>
    </g>
   </g>
   <g id="PathCollection_7">
    <g clip-path="url(#p129a651f2b)">
     <use xlink:href="#mb732059000" x="169.635248" y="84.466842" style="stroke: #000000"/>
    </g>
   </g>
   <g id="PathCollection_8">
    <g clip-path="url(#p129a651f2b)">
     <use xlink:href="#mb732059000" x="189.357384" y="67.557777" style="stroke: #000000"/>
    </g>
   </g>
   <g id="PathCollection_9">
    <g clip-path="url(#p129a651f2b)">
     <use xlink:href="#mb732059000" x="209.287043" y="46.995627" style="stroke: #000000"/>
    </g>
   </g>
   <g id="PathCollection_10">
    <g clip-path="url(#p129a651f2b)">
     <use xlink:href="#mb732059000" x="228.955223" y="23.044604" style="stroke: #000000"/>
    </g>
   </g>
   <g id="line2d_1">
    <path d="M 70.117724 122.773646 
L 71.947455 122.693864 
L 73.777185 122.638955 
L 75.606915 122.60892 
L 77.436646 122.603758 
L 79.266376 122.62347 
L 81.096107 122.668055 
L 82.925837 122.737514 
L 84.755567 122.831846 
L 86.585298 122.951052 
L 88.415028 123.095131 
L 90.244759 123.264084 
L 92.074489 123.457911 
L 93.904219 123.676611 
L 95.73395 123.920184 
L 97.56368 124.188631 
L 99.393411 124.481952 
L 101.223141 124.800146 
L 103.052871 125.143213 
L 104.882602 125.511154 
L 106.712332 125.903969 
L 108.542062 126.321657 
L 110.371793 126.764219 
L 112.201523 127.231654 
L 114.031254 127.723963 
L 115.860984 128.241145 
L 117.690714 128.783201 
L 119.520445 129.35013 
L 121.350175 129.941933 
L 123.179906 130.55861 
L 125.009636 131.20016 
L 126.839366 131.866583 
L 128.669097 132.55788 
L 130.498827 133.274051 
L 132.328558 134.015095 
L 134.158288 134.781012 
L 135.988018 135.571803 
L 137.817749 136.387468 
L 139.647479 137.228006 
L 141.47721 138.093418 
L 143.30694 138.983703 
L 145.13667 139.898862 
L 146.966401 140.838894 
L 148.796131 141.8038 
L 150.625862 142.793579 
L 152.455592 143.808232 
L 154.285322 144.847759 
L 156.115053 145.912159 
L 157.944783 147.001432 
L 159.774514 148.115579 
L 161.604244 149.2546 
L 163.433974 150.418494 
L 165.263705 151.607261 
L 167.093435 152.820902 
L 168.923166 154.059417 
L 170.752896 155.322805 
L 172.582626 156.611067 
L 174.412357 157.924202 
L 176.242087 159.262211 
L 178.071818 160.625093 
L 179.901548 162.012849 
L 181.731278 163.425478 
L 183.561009 164.862981 
L 185.390739 166.325358 
L 187.220469 167.812607 
L 189.0502 169.324731 
L 190.87993 170.861728 
L 192.709661 172.423598 
L 194.539391 174.010342 
L 196.369121 175.62196 
L 198.198852 177.258451 
L 200.028582 178.919816 
L 201.858313 180.606054 
L 203.688043 182.317166 
L 205.517773 184.053151 
L 207.347504 185.814009 
L 209.177234 187.599742 
L 211.006965 189.410348 
L 212.836695 191.245827 
L 214.666425 193.10618 
L 216.496156 194.991406 
L 218.325886 196.901506 
L 220.155617 198.836479 
L 221.985347 200.796326 
L 223.815077 202.781047 
L 225.644808 204.790641 
L 227.474538 206.825108 
L 229.304269 208.88445 
L 231.133999 210.968664 
L 232.963729 213.077752 
L 234.79346 215.211714 
L 236.62319 217.370549 
L 238.452921 219.554258 
L 240.282651 221.76284 
L 242.112381 223.996296 
L 243.942112 226.254625 
L 245.771842 228.537828 
L 247.601573 230.845904 
L 249.431303 233.178854 
L 251.261033 235.536678 
" clip-path="url(#p129a651f2b)" style="fill: none; stroke: #f0a3ff; stroke-width: 1.1; stroke-linecap: square"/>
   </g>
   <g id="line2d_2">
    <path d="M 70.117724 122.773646 
L 71.947455 122.527189 
L 73.777185 122.305743 
L 75.606915 122.109308 
L 77.436646 121.937885 
L 79.266376 121.791472 
L 81.096107 121.670071 
L 82.925837 121.573681 
L 84.755567 121.502302 
L 86.585298 121.455934 
L 88.415028 121.434578 
L 90.244759 121.438233 
L 92.074489 121.466899 
L 93.904219 121.520576 
L 95.73395 121.599264 
L 97.56368 121.702963 
L 99.393411 121.831674 
L 101.223141 121.985396 
L 103.052871 122.164129 
L 104.882602 122.367873 
L 106.712332 122.596629 
L 108.542062 122.850395 
L 110.371793 123.129173 
L 112.201523 123.432962 
L 114.031254 123.761762 
L 115.860984 124.115574 
L 117.690714 124.494396 
L 119.520445 124.89823 
L 121.350175 125.327075 
L 123.179906 125.780931 
L 125.009636 126.259798 
L 126.839366 126.763677 
L 128.669097 127.292567 
L 130.498827 127.846468 
L 132.328558 128.42538 
L 134.158288 129.029303 
L 135.988018 129.658238 
L 137.817749 130.312183 
L 139.647479 130.99114 
L 141.47721 131.695108 
L 143.30694 132.424087 
L 145.13667 133.178078 
L 146.966401 133.957079 
L 148.796131 134.761092 
L 150.625862 135.590116 
L 152.455592 136.444152 
L 154.285322 137.323198 
L 156.115053 138.227256 
L 157.944783 139.156324 
L 159.774514 140.110404 
L 161.604244 141.089495 
L 163.433974 142.093598 
L 165.263705 143.122711 
L 167.093435 144.176836 
L 168.923166 145.255972 
L 170.752896 146.360119 
L 172.582626 147.489277 
L 174.412357 148.643447 
L 176.242087 149.822628 
L 178.071818 151.02682 
L 179.901548 152.256023 
L 181.731278 153.510237 
L 183.561009 154.789462 
L 185.390739 156.093699 
L 187.220469 157.422947 
L 189.0502 158.777206 
L 190.87993 160.156476 
L 192.709661 161.560757 
L 194.539391 162.99005 
L 196.369121 164.444354 
L 198.198852 165.923669 
L 200.028582 167.427995 
L 201.858313 168.957332 
L 203.688043 170.511681 
L 205.517773 172.091041 
L 207.347504 173.695412 
L 209.177234 175.324794 
L 211.006965 176.979187 
L 212.836695 178.658592 
L 214.666425 180.363007 
L 216.496156 182.092434 
L 218.325886 183.846872 
L 220.155617 185.626322 
L 221.985347 187.430782 
L 223.815077 189.260254 
L 225.644808 191.114737 
L 227.474538 192.994231 
L 229.304269 194.898736 
L 231.133999 196.828252 
L 232.963729 198.78278 
L 234.79346 200.762319 
L 236.62319 202.766869 
L 238.452921 204.79643 
L 240.282651 206.851002 
L 242.112381 208.930586 
L 243.942112 211.035181 
L 245.771842 213.164787 
L 247.601573 215.319404 
L 249.431303 217.499032 
L 251.261033 219.703672 
" clip-path="url(#p129a651f2b)" style="fill: none; stroke: #0075dc; stroke-width: 1.1; stroke-linecap: square"/>
   </g>
   <g id="line2d_3">
    <path d="M 70.117724 122.773646 
L 71.947455 122.338593 
L 73.777185 121.92873 
L 75.606915 121.544055 
L 77.436646 121.18457 
L 79.266376 120.850274 
L 81.096107 120.541168 
L 82.925837 120.25725 
L 84.755567 119.998522 
L 86.585298 119.764983 
L 88.415028 119.556634 
L 90.244759 119.373473 
L 92.074489 119.215502 
L 93.904219 119.08272 
L 95.73395 118.975128 
L 97.56368 118.892724 
L 99.393411 118.83551 
L 101.223141 118.803486 
L 103.052871 118.79665 
L 104.882602 118.815004 
L 106.712332 118.858547 
L 108.542062 118.927279 
L 110.371793 119.021201 
L 112.201523 119.140311 
L 114.031254 119.284611 
L 115.860984 119.454101 
L 117.690714 119.648779 
L 119.520445 119.868647 
L 121.350175 120.113704 
L 123.179906 120.38395 
L 125.009636 120.679386 
L 126.839366 121.000011 
L 128.669097 121.345825 
L 130.498827 121.716828 
L 132.328558 122.113021 
L 134.158288 122.534403 
L 135.988018 122.980974 
L 137.817749 123.452734 
L 139.647479 123.949684 
L 141.47721 124.471823 
L 143.30694 125.019151 
L 145.13667 125.591668 
L 146.966401 126.189375 
L 148.796131 126.812271 
L 150.625862 127.460356 
L 152.455592 128.133631 
L 154.285322 128.832095 
L 156.115053 129.555748 
L 157.944783 130.30459 
L 159.774514 131.078621 
L 161.604244 131.877842 
L 163.433974 132.702252 
L 165.263705 133.551851 
L 167.093435 134.42664 
L 168.923166 135.326618 
L 170.752896 136.251785 
L 172.582626 137.202141 
L 174.412357 138.177687 
L 176.242087 139.178422 
L 178.071818 140.204346 
L 179.901548 141.255459 
L 181.731278 142.331762 
L 183.561009 143.433254 
L 185.390739 144.559935 
L 187.220469 145.711805 
L 189.0502 146.888865 
L 190.87993 148.091114 
L 192.709661 149.318552 
L 194.539391 150.57118 
L 196.369121 151.848996 
L 198.198852 153.152002 
L 200.028582 154.480198 
L 201.858313 155.833582 
L 203.688043 157.212156 
L 205.517773 158.615919 
L 207.347504 160.044871 
L 209.177234 161.499013 
L 211.006965 162.978343 
L 212.836695 164.482863 
L 214.666425 166.012573 
L 216.496156 167.567471 
L 218.325886 169.147559 
L 220.155617 170.752836 
L 221.985347 172.383303 
L 223.815077 174.038958 
L 225.644808 175.719803 
L 227.474538 177.425837 
L 229.304269 179.157061 
L 231.133999 180.913473 
L 232.963729 182.695075 
L 234.79346 184.501866 
L 236.62319 186.333847 
L 238.452921 188.191016 
L 240.282651 190.073375 
L 242.112381 191.980924 
L 243.942112 193.913661 
L 245.771842 195.871588 
L 247.601573 197.854704 
L 249.431303 199.863009 
L 251.261033 201.896504 
" clip-path="url(#p129a651f2b)" style="fill: none; stroke: #993f00; stroke-width: 1.1; stroke-linecap: square"/>
   </g>
   <g id="line2d_4">
    <path d="M 70.117724 122.773646 
L 71.947455 122.12871 
L 73.777185 121.50924 
L 75.606915 120.915235 
L 77.436646 120.346697 
L 79.266376 119.803625 
L 81.096107 119.286018 
L 82.925837 118.793878 
L 84.755567 118.327203 
L 86.585298 117.885995 
L 88.415028 117.470252 
L 90.244759 117.079976 
L 92.074489 116.715165 
L 93.904219 116.37582 
L 95.73395 116.061942 
L 97.56368 115.773529 
L 99.393411 115.510582 
L 101.223141 115.273102 
L 103.052871 115.061087 
L 104.882602 114.874538 
L 106.712332 114.713455 
L 108.542062 114.577839 
L 110.371793 114.467688 
L 112.201523 114.383003 
L 114.031254 114.323784 
L 115.860984 114.290031 
L 117.690714 114.281744 
L 119.520445 114.298923 
L 121.350175 114.341568 
L 123.179906 114.409679 
L 125.009636 114.503256 
L 126.839366 114.622299 
L 128.669097 114.766808 
L 130.498827 114.936782 
L 132.328558 115.132223 
L 134.158288 115.35313 
L 135.988018 115.599503 
L 137.817749 115.871341 
L 139.647479 116.168646 
L 141.47721 116.491417 
L 143.30694 116.839653 
L 145.13667 117.213356 
L 146.966401 117.612525 
L 148.796131 118.037159 
L 150.625862 118.48726 
L 152.455592 118.962826 
L 154.285322 119.463859 
L 156.115053 119.990357 
L 157.944783 120.542322 
L 159.774514 121.119752 
L 161.604244 121.722648 
L 163.433974 122.351011 
L 165.263705 123.004839 
L 167.093435 123.684133 
L 168.923166 124.388894 
L 170.752896 125.11912 
L 172.582626 125.874812 
L 174.412357 126.65597 
L 176.242087 127.462595 
L 178.071818 128.294685 
L 179.901548 129.152241 
L 181.731278 130.035263 
L 183.561009 130.943751 
L 185.390739 131.877705 
L 187.220469 132.837125 
L 189.0502 133.822011 
L 190.87993 134.832363 
L 192.709661 135.868181 
L 194.539391 136.929465 
L 196.369121 138.016215 
L 198.198852 139.12843 
L 200.028582 140.266112 
L 201.858313 141.42926 
L 203.688043 142.617874 
L 205.517773 143.831954 
L 207.347504 145.071499 
L 209.177234 146.336511 
L 211.006965 147.626989 
L 212.836695 148.942932 
L 214.666425 150.284342 
L 216.496156 151.651217 
L 218.325886 153.043559 
L 220.155617 154.461366 
L 221.985347 155.90464 
L 223.815077 157.373379 
L 225.644808 158.867585 
L 227.474538 160.387256 
L 229.304269 161.932394 
L 231.133999 163.502997 
L 232.963729 165.099066 
L 234.79346 166.720602 
L 236.62319 168.367603 
L 238.452921 170.04007 
L 240.282651 171.738003 
L 242.112381 173.461402 
L 243.942112 175.210268 
L 245.771842 176.984599 
L 247.601573 178.784396 
L 249.431303 180.609659 
L 251.261033 182.460388 
" clip-path="url(#p129a651f2b)" style="fill: none; stroke: #4c005c; stroke-width: 1.1; stroke-linecap: square"/>
   </g>
   <g id="line2d_5">
    <path d="M 70.117724 122.773646 
L 71.947455 121.898303 
L 73.777185 121.048676 
L 75.606915 120.224767 
L 77.436646 119.426575 
L 79.266376 118.6541 
L 81.096107 117.907342 
L 82.925837 117.186301 
L 84.755567 116.490978 
L 86.585298 115.821372 
L 88.415028 115.177483 
L 90.244759 114.559311 
L 92.074489 113.966856 
L 93.904219 113.400118 
L 95.73395 112.859098 
L 97.56368 112.343795 
L 99.393411 111.854209 
L 101.223141 111.39034 
L 103.052871 110.952188 
L 104.882602 110.539754 
L 106.712332 110.153037 
L 108.542062 109.792036 
L 110.371793 109.456754 
L 112.201523 109.147188 
L 114.031254 108.863339 
L 115.860984 108.605208 
L 117.690714 108.372794 
L 119.520445 108.166097 
L 121.350175 107.985117 
L 123.179906 107.829854 
L 125.009636 107.700309 
L 126.839366 107.59648 
L 128.669097 107.518369 
L 130.498827 107.465975 
L 132.328558 107.439298 
L 134.158288 107.438339 
L 135.988018 107.463096 
L 137.817749 107.513571 
L 139.647479 107.589763 
L 141.47721 107.691672 
L 143.30694 107.819298 
L 145.13667 107.972642 
L 146.966401 108.151703 
L 148.796131 108.35648 
L 150.625862 108.586975 
L 152.455592 108.843188 
L 154.285322 109.125117 
L 156.115053 109.432764 
L 157.944783 109.766127 
L 159.774514 110.125208 
L 161.604244 110.510006 
L 163.433974 110.920522 
L 165.263705 111.356754 
L 167.093435 111.818704 
L 168.923166 112.30637 
L 170.752896 112.819754 
L 172.582626 113.358856 
L 174.412357 113.923674 
L 176.242087 114.514209 
L 178.071818 115.130462 
L 179.901548 115.772432 
L 181.731278 116.440119 
L 183.561009 117.133523 
L 185.390739 117.852645 
L 187.220469 118.597483 
L 189.0502 119.368039 
L 190.87993 120.164312 
L 192.709661 120.986302 
L 194.539391 121.83401 
L 196.369121 122.707434 
L 198.198852 123.606576 
L 200.028582 124.531435 
L 201.858313 125.482011 
L 203.688043 126.458304 
L 205.517773 127.460314 
L 207.347504 128.488042 
L 209.177234 129.541487 
L 211.006965 130.620649 
L 212.836695 131.725528 
L 214.666425 132.856124 
L 216.496156 134.012437 
L 218.325886 135.194468 
L 220.155617 136.402216 
L 221.985347 137.635681 
L 223.815077 138.894863 
L 225.644808 140.179762 
L 227.474538 141.490379 
L 229.304269 142.826713 
L 231.133999 144.188764 
L 232.963729 145.576532 
L 234.79346 146.990017 
L 236.62319 148.429219 
L 238.452921 149.894139 
L 240.282651 151.384776 
L 242.112381 152.90113 
L 243.942112 154.443201 
L 245.771842 156.010989 
L 247.601573 157.604495 
L 249.431303 159.223718 
L 251.261033 160.868657 
" clip-path="url(#p129a651f2b)" style="fill: none; stroke: #426600; stroke-width: 1.1; stroke-linecap: square"/>
   </g>
   <g id="line2d_6">
    <path d="M 70.117724 122.773646 
L 71.947455 121.647865 
L 73.777185 120.547923 
L 75.606915 119.473819 
L 77.436646 118.425553 
L 79.266376 117.403126 
L 81.096107 116.406538 
L 82.925837 115.435789 
L 84.755567 114.490878 
L 86.585298 113.571806 
L 88.415028 112.678572 
L 90.244759 111.811177 
L 92.074489 110.969621 
L 93.904219 110.153903 
L 95.73395 109.364024 
L 97.56368 108.599983 
L 99.393411 107.861781 
L 101.223141 107.149418 
L 103.052871 106.462893 
L 104.882602 105.802207 
L 106.712332 105.167359 
L 108.542062 104.558351 
L 110.371793 103.97518 
L 112.201523 103.417849 
L 114.031254 102.886356 
L 115.860984 102.380701 
L 117.690714 101.900886 
L 119.520445 101.446909 
L 121.350175 101.01877 
L 123.179906 100.61647 
L 125.009636 100.240009 
L 126.839366 99.889386 
L 128.669097 99.564602 
L 130.498827 99.265657 
L 132.328558 98.99255 
L 134.158288 98.745282 
L 135.988018 98.523852 
L 137.817749 98.328261 
L 139.647479 98.158509 
L 141.47721 98.014595 
L 143.30694 97.89652 
L 145.13667 97.804284 
L 146.966401 97.737886 
L 148.796131 97.697327 
L 150.625862 97.682606 
L 152.455592 97.693724 
L 154.285322 97.730681 
L 156.115053 97.793476 
L 157.944783 97.88211 
L 159.774514 97.996583 
L 161.604244 98.136894 
L 163.433974 98.303044 
L 165.263705 98.495032 
L 167.093435 98.712859 
L 168.923166 98.956524 
L 170.752896 99.226029 
L 172.582626 99.521372 
L 174.412357 99.842553 
L 176.242087 100.189573 
L 178.071818 100.562432 
L 179.901548 100.961129 
L 181.731278 101.385665 
L 183.561009 101.83604 
L 185.390739 102.312253 
L 187.220469 102.814305 
L 189.0502 103.342195 
L 190.87993 103.895924 
L 192.709661 104.475492 
L 194.539391 105.080898 
L 196.369121 105.712143 
L 198.198852 106.369226 
L 200.028582 107.052149 
L 201.858313 107.760909 
L 203.688043 108.495509 
L 205.517773 109.255947 
L 207.347504 110.042223 
L 209.177234 110.854338 
L 211.006965 111.692292 
L 212.836695 112.556085 
L 214.666425 113.445716 
L 216.496156 114.361186 
L 218.325886 115.302494 
L 220.155617 116.269641 
L 221.985347 117.262626 
L 223.815077 118.281451 
L 225.644808 119.326113 
L 227.474538 120.396615 
L 229.304269 121.492955 
L 231.133999 122.615134 
L 232.963729 123.763151 
L 234.79346 124.937007 
L 236.62319 126.136701 
L 238.452921 127.362234 
L 240.282651 128.613606 
L 242.112381 129.890817 
L 243.942112 131.193866 
L 245.771842 132.522753 
L 247.601573 133.877479 
L 249.431303 135.258044 
L 251.261033 136.664448 
" clip-path="url(#p129a651f2b)" style="fill: none; stroke: #ff0010; stroke-width: 1.1; stroke-linecap: square"/>
   </g>
   <g id="line2d_7">
    <path d="M 70.117724 122.773646 
L 71.947455 121.377977 
L 73.777185 120.008207 
L 75.606915 118.664335 
L 77.436646 117.346362 
L 79.266376 116.054289 
L 81.096107 114.788114 
L 82.925837 113.547838 
L 84.755567 112.333461 
L 86.585298 111.144982 
L 88.415028 109.982403 
L 90.244759 108.845722 
L 92.074489 107.734941 
L 93.904219 106.650058 
L 95.73395 105.591074 
L 97.56368 104.557989 
L 99.393411 103.550803 
L 101.223141 102.569516 
L 103.052871 101.614128 
L 104.882602 100.684638 
L 106.712332 99.781048 
L 108.542062 98.903356 
L 110.371793 98.051563 
L 112.201523 97.225669 
L 114.031254 96.425674 
L 115.860984 95.651578 
L 117.690714 94.903381 
L 119.520445 94.181082 
L 121.350175 93.484683 
L 123.179906 92.814182 
L 125.009636 92.16958 
L 126.839366 91.550878 
L 128.669097 90.958074 
L 130.498827 90.391168 
L 132.328558 89.850162 
L 134.158288 89.335055 
L 135.988018 88.845846 
L 137.817749 88.382537 
L 139.647479 87.945126 
L 141.47721 87.533614 
L 143.30694 87.148001 
L 145.13667 86.788287 
L 146.966401 86.454472 
L 148.796131 86.146556 
L 150.625862 85.864538 
L 152.455592 85.60842 
L 154.285322 85.3782 
L 156.115053 85.17388 
L 157.944783 84.995458 
L 159.774514 84.842935 
L 161.604244 84.716311 
L 163.433974 84.615585 
L 165.263705 84.540759 
L 167.093435 84.491831 
L 168.923166 84.468803 
L 170.752896 84.471673 
L 172.582626 84.500442 
L 174.412357 84.55511 
L 176.242087 84.635677 
L 178.071818 84.742143 
L 179.901548 84.874508 
L 181.731278 85.032771 
L 183.561009 85.216934 
L 185.390739 85.426995 
L 187.220469 85.662955 
L 189.0502 85.924814 
L 190.87993 86.212572 
L 192.709661 86.526229 
L 194.539391 86.865785 
L 196.369121 87.23124 
L 198.198852 87.622593 
L 200.028582 88.039846 
L 201.858313 88.482997 
L 203.688043 88.952047 
L 205.517773 89.446996 
L 207.347504 89.967844 
L 209.177234 90.514591 
L 211.006965 91.087236 
L 212.836695 91.685781 
L 214.666425 92.310224 
L 216.496156 92.960567 
L 218.325886 93.636808 
L 220.155617 94.338948 
L 221.985347 95.066987 
L 223.815077 95.820925 
L 225.644808 96.600761 
L 227.474538 97.406497 
L 229.304269 98.238132 
L 231.133999 99.095665 
L 232.963729 99.979097 
L 234.79346 100.888428 
L 236.62319 101.823658 
L 238.452921 102.784787 
L 240.282651 103.771815 
L 242.112381 104.784742 
L 243.942112 105.823567 
L 245.771842 106.888292 
L 247.601573 107.978915 
L 249.431303 109.095437 
L 251.261033 110.237858 
" clip-path="url(#p129a651f2b)" style="fill: none; stroke: #9dcc00; stroke-width: 1.1; stroke-linecap: square"/>
   </g>
   <g id="line2d_8">
    <path d="M 70.117724 122.773646 
L 71.947455 121.092075 
L 73.777185 119.436507 
L 75.606915 117.806942 
L 77.436646 116.20338 
L 79.266376 114.625821 
L 81.096107 113.074266 
L 82.925837 111.548714 
L 84.755567 110.049165 
L 86.585298 108.575619 
L 88.415028 107.128076 
L 90.244759 105.706536 
L 92.074489 104.311 
L 93.904219 102.941467 
L 95.73395 101.597937 
L 97.56368 100.28041 
L 99.393411 98.988887 
L 101.223141 97.723367 
L 103.052871 96.483849 
L 104.882602 95.270335 
L 106.712332 94.082825 
L 108.542062 92.921317 
L 110.371793 91.785813 
L 112.201523 90.676312 
L 114.031254 89.592814 
L 115.860984 88.535319 
L 117.690714 87.503827 
L 119.520445 86.498339 
L 121.350175 85.518853 
L 123.179906 84.565371 
L 125.009636 83.637893 
L 126.839366 82.736417 
L 128.669097 81.860944 
L 130.498827 81.011475 
L 132.328558 80.188009 
L 134.158288 79.390546 
L 135.988018 78.619087 
L 137.817749 77.87363 
L 139.647479 77.154177 
L 141.47721 76.460727 
L 143.30694 75.79328 
L 145.13667 75.151836 
L 146.966401 74.536395 
L 148.796131 73.946958 
L 150.625862 73.383524 
L 152.455592 72.846093 
L 154.285322 72.334665 
L 156.115053 71.84924 
L 157.944783 71.389819 
L 159.774514 70.956401 
L 161.604244 70.548986 
L 163.433974 70.167574 
L 165.263705 69.812165 
L 167.093435 69.48276 
L 168.923166 69.179358 
L 170.752896 68.901959 
L 172.582626 68.650563 
L 174.412357 68.42517 
L 176.242087 68.225781 
L 178.071818 68.052394 
L 179.901548 67.905011 
L 181.731278 67.783631 
L 183.561009 67.688255 
L 185.390739 67.618881 
L 187.220469 67.575511 
L 189.0502 67.558144 
L 190.87993 67.56678 
L 192.709661 67.601419 
L 194.539391 67.662061 
L 196.369121 67.748707 
L 198.198852 67.861356 
L 200.028582 68.000008 
L 201.858313 68.164663 
L 203.688043 68.355321 
L 205.517773 68.571983 
L 207.347504 68.814648 
L 209.177234 69.083316 
L 211.006965 69.377987 
L 212.836695 69.698661 
L 214.666425 70.045339 
L 216.496156 70.418019 
L 218.325886 70.816703 
L 220.155617 71.24139 
L 221.985347 71.692081 
L 223.815077 72.168774 
L 225.644808 72.671471 
L 227.474538 73.200171 
L 229.304269 73.754874 
L 231.133999 74.33558 
L 232.963729 74.94229 
L 234.79346 75.575002 
L 236.62319 76.233718 
L 238.452921 76.918437 
L 240.282651 77.629159 
L 242.112381 78.365885 
L 243.942112 79.128613 
L 245.771842 79.917345 
L 247.601573 80.73208 
L 249.431303 81.572818 
L 251.261033 82.43956 
" clip-path="url(#p129a651f2b)" style="fill: none; stroke: #c20088; stroke-width: 1.1; stroke-linecap: square"/>
   </g>
   <g id="line2d_9">
    <path d="M 70.117724 122.773646 
L 71.947455 120.79416 
L 73.777185 118.840872 
L 75.606915 116.913781 
L 77.436646 115.012887 
L 79.266376 113.138191 
L 81.096107 111.289692 
L 82.925837 109.467391 
L 84.755567 107.671288 
L 86.585298 105.901382 
L 88.415028 104.157674 
L 90.244759 102.440163 
L 92.074489 100.74885 
L 93.904219 99.083734 
L 95.73395 97.444816 
L 97.56368 95.832095 
L 99.393411 94.245572 
L 101.223141 92.685246 
L 103.052871 91.151118 
L 104.882602 89.643188 
L 106.712332 88.161455 
L 108.542062 86.705919 
L 110.371793 85.276581 
L 112.201523 83.873441 
L 114.031254 82.496498 
L 115.860984 81.145753 
L 117.690714 79.821205 
L 119.520445 78.522855 
L 121.350175 77.250702 
L 123.179906 76.004747 
L 125.009636 74.784989 
L 126.839366 73.591429 
L 128.669097 72.424067 
L 130.498827 71.282902 
L 132.328558 70.167934 
L 134.158288 69.079164 
L 135.988018 68.016592 
L 137.817749 66.980217 
L 139.647479 65.97004 
L 141.47721 64.98606 
L 143.30694 64.028278 
L 145.13667 63.096693 
L 146.966401 62.191306 
L 148.796131 61.312116 
L 150.625862 60.459124 
L 152.455592 59.632329 
L 154.285322 58.831732 
L 156.115053 58.057333 
L 157.944783 57.309131 
L 159.774514 56.587126 
L 161.604244 55.891319 
L 163.433974 55.22171 
L 165.263705 54.578298 
L 167.093435 53.961084 
L 168.923166 53.370067 
L 170.752896 52.805248 
L 172.582626 52.266626 
L 174.412357 51.754202 
L 176.242087 51.267975 
L 178.071818 50.807946 
L 179.901548 50.374115 
L 181.731278 49.966481 
L 183.561009 49.585044 
L 185.390739 49.229805 
L 187.220469 48.900764 
L 189.0502 48.59792 
L 190.87993 48.321274 
L 192.709661 48.070825 
L 194.539391 47.846573 
L 196.369121 47.64852 
L 198.198852 47.476664 
L 200.028582 47.331005 
L 201.858313 47.211544 
L 203.688043 47.11828 
L 205.517773 47.051214 
L 207.347504 47.010346 
L 209.177234 46.995675 
L 211.006965 47.007201 
L 212.836695 47.044925 
L 214.666425 47.108847 
L 216.496156 47.198966 
L 218.325886 47.315283 
L 220.155617 47.457797 
L 221.985347 47.626509 
L 223.815077 47.821418 
L 225.644808 48.042525 
L 227.474538 48.289829 
L 229.304269 48.563331 
L 231.133999 48.863031 
L 232.963729 49.188928 
L 234.79346 49.541022 
L 236.62319 49.919314 
L 238.452921 50.323804 
L 240.282651 50.754491 
L 242.112381 51.211376 
L 243.942112 51.694458 
L 245.771842 52.203737 
L 247.601573 52.739215 
L 249.431303 53.30089 
L 251.261033 53.888762 
" clip-path="url(#p129a651f2b)" style="fill: none; stroke: #003380; stroke-width: 1.1; stroke-linecap: square"/>
   </g>
   <g id="line2d_10">
    <path d="M 70.117724 122.773646 
L 71.947455 120.489221 
L 73.777185 118.231263 
L 75.606915 115.999773 
L 77.436646 113.794751 
L 79.266376 111.616197 
L 81.096107 109.464111 
L 82.925837 107.338492 
L 84.755567 105.239342 
L 86.585298 103.16666 
L 88.415028 101.120445 
L 90.244759 99.100699 
L 92.074489 97.10742 
L 93.904219 95.140609 
L 95.73395 93.200266 
L 97.56368 91.286391 
L 99.393411 89.398984 
L 101.223141 87.538045 
L 103.052871 85.703574 
L 104.882602 83.895571 
L 106.712332 82.114036 
L 108.542062 80.358968 
L 110.371793 78.630369 
L 112.201523 76.928237 
L 114.031254 75.252574 
L 115.860984 73.603378 
L 117.690714 71.98065 
L 119.520445 70.38439 
L 121.350175 68.814598 
L 123.179906 67.271274 
L 125.009636 65.754418 
L 126.839366 64.26403 
L 128.669097 62.800109 
L 130.498827 61.362657 
L 132.328558 59.951673 
L 134.158288 58.567156 
L 135.988018 57.209107 
L 137.817749 55.877527 
L 139.647479 54.572414 
L 141.47721 53.293769 
L 143.30694 52.041592 
L 145.13667 50.815883 
L 146.966401 49.616642 
L 148.796131 48.443869 
L 150.625862 47.297563 
L 152.455592 46.177726 
L 154.285322 45.084356 
L 156.115053 44.017455 
L 157.944783 42.977021 
L 159.774514 41.963056 
L 161.604244 40.975558 
L 163.433974 40.014528 
L 165.263705 39.079966 
L 167.093435 38.171872 
L 168.923166 37.290246 
L 170.752896 36.435088 
L 172.582626 35.606397 
L 174.412357 34.804175 
L 176.242087 34.02842 
L 178.071818 33.279134 
L 179.901548 32.556315 
L 181.731278 31.859965 
L 183.561009 31.190082 
L 185.390739 30.546667 
L 187.220469 29.92972 
L 189.0502 29.339241 
L 190.87993 28.77523 
L 192.709661 28.237687 
L 194.539391 27.726611 
L 196.369121 27.242004 
L 198.198852 26.783864 
L 200.028582 26.352193 
L 201.858313 25.946989 
L 203.688043 25.568254 
L 205.517773 25.215986 
L 207.347504 24.890186 
L 209.177234 24.590854 
L 211.006965 24.31799 
L 212.836695 24.071594 
L 214.666425 23.851666 
L 216.496156 23.658205 
L 218.325886 23.491213 
L 220.155617 23.350689 
L 221.985347 23.236632 
L 223.815077 23.149044 
L 225.644808 23.087923 
L 227.474538 23.05327 
L 229.304269 23.045085 
L 231.133999 23.063368 
L 232.963729 23.108119 
L 234.79346 23.179338 
L 236.62319 23.277025 
L 238.452921 23.40118 
L 240.282651 23.551802 
L 242.112381 23.728893 
L 243.942112 23.932452 
L 245.771842 24.162478 
L 247.601573 24.418972 
L 249.431303 24.701935 
L 251.261033 25.011365 
" clip-path="url(#p129a651f2b)" style="fill: none; stroke: #ffa405; stroke-width: 1.1; stroke-linecap: square"/>
   </g>
   <g id="patch_3">
    <path d="M 61.060559 246.161281 
L 61.060559 12.42 
" style="fill: none; stroke: #000000; stroke-width: 0.8; stroke-linejoin: miter; stroke-linecap: square"/>
   </g>
   <g id="patch_4">
    <path d="M 260.318199 246.161281 
L 260.318199 12.42 
" style="fill: none; stroke: #000000; stroke-width: 0.8; stroke-linejoin: miter; stroke-linecap: square"/>
   </g>
   <g id="patch_5">
    <path d="M 61.060559 246.161281 
L 260.318199 246.161281 
" style="fill: none; stroke: #000000; stroke-width: 0.8; stroke-linejoin: miter; stroke-linecap: square"/>
   </g>
   <g id="patch_6">
    <path d="M 61.060559 12.42 
L 260.318199 12.42 
" style="fill: none; stroke: #000000; stroke-width: 0.8; stroke-linejoin: miter; stroke-linecap: square"/>
   </g>
   <g id="matplotlib.axis_1">
    <g id="xtick_1">
     <g id="line2d_11">
      <path d="M 70.117724 246.161281 
L 70.117724 12.42 
" clip-path="url(#p129a651f2b)" style="fill: none; stroke-dasharray: 1.85,0.8; stroke-dashoffset: 0; stroke: #000000; stroke-width: 0.5"/>
     </g>
     <g id="line2d_12">
      <defs>
       <path id="m526133130b" d="M 0 0 
L 0 -3.5 
" style="stroke: #000000; stroke-width: 0.8"/>
      </defs>
      <g>
       <use xlink:href="#m526133130b" x="70.117724" y="246.161281" style="stroke: #000000; stroke-width: 0.8"/>
      </g>
     </g>
     <g id="text_1">
      <!-- $\mathdefault{0.0}$ -->
      <g transform="translate(62.797937 258.32435) scale(0.115 -0.115)">
       <defs>
        <path id="CMR17-30" d="M 2688 2038 
C 2688 2430 2682 3099 2413 3613 
C 2176 4063 1798 4224 1466 4224 
C 1158 4224 768 4082 525 3620 
C 269 3137 243 2539 243 2038 
C 243 1671 250 1112 448 623 
C 723 -39 1216 -128 1466 -128 
C 1760 -128 2208 -7 2470 604 
C 2662 1048 2688 1568 2688 2038 
z
M 1466 -26 
C 1056 -26 813 328 723 816 
C 653 1196 653 1749 653 2109 
C 653 2604 653 3015 736 3407 
C 858 3954 1216 4121 1466 4121 
C 1728 4121 2067 3947 2189 3420 
C 2272 3054 2278 2623 2278 2109 
C 2278 1691 2278 1176 2202 797 
C 2067 96 1690 -26 1466 -26 
z
" transform="scale(0.015625)"/>
        <path id="CMMI12-3a" d="M 1178 307 
C 1178 492 1024 620 870 620 
C 685 620 557 467 557 313 
C 557 128 710 0 864 0 
C 1050 0 1178 153 1178 307 
z
" transform="scale(0.015625)"/>
       </defs>
       <use xlink:href="#CMR17-30" transform="scale(0.996264)"/>
       <use xlink:href="#CMMI12-3a" transform="translate(45.690477 0) scale(0.996264)"/>
       <use xlink:href="#CMR17-30" transform="translate(72.787654 0) scale(0.996264)"/>
      </g>
     </g>
    </g>
    <g id="xtick_2">
     <g id="line2d_13">
      <path d="M 114.729345 246.161281 
L 114.729345 12.42 
" clip-path="url(#p129a651f2b)" style="fill: none; stroke-dasharray: 1.85,0.8; stroke-dashoffset: 0; stroke: #000000; stroke-width: 0.5"/>
     </g>
     <g id="line2d_14">
      <g>
       <use xlink:href="#m526133130b" x="114.729345" y="246.161281" style="stroke: #000000; stroke-width: 0.8"/>
      </g>
     </g>
     <g id="text_2">
      <!-- $\mathdefault{0.1}$ -->
      <g transform="translate(107.409558 258.32435) scale(0.115 -0.115)">
       <defs>
        <path id="CMR17-31" d="M 1702 4083 
C 1702 4217 1696 4224 1606 4224 
C 1357 3927 979 3833 621 3820 
C 602 3820 570 3820 563 3808 
C 557 3795 557 3782 557 3648 
C 755 3648 1088 3686 1344 3839 
L 1344 467 
C 1344 243 1331 166 781 166 
L 589 166 
L 589 0 
C 896 6 1216 12 1523 12 
C 1830 12 2150 6 2458 0 
L 2458 166 
L 2266 166 
C 1715 166 1702 236 1702 467 
L 1702 4083 
z
" transform="scale(0.015625)"/>
       </defs>
       <use xlink:href="#CMR17-30" transform="scale(0.996264)"/>
       <use xlink:href="#CMMI12-3a" transform="translate(45.690477 0) scale(0.996264)"/>
       <use xlink:href="#CMR17-31" transform="translate(72.787654 0) scale(0.996264)"/>
      </g>
     </g>
    </g>
    <g id="xtick_3">
     <g id="line2d_15">
      <path d="M 159.340966 246.161281 
L 159.340966 12.42 
" clip-path="url(#p129a651f2b)" style="fill: none; stroke-dasharray: 1.85,0.8; stroke-dashoffset: 0; stroke: #000000; stroke-width: 0.5"/>
     </g>
     <g id="line2d_16">
      <g>
       <use xlink:href="#m526133130b" x="159.340966" y="246.161281" style="stroke: #000000; stroke-width: 0.8"/>
      </g>
     </g>
     <g id="text_3">
      <!-- $\mathdefault{0.2}$ -->
      <g transform="translate(152.021178 258.32435) scale(0.115 -0.115)">
       <defs>
        <path id="CMR17-32" d="M 2669 990 
L 2554 990 
C 2490 537 2438 460 2413 422 
C 2381 371 1920 371 1830 371 
L 602 371 
C 832 620 1280 1073 1824 1596 
C 2214 1966 2669 2400 2669 3033 
C 2669 3788 2067 4224 1395 4224 
C 691 4224 262 3603 262 3027 
C 262 2777 448 2745 525 2745 
C 589 2745 781 2783 781 3007 
C 781 3206 614 3264 525 3264 
C 486 3264 448 3257 422 3244 
C 544 3788 915 4057 1306 4057 
C 1862 4057 2227 3616 2227 3033 
C 2227 2477 1901 1998 1536 1583 
L 262 147 
L 262 0 
L 2515 0 
L 2669 990 
z
" transform="scale(0.015625)"/>
       </defs>
       <use xlink:href="#CMR17-30" transform="scale(0.996264)"/>
       <use xlink:href="#CMMI12-3a" transform="translate(45.690477 0) scale(0.996264)"/>
       <use xlink:href="#CMR17-32" transform="translate(72.787654 0) scale(0.996264)"/>
      </g>
     </g>
    </g>
    <g id="xtick_4">
     <g id="line2d_17">
      <path d="M 203.952587 246.161281 
L 203.952587 12.42 
" clip-path="url(#p129a651f2b)" style="fill: none; stroke-dasharray: 1.85,0.8; stroke-dashoffset: 0; stroke: #000000; stroke-width: 0.5"/>
     </g>
     <g id="line2d_18">
      <g>
       <use xlink:href="#m526133130b" x="203.952587" y="246.161281" style="stroke: #000000; stroke-width: 0.8"/>
      </g>
     </g>
     <g id="text_4">
      <!-- $\mathdefault{0.3}$ -->
      <g transform="translate(196.632799 258.32435) scale(0.115 -0.115)">
       <defs>
        <path id="CMR17-33" d="M 1414 2176 
C 1984 2176 2234 1673 2234 1094 
C 2234 322 1824 25 1453 25 
C 1114 25 563 193 390 691 
C 422 678 454 678 486 678 
C 640 678 755 780 755 947 
C 755 1132 614 1216 486 1216 
C 378 1216 211 1164 211 927 
C 211 335 787 -128 1466 -128 
C 2176 -128 2720 432 2720 1087 
C 2720 1718 2208 2176 1600 2246 
C 2086 2347 2554 2776 2554 3353 
C 2554 3856 2048 4224 1472 4224 
C 890 4224 378 3862 378 3347 
C 378 3123 544 3084 627 3084 
C 762 3084 877 3167 877 3334 
C 877 3500 762 3584 627 3584 
C 602 3584 570 3584 544 3571 
C 730 3999 1235 4076 1459 4076 
C 1683 4076 2106 3966 2106 3347 
C 2106 3167 2080 2851 1862 2574 
C 1670 2329 1453 2316 1242 2297 
C 1210 2297 1062 2284 1037 2284 
C 992 2278 966 2272 966 2227 
C 966 2182 973 2176 1101 2176 
L 1414 2176 
z
" transform="scale(0.015625)"/>
       </defs>
       <use xlink:href="#CMR17-30" transform="scale(0.996264)"/>
       <use xlink:href="#CMMI12-3a" transform="translate(45.690477 0) scale(0.996264)"/>
       <use xlink:href="#CMR17-33" transform="translate(72.787654 0) scale(0.996264)"/>
      </g>
     </g>
    </g>
    <g id="xtick_5">
     <g id="line2d_19">
      <path d="M 248.564207 246.161281 
L 248.564207 12.42 
" clip-path="url(#p129a651f2b)" style="fill: none; stroke-dasharray: 1.85,0.8; stroke-dashoffset: 0; stroke: #000000; stroke-width: 0.5"/>
     </g>
     <g id="line2d_20">
      <g>
       <use xlink:href="#m526133130b" x="248.564207" y="246.161281" style="stroke: #000000; stroke-width: 0.8"/>
      </g>
     </g>
     <g id="text_5">
      <!-- $\mathdefault{0.4}$ -->
      <g transform="translate(241.24442 258.32435) scale(0.115 -0.115)">
       <defs>
        <path id="CMR17-34" d="M 2150 4147 
C 2150 4281 2144 4288 2029 4288 
L 128 1254 
L 128 1088 
L 1779 1088 
L 1779 460 
C 1779 230 1766 166 1318 166 
L 1197 166 
L 1197 0 
C 1402 12 1747 12 1965 12 
C 2182 12 2528 12 2733 0 
L 2733 166 
L 2611 166 
C 2163 166 2150 230 2150 460 
L 2150 1088 
L 2803 1088 
L 2803 1254 
L 2150 1254 
L 2150 4147 
z
M 1798 3723 
L 1798 1254 
L 256 1254 
L 1798 3723 
z
" transform="scale(0.015625)"/>
       </defs>
       <use xlink:href="#CMR17-30" transform="scale(0.996264)"/>
       <use xlink:href="#CMMI12-3a" transform="translate(45.690477 0) scale(0.996264)"/>
       <use xlink:href="#CMR17-34" transform="translate(72.787654 0) scale(0.996264)"/>
      </g>
     </g>
    </g>
    <g id="text_6">
     <!-- Current (A) -->
     <g transform="translate(132.362248 273.139719) scale(0.115 -0.115)">
      <defs>
       <path id="NimbusSanL-Regu-43" d="M 4237 3219 
C 4051 4236 3462 4736 2438 4736 
C 1811 4736 1306 4537 960 4154 
C 538 3696 307 3035 307 2284 
C 307 1522 544 867 986 415 
C 1344 44 1805 -128 2413 -128 
C 3552 -128 4192 485 4333 1712 
L 3718 1712 
C 3667 1394 3603 1178 3507 994 
C 3315 612 2918 396 2419 396 
C 1491 396 902 1134 902 2291 
C 902 3480 1466 4211 2368 4211 
C 2746 4211 3098 4096 3290 3918 
C 3462 3759 3558 3562 3629 3219 
L 4237 3219 
z
" transform="scale(0.015625)"/>
       <path id="NimbusSanL-Regu-75" d="M 3085 19 
L 3085 3328 
L 2554 3328 
L 2554 1454 
C 2554 780 2195 339 1638 339 
C 1216 339 947 591 947 988 
L 947 3328 
L 416 3328 
L 416 780 
C 416 230 832 -128 1485 -128 
C 1978 -128 2291 44 2605 484 
L 2605 19 
L 3085 19 
z
" transform="scale(0.015625)"/>
       <path id="NimbusSanL-Regu-72" d="M 442 3328 
L 442 0 
L 979 0 
L 979 1727 
C 979 2203 1101 2514 1357 2698 
C 1523 2819 1683 2857 2054 2863 
L 2054 3404 
C 1965 3449 1920 3456 1850 3456 
C 1504 3456 1242 3251 934 2750 
L 934 3328 
L 442 3328 
z
" transform="scale(0.015625)"/>
       <path id="NimbusSanL-Regu-65" d="M 3283 1484 
C 3283 1998 3245 2311 3149 2565 
C 2931 3123 2419 3456 1792 3456 
C 858 3456 256 2734 256 1619 
C 256 545 838 -128 1779 -128 
C 2547 -128 3078 307 3213 1018 
L 2675 1018 
C 2528 588 2227 364 1798 364 
C 1459 364 1171 514 992 787 
C 864 974 819 1161 813 1484 
L 3283 1484 
z
M 826 1920 
C 870 2552 1248 2963 1786 2963 
C 2310 2963 2714 2519 2714 1959 
C 2714 1946 2714 1933 2707 1920 
L 826 1920 
z
" transform="scale(0.015625)"/>
       <path id="NimbusSanL-Regu-6e" d="M 448 3328 
L 448 0 
L 986 0 
L 986 1835 
C 986 2539 1344 2988 1894 2988 
C 2317 2988 2586 2732 2586 2328 
L 2586 0 
L 3117 0 
L 3117 2539 
C 3117 3097 2701 3456 2054 3456 
C 1555 3456 1235 3263 941 2796 
L 941 3328 
L 448 3328 
z
" transform="scale(0.015625)"/>
       <path id="NimbusSanL-Regu-74" d="M 1626 3328 
L 1075 3328 
L 1075 4249 
L 544 4249 
L 544 3328 
L 90 3328 
L 90 2892 
L 544 2892 
L 544 402 
C 544 64 774 -128 1190 -128 
C 1318 -128 1446 -116 1626 -84 
L 1626 364 
C 1555 345 1472 339 1370 339 
C 1139 339 1075 402 1075 634 
L 1075 2892 
L 1626 2892 
L 1626 3328 
z
" transform="scale(0.015625)"/>
       <path id="NimbusSanL-Regu-28" d="M 1510 4672 
C 870 3833 467 2668 467 1663 
C 467 652 870 -513 1510 -1351 
L 1862 -1351 
C 1299 -436 986 639 986 1663 
C 986 2681 1299 3763 1862 4672 
L 1510 4672 
z
" transform="scale(0.015625)"/>
       <path id="NimbusSanL-Regu-41" d="M 3034 1408 
L 3514 0 
L 4179 0 
L 2541 4672 
L 1773 4672 
L 109 0 
L 742 0 
L 1235 1408 
L 3034 1408 
z
M 2867 1907 
L 1382 1907 
L 2150 4032 
L 2867 1907 
z
" transform="scale(0.015625)"/>
       <path id="NimbusSanL-Regu-29" d="M 595 -1351 
C 1235 -513 1638 652 1638 1657 
C 1638 2668 1235 3833 595 4672 
L 243 4672 
C 806 3756 1120 2681 1120 1657 
C 1120 639 806 -442 243 -1351 
L 595 -1351 
z
" transform="scale(0.015625)"/>
      </defs>
      <use xlink:href="#NimbusSanL-Regu-43" transform="scale(0.996264)"/>
      <use xlink:href="#NimbusSanL-Regu-75" transform="translate(71.929985 0) scale(0.996264)"/>
      <use xlink:href="#NimbusSanL-Regu-72" transform="translate(127.321662 0) scale(0.996264)"/>
      <use xlink:href="#NimbusSanL-Regu-72" transform="translate(160.496892 0) scale(0.996264)"/>
      <use xlink:href="#NimbusSanL-Regu-65" transform="translate(193.672121 0) scale(0.996264)"/>
      <use xlink:href="#NimbusSanL-Regu-6e" transform="translate(249.063798 0) scale(0.996264)"/>
      <use xlink:href="#NimbusSanL-Regu-74" transform="translate(304.455475 0) scale(0.996264)"/>
      <use xlink:href="#NimbusSanL-Regu-28" transform="translate(359.845814 0) scale(0.996264)"/>
      <use xlink:href="#NimbusSanL-Regu-41" transform="translate(393.021044 0) scale(0.996264)"/>
      <use xlink:href="#NimbusSanL-Regu-29" transform="translate(459.471075 0) scale(0.996264)"/>
     </g>
    </g>
   </g>
   <g id="matplotlib.axis_2">
    <g id="ytick_1">
     <g id="line2d_21">
      <path d="M 61.060559 219.225945 
L 260.318199 219.225945 
" clip-path="url(#p129a651f2b)" style="fill: none; stroke-dasharray: 1.85,0.8; stroke-dashoffset: 0; stroke: #000000; stroke-width: 0.5"/>
     </g>
     <g id="line2d_22">
      <defs>
       <path id="md47e169101" d="M 0 0 
L 3.5 0 
" style="stroke: #000000; stroke-width: 0.8"/>
      </defs>
      <g>
       <use xlink:href="#md47e169101" x="61.060559" y="219.225945" style="stroke: #000000; stroke-width: 0.8"/>
      </g>
     </g>
     <g id="text_7">
      <!-- $\mathdefault{−2000}$ -->
      <g transform="translate(27.235369 223.307479) scale(0.115 -0.115)">
       <defs>
        <path id="CMSY10-0" d="M 4218 1472 
C 4326 1472 4442 1472 4442 1600 
C 4442 1728 4326 1728 4218 1728 
L 755 1728 
C 646 1728 531 1728 531 1600 
C 531 1472 646 1472 755 1472 
L 4218 1472 
z
" transform="scale(0.015625)"/>
       </defs>
       <use xlink:href="#CMSY10-0" transform="scale(0.996264)"/>
       <use xlink:href="#CMR17-32" transform="translate(77.487468 0) scale(0.996264)"/>
       <use xlink:href="#CMR17-30" transform="translate(123.177945 0) scale(0.996264)"/>
       <use xlink:href="#CMR17-30" transform="translate(168.868422 0) scale(0.996264)"/>
       <use xlink:href="#CMR17-30" transform="translate(214.558899 0) scale(0.996264)"/>
      </g>
     </g>
    </g>
    <g id="ytick_2">
     <g id="line2d_23">
      <path d="M 61.060559 170.999796 
L 260.318199 170.999796 
" clip-path="url(#p129a651f2b)" style="fill: none; stroke-dasharray: 1.85,0.8; stroke-dashoffset: 0; stroke: #000000; stroke-width: 0.5"/>
     </g>
     <g id="line2d_24">
      <g>
       <use xlink:href="#md47e169101" x="61.060559" y="170.999796" style="stroke: #000000; stroke-width: 0.8"/>
      </g>
     </g>
     <g id="text_8">
      <!-- $\mathdefault{−1000}$ -->
      <g transform="translate(27.235369 175.08133) scale(0.115 -0.115)">
       <use xlink:href="#CMSY10-0" transform="scale(0.996264)"/>
       <use xlink:href="#CMR17-31" transform="translate(77.487468 0) scale(0.996264)"/>
       <use xlink:href="#CMR17-30" transform="translate(123.177945 0) scale(0.996264)"/>
       <use xlink:href="#CMR17-30" transform="translate(168.868422 0) scale(0.996264)"/>
       <use xlink:href="#CMR17-30" transform="translate(214.558899 0) scale(0.996264)"/>
      </g>
     </g>
    </g>
    <g id="ytick_3">
     <g id="line2d_25">
      <path d="M 61.060559 122.773646 
L 260.318199 122.773646 
" clip-path="url(#p129a651f2b)" style="fill: none; stroke-dasharray: 1.85,0.8; stroke-dashoffset: 0; stroke: #000000; stroke-width: 0.5"/>
     </g>
     <g id="line2d_26">
      <g>
       <use xlink:href="#md47e169101" x="61.060559" y="122.773646" style="stroke: #000000; stroke-width: 0.8"/>
      </g>
     </g>
     <g id="text_9">
      <!-- $\mathdefault{0}$ -->
      <g transform="translate(53.332025 126.855181) scale(0.115 -0.115)">
       <use xlink:href="#CMR17-30" transform="scale(0.996264)"/>
      </g>
     </g>
    </g>
    <g id="ytick_4">
     <g id="line2d_27">
      <path d="M 61.060559 74.547497 
L 260.318199 74.547497 
" clip-path="url(#p129a651f2b)" style="fill: none; stroke-dasharray: 1.85,0.8; stroke-dashoffset: 0; stroke: #000000; stroke-width: 0.5"/>
     </g>
     <g id="line2d_28">
      <g>
       <use xlink:href="#md47e169101" x="61.060559" y="74.547497" style="stroke: #000000; stroke-width: 0.8"/>
      </g>
     </g>
     <g id="text_10">
      <!-- $\mathdefault{1000}$ -->
      <g transform="translate(36.146426 78.629031) scale(0.115 -0.115)">
       <use xlink:href="#CMR17-31" transform="scale(0.996264)"/>
       <use xlink:href="#CMR17-30" transform="translate(45.690477 0) scale(0.996264)"/>
       <use xlink:href="#CMR17-30" transform="translate(91.380954 0) scale(0.996264)"/>
       <use xlink:href="#CMR17-30" transform="translate(137.071431 0) scale(0.996264)"/>
      </g>
     </g>
    </g>
    <g id="ytick_5">
     <g id="line2d_29">
      <path d="M 61.060559 26.321348 
L 260.318199 26.321348 
" clip-path="url(#p129a651f2b)" style="fill: none; stroke-dasharray: 1.85,0.8; stroke-dashoffset: 0; stroke: #000000; stroke-width: 0.5"/>
     </g>
     <g id="line2d_30">
      <g>
       <use xlink:href="#md47e169101" x="61.060559" y="26.321348" style="stroke: #000000; stroke-width: 0.8"/>
      </g>
     </g>
     <g id="text_11">
      <!-- $\mathdefault{2000}$ -->
      <g transform="translate(36.146426 30.402882) scale(0.115 -0.115)">
       <use xlink:href="#CMR17-32" transform="scale(0.996264)"/>
       <use xlink:href="#CMR17-30" transform="translate(45.690477 0) scale(0.996264)"/>
       <use xlink:href="#CMR17-30" transform="translate(91.380954 0) scale(0.996264)"/>
       <use xlink:href="#CMR17-30" transform="translate(137.071431 0) scale(0.996264)"/>
      </g>
     </g>
    </g>
    <g id="text_12">
     <!-- Power ($\mu$W) -->
     <g transform="translate(20.795088 159.362518) rotate(-90) scale(0.115 -0.115)">
      <defs>
       <path id="NimbusSanL-Regu-50" d="M 1178 1984 
L 2643 1984 
C 3008 1984 3296 2092 3546 2316 
C 3827 2572 3949 2873 3949 3302 
C 3949 4179 3430 4672 2509 4672 
L 582 4672 
L 582 0 
L 1178 0 
L 1178 1984 
z
M 1178 2508 
L 1178 4147 
L 2419 4147 
C 2989 4147 3328 3839 3328 3327 
C 3328 2816 2989 2508 2419 2508 
L 1178 2508 
z
" transform="scale(0.015625)"/>
       <path id="NimbusSanL-Regu-6f" d="M 1741 3456 
C 800 3456 230 2784 230 1663 
C 230 543 794 -128 1747 -128 
C 2688 -128 3264 543 3264 1638 
C 3264 2791 2707 3456 1741 3456 
z
M 1747 2963 
C 2349 2963 2707 2472 2707 1644 
C 2707 861 2336 364 1747 364 
C 1152 364 787 855 787 1663 
C 787 2466 1152 2963 1747 2963 
z
" transform="scale(0.015625)"/>
       <path id="NimbusSanL-Regu-77" d="M 3546 0 
L 4531 3328 
L 3930 3328 
L 3264 737 
L 2605 3328 
L 1952 3328 
L 1312 737 
L 627 3328 
L 38 3328 
L 1011 0 
L 1613 0 
L 2259 2609 
L 2938 0 
L 3546 0 
z
" transform="scale(0.015625)"/>
       <path id="CMMI12-16" d="M 922 140 
C 1082 -7 1318 -64 1536 -64 
C 1946 -64 2227 210 2374 408 
C 2438 70 2707 -64 2931 -64 
C 3123 -64 3277 51 3392 281 
C 3494 498 3584 887 3584 913 
C 3584 944 3558 970 3520 970 
C 3462 970 3456 938 3430 842 
C 3334 466 3213 64 2950 64 
C 2765 64 2752 229 2752 357 
C 2752 504 2810 734 2854 925 
L 3034 1615 
C 3059 1736 3130 2023 3162 2138 
C 3200 2291 3270 2566 3270 2591 
C 3270 2687 3194 2752 3098 2752 
C 3040 2752 2906 2726 2854 2534 
L 2406 759 
C 2374 632 2374 619 2291 517 
C 2214 408 1965 64 1562 64 
C 1203 64 1088 325 1088 625 
C 1088 811 1146 1034 1171 1143 
L 1459 2292 
C 1491 2413 1542 2617 1542 2656 
C 1542 2758 1459 2816 1376 2816 
C 1318 2816 1178 2796 1126 2592 
L 198 -1085 
C 192 -1116 179 -1154 179 -1191 
C 179 -1287 256 -1351 352 -1351 
C 538 -1351 576 -1204 621 -1029 
L 922 140 
z
" transform="scale(0.015625)"/>
       <path id="NimbusSanL-Regu-57" d="M 4762 0 
L 5946 4672 
L 5280 4672 
L 4422 877 
L 3360 4672 
L 2720 4672 
L 1683 877 
L 806 4672 
L 141 4672 
L 1338 0 
L 1990 0 
L 3034 3838 
L 4109 0 
L 4762 0 
z
" transform="scale(0.015625)"/>
      </defs>
      <use xlink:href="#NimbusSanL-Regu-50" transform="scale(0.996264)"/>
      <use xlink:href="#NimbusSanL-Regu-6f" transform="translate(61.468681 0) scale(0.996264)"/>
      <use xlink:href="#NimbusSanL-Regu-77" transform="translate(115.366965 0) scale(0.996264)"/>
      <use xlink:href="#NimbusSanL-Regu-65" transform="translate(186.300853 0) scale(0.996264)"/>
      <use xlink:href="#NimbusSanL-Regu-72" transform="translate(241.69253 0) scale(0.996264)"/>
      <use xlink:href="#NimbusSanL-Regu-28" transform="translate(302.562929 0) scale(0.996264)"/>
      <use xlink:href="#CMMI12-16" transform="translate(335.738159 0) scale(0.996264)"/>
      <use xlink:href="#NimbusSanL-Regu-57" transform="translate(394.42958 0) scale(0.996264)"/>
      <use xlink:href="#NimbusSanL-Regu-29" transform="translate(488.47635 0) scale(0.996264)"/>
     </g>
    </g>
   </g>
   <g id="legend_1">
    <g id="line2d_31">
     <path d="M 270.668199 26.908068 
L 279.293199 26.908068 
L 287.918199 26.908068 
" style="fill: none; stroke: #f0a3ff; stroke-width: 1.1; stroke-linecap: square"/>
    </g>
    <g id="text_13">
     <!-- 323.15 K -->
     <g transform="translate(297.118199 30.933068) scale(0.115 -0.115)">
      <defs>
       <path id="NimbusSanL-Regu-33" d="M 1414 2093 
L 1485 2093 
L 1722 2099 
C 2342 2099 2662 1819 2662 1276 
C 2662 709 2310 371 1722 371 
C 1107 371 806 677 768 1334 
L 205 1334 
C 230 970 294 734 403 530 
C 634 96 1082 -128 1702 -128 
C 2637 -128 3238 428 3238 1283 
C 3238 1857 3014 2176 2470 2361 
C 2893 2526 3104 2845 3104 3298 
C 3104 4076 2586 4544 1722 4544 
C 806 4544 320 4044 301 3081 
L 864 3081 
C 870 3356 896 3509 966 3649 
C 1094 3898 1376 4051 1728 4051 
C 2227 4051 2528 3757 2528 3279 
C 2528 2960 2413 2769 2163 2667 
C 2010 2603 1811 2577 1414 2571 
L 1414 2093 
z
" transform="scale(0.015625)"/>
       <path id="NimbusSanL-Regu-32" d="M 3238 556 
L 851 556 
C 909 928 1114 1165 1670 1493 
L 2310 1839 
C 2944 2185 3270 2653 3270 3211 
C 3270 3589 3117 3942 2848 4185 
C 2579 4428 2246 4544 1818 4544 
C 1242 4544 813 4339 563 3955 
C 403 3711 333 3429 320 2967 
L 883 2967 
C 902 3275 941 3461 1018 3608 
C 1165 3884 1459 4051 1798 4051 
C 2310 4051 2694 3685 2694 3198 
C 2694 2839 2483 2531 2080 2300 
L 1491 1967 
C 544 1428 269 999 218 0 
L 3238 0 
L 3238 556 
z
" transform="scale(0.015625)"/>
       <path id="NimbusSanL-Regu-2e" d="M 1222 665 
L 557 665 
L 557 0 
L 1222 0 
L 1222 665 
z
" transform="scale(0.015625)"/>
       <path id="NimbusSanL-Regu-31" d="M 1658 3232 
L 1658 0 
L 2221 0 
L 2221 4537 
L 1850 4537 
C 1651 3840 1523 3744 653 3635 
L 653 3232 
L 1658 3232 
z
" transform="scale(0.015625)"/>
       <path id="NimbusSanL-Regu-35" d="M 3046 4544 
L 704 4544 
L 365 2076 
L 883 2076 
C 1146 2387 1363 2496 1715 2496 
C 2323 2496 2707 2082 2707 1414 
C 2707 765 2330 371 1715 371 
C 1222 371 922 619 787 1128 
L 224 1128 
C 301 759 365 581 499 415 
C 755 70 1216 -128 1728 -128 
C 2643 -128 3283 536 3283 1490 
C 3283 2381 2688 2995 1818 2995 
C 1498 2995 1242 2912 979 2720 
L 1158 3987 
L 3046 3987 
L 3046 4544 
z
" transform="scale(0.015625)"/>
       <path id="NimbusSanL-Regu-4b" d="M 1101 1634 
L 1862 2396 
L 3507 0 
L 4211 0 
L 2291 2768 
L 4192 4672 
L 3424 4672 
L 1101 2307 
L 1101 4672 
L 506 4672 
L 506 0 
L 1101 0 
L 1101 1634 
z
" transform="scale(0.015625)"/>
      </defs>
      <use xlink:href="#NimbusSanL-Regu-33" transform="scale(0.996264)"/>
      <use xlink:href="#NimbusSanL-Regu-32" transform="translate(55.391677 0) scale(0.996264)"/>
      <use xlink:href="#NimbusSanL-Regu-33" transform="translate(110.783354 0) scale(0.996264)"/>
      <use xlink:href="#NimbusSanL-Regu-2e" transform="translate(166.175031 0) scale(0.996264)"/>
      <use xlink:href="#NimbusSanL-Regu-31" transform="translate(193.8702 0) scale(0.996264)"/>
      <use xlink:href="#NimbusSanL-Regu-35" transform="translate(249.261877 0) scale(0.996264)"/>
      <use xlink:href="#NimbusSanL-Regu-4b" transform="translate(332.348724 0) scale(0.996264)"/>
     </g>
    </g>
    <g id="line2d_32">
     <path d="M 270.668199 43.261418 
L 279.293199 43.261418 
L 287.918199 43.261418 
" style="fill: none; stroke: #0075dc; stroke-width: 1.1; stroke-linecap: square"/>
    </g>
    <g id="text_14">
     <!-- 373.15 K -->
     <g transform="translate(297.118199 47.286418) scale(0.115 -0.115)">
      <defs>
       <path id="NimbusSanL-Regu-37" d="M 3328 4544 
L 294 4544 
L 294 3987 
L 2746 3987 
C 1664 2442 1222 1493 883 0 
L 1485 0 
C 1734 1454 2304 2704 3328 4070 
L 3328 4544 
z
" transform="scale(0.015625)"/>
      </defs>
      <use xlink:href="#NimbusSanL-Regu-33" transform="scale(0.996264)"/>
      <use xlink:href="#NimbusSanL-Regu-37" transform="translate(55.391677 0) scale(0.996264)"/>
      <use xlink:href="#NimbusSanL-Regu-33" transform="translate(110.783354 0) scale(0.996264)"/>
      <use xlink:href="#NimbusSanL-Regu-2e" transform="translate(166.175031 0) scale(0.996264)"/>
      <use xlink:href="#NimbusSanL-Regu-31" transform="translate(193.8702 0) scale(0.996264)"/>
      <use xlink:href="#NimbusSanL-Regu-35" transform="translate(249.261877 0) scale(0.996264)"/>
      <use xlink:href="#NimbusSanL-Regu-4b" transform="translate(332.348724 0) scale(0.996264)"/>
     </g>
    </g>
    <g id="line2d_33">
     <path d="M 270.668199 59.614768 
L 279.293199 59.614768 
L 287.918199 59.614768 
" style="fill: none; stroke: #993f00; stroke-width: 1.1; stroke-linecap: square"/>
    </g>
    <g id="text_15">
     <!-- 423.15 K -->
     <g transform="translate(297.118199 63.639768) scale(0.115 -0.115)">
      <defs>
       <path id="NimbusSanL-Regu-34" d="M 2093 1088 
L 2093 0 
L 2656 0 
L 2656 1088 
L 3328 1088 
L 3328 1593 
L 2656 1593 
L 2656 4537 
L 2240 4537 
L 179 1683 
L 179 1088 
L 2093 1088 
z
M 2093 1593 
L 672 1593 
L 2093 3577 
L 2093 1593 
z
" transform="scale(0.015625)"/>
      </defs>
      <use xlink:href="#NimbusSanL-Regu-34" transform="scale(0.996264)"/>
      <use xlink:href="#NimbusSanL-Regu-32" transform="translate(55.391677 0) scale(0.996264)"/>
      <use xlink:href="#NimbusSanL-Regu-33" transform="translate(110.783354 0) scale(0.996264)"/>
      <use xlink:href="#NimbusSanL-Regu-2e" transform="translate(166.175031 0) scale(0.996264)"/>
      <use xlink:href="#NimbusSanL-Regu-31" transform="translate(193.8702 0) scale(0.996264)"/>
      <use xlink:href="#NimbusSanL-Regu-35" transform="translate(249.261877 0) scale(0.996264)"/>
      <use xlink:href="#NimbusSanL-Regu-4b" transform="translate(332.348724 0) scale(0.996264)"/>
     </g>
    </g>
    <g id="line2d_34">
     <path d="M 270.668199 75.968117 
L 279.293199 75.968117 
L 287.918199 75.968117 
" style="fill: none; stroke: #4c005c; stroke-width: 1.1; stroke-linecap: square"/>
    </g>
    <g id="text_16">
     <!-- 473.15 K -->
     <g transform="translate(297.118199 79.993117) scale(0.115 -0.115)">
      <use xlink:href="#NimbusSanL-Regu-34" transform="scale(0.996264)"/>
      <use xlink:href="#NimbusSanL-Regu-37" transform="translate(55.391677 0) scale(0.996264)"/>
      <use xlink:href="#NimbusSanL-Regu-33" transform="translate(110.783354 0) scale(0.996264)"/>
      <use xlink:href="#NimbusSanL-Regu-2e" transform="translate(166.175031 0) scale(0.996264)"/>
      <use xlink:href="#NimbusSanL-Regu-31" transform="translate(193.8702 0) scale(0.996264)"/>
      <use xlink:href="#NimbusSanL-Regu-35" transform="translate(249.261877 0) scale(0.996264)"/>
      <use xlink:href="#NimbusSanL-Regu-4b" transform="translate(332.348724 0) scale(0.996264)"/>
     </g>
    </g>
    <g id="line2d_35">
     <path d="M 270.668199 92.321467 
L 279.293199 92.321467 
L 287.918199 92.321467 
" style="fill: none; stroke: #426600; stroke-width: 1.1; stroke-linecap: square"/>
    </g>
    <g id="text_17">
     <!-- 523.15 K -->
     <g transform="translate(297.118199 96.346467) scale(0.115 -0.115)">
      <use xlink:href="#NimbusSanL-Regu-35" transform="scale(0.996264)"/>
      <use xlink:href="#NimbusSanL-Regu-32" transform="translate(55.391677 0) scale(0.996264)"/>
      <use xlink:href="#NimbusSanL-Regu-33" transform="translate(110.783354 0) scale(0.996264)"/>
      <use xlink:href="#NimbusSanL-Regu-2e" transform="translate(166.175031 0) scale(0.996264)"/>
      <use xlink:href="#NimbusSanL-Regu-31" transform="translate(193.8702 0) scale(0.996264)"/>
      <use xlink:href="#NimbusSanL-Regu-35" transform="translate(249.261877 0) scale(0.996264)"/>
      <use xlink:href="#NimbusSanL-Regu-4b" transform="translate(332.348724 0) scale(0.996264)"/>
     </g>
    </g>
    <g id="line2d_36">
     <path d="M 270.668199 108.674816 
L 279.293199 108.674816 
L 287.918199 108.674816 
" style="fill: none; stroke: #ff0010; stroke-width: 1.1; stroke-linecap: square"/>
    </g>
    <g id="text_18">
     <!-- 573.15 K -->
     <g transform="translate(297.118199 112.699816) scale(0.115 -0.115)">
      <use xlink:href="#NimbusSanL-Regu-35" transform="scale(0.996264)"/>
      <use xlink:href="#NimbusSanL-Regu-37" transform="translate(55.391677 0) scale(0.996264)"/>
      <use xlink:href="#NimbusSanL-Regu-33" transform="translate(110.783354 0) scale(0.996264)"/>
      <use xlink:href="#NimbusSanL-Regu-2e" transform="translate(166.175031 0) scale(0.996264)"/>
      <use xlink:href="#NimbusSanL-Regu-31" transform="translate(193.8702 0) scale(0.996264)"/>
      <use xlink:href="#NimbusSanL-Regu-35" transform="translate(249.261877 0) scale(0.996264)"/>
      <use xlink:href="#NimbusSanL-Regu-4b" transform="translate(332.348724 0) scale(0.996264)"/>
     </g>
    </g>
    <g id="line2d_37">
     <path d="M 270.668199 125.028166 
L 279.293199 125.028166 
L 287.918199 125.028166 
" style="fill: none; stroke: #9dcc00; stroke-width: 1.1; stroke-linecap: square"/>
    </g>
    <g id="text_19">
     <!-- 623.15 K -->
     <g transform="translate(297.118199 129.053166) scale(0.115 -0.115)">
      <defs>
       <path id="NimbusSanL-Regu-36" d="M 3187 3352 
C 3078 4102 2592 4544 1901 4544 
C 1402 4544 954 4300 685 3895 
C 403 3449 275 2887 275 2064 
C 275 1312 390 832 659 434 
C 902 70 1299 -128 1798 -128 
C 2662 -128 3283 510 3283 1388 
C 3283 2221 2707 2816 1894 2816 
C 1446 2816 1094 2643 851 2310 
C 858 3423 1216 4044 1862 4044 
C 2259 4044 2534 3792 2624 3352 
L 3187 3352 
z
M 1824 2316 
C 2368 2316 2707 1944 2707 1343 
C 2707 781 2323 371 1805 371 
C 1280 371 883 800 883 1375 
C 883 1931 1267 2316 1824 2316 
z
" transform="scale(0.015625)"/>
      </defs>
      <use xlink:href="#NimbusSanL-Regu-36" transform="scale(0.996264)"/>
      <use xlink:href="#NimbusSanL-Regu-32" transform="translate(55.391677 0) scale(0.996264)"/>
      <use xlink:href="#NimbusSanL-Regu-33" transform="translate(110.783354 0) scale(0.996264)"/>
      <use xlink:href="#NimbusSanL-Regu-2e" transform="translate(166.175031 0) scale(0.996264)"/>
      <use xlink:href="#NimbusSanL-Regu-31" transform="translate(193.8702 0) scale(0.996264)"/>
      <use xlink:href="#NimbusSanL-Regu-35" transform="translate(249.261877 0) scale(0.996264)"/>
      <use xlink:href="#NimbusSanL-Regu-4b" transform="translate(332.348724 0) scale(0.996264)"/>
     </g>
    </g>
    <g id="line2d_38">
     <path d="M 270.668199 141.381516 
L 279.293199 141.381516 
L 287.918199 141.381516 
" style="fill: none; stroke: #c20088; stroke-width: 1.1; stroke-linecap: square"/>
    </g>
    <g id="text_20">
     <!-- 673.15 K -->
     <g transform="translate(297.118199 145.406516) scale(0.115 -0.115)">
      <use xlink:href="#NimbusSanL-Regu-36" transform="scale(0.996264)"/>
      <use xlink:href="#NimbusSanL-Regu-37" transform="translate(55.391677 0) scale(0.996264)"/>
      <use xlink:href="#NimbusSanL-Regu-33" transform="translate(110.783354 0) scale(0.996264)"/>
      <use xlink:href="#NimbusSanL-Regu-2e" transform="translate(166.175031 0) scale(0.996264)"/>
      <use xlink:href="#NimbusSanL-Regu-31" transform="translate(193.8702 0) scale(0.996264)"/>
      <use xlink:href="#NimbusSanL-Regu-35" transform="translate(249.261877 0) scale(0.996264)"/>
      <use xlink:href="#NimbusSanL-Regu-4b" transform="translate(332.348724 0) scale(0.996264)"/>
     </g>
    </g>
    <g id="line2d_39">
     <path d="M 270.668199 157.734865 
L 279.293199 157.734865 
L 287.918199 157.734865 
" style="fill: none; stroke: #003380; stroke-width: 1.1; stroke-linecap: square"/>
    </g>
    <g id="text_21">
     <!-- 723.15 K -->
     <g transform="translate(297.118199 161.759865) scale(0.115 -0.115)">
      <use xlink:href="#NimbusSanL-Regu-37" transform="scale(0.996264)"/>
      <use xlink:href="#NimbusSanL-Regu-32" transform="translate(55.391677 0) scale(0.996264)"/>
      <use xlink:href="#NimbusSanL-Regu-33" transform="translate(110.783354 0) scale(0.996264)"/>
      <use xlink:href="#NimbusSanL-Regu-2e" transform="translate(166.175031 0) scale(0.996264)"/>
      <use xlink:href="#NimbusSanL-Regu-31" transform="translate(193.8702 0) scale(0.996264)"/>
      <use xlink:href="#NimbusSanL-Regu-35" transform="translate(249.261877 0) scale(0.996264)"/>
      <use xlink:href="#NimbusSanL-Regu-4b" transform="translate(332.348724 0) scale(0.996264)"/>
     </g>
    </g>
    <g id="line2d_40">
     <path d="M 270.668199 174.088215 
L 279.293199 174.088215 
L 287.918199 174.088215 
" style="fill: none; stroke: #ffa405; stroke-width: 1.1; stroke-linecap: square"/>
    </g>
    <g id="text_22">
     <!-- 773.15 K -->
     <g transform="translate(297.118199 178.113215) scale(0.115 -0.115)">
      <use xlink:href="#NimbusSanL-Regu-37" transform="scale(0.996264)"/>
      <use xlink:href="#NimbusSanL-Regu-37" transform="translate(55.391677 0) scale(0.996264)"/>
      <use xlink:href="#NimbusSanL-Regu-33" transform="translate(110.783354 0) scale(0.996264)"/>
      <use xlink:href="#NimbusSanL-Regu-2e" transform="translate(166.175031 0) scale(0.996264)"/>
      <use xlink:href="#NimbusSanL-Regu-31" transform="translate(193.8702 0) scale(0.996264)"/>
      <use xlink:href="#NimbusSanL-Regu-35" transform="translate(249.261877 0) scale(0.996264)"/>
      <use xlink:href="#NimbusSanL-Regu-4b" transform="translate(332.348724 0) scale(0.996264)"/>
     </g>
    </g>
   </g>
  </g>
 </g>
 <defs>
  <clipPath id="p129a651f2b">
   <rect x="61.060559" y="12.42" width="199.25764" height="233.741281"/>
  </clipPath>
 </defs>
</svg>
