<?xml version="1.0" encoding="utf-8" standalone="no"?>
<!DOCTYPE svg PUBLIC "-//W3C//DTD SVG 1.1//EN"
  "http://www.w3.org/Graphics/SVG/1.1/DTD/svg11.dtd">
<svg xmlns:xlink="http://www.w3.org/1999/xlink" width="360pt" height="288pt" viewBox="0 0 360 288" xmlns="http://www.w3.org/2000/svg" version="1.1">
 <metadata>
  <rdf:RDF xmlns:dc="http://purl.org/dc/elements/1.1/" xmlns:cc="http://creativecommons.org/ns#" xmlns:rdf="http://www.w3.org/1999/02/22-rdf-syntax-ns#">
   <cc:Work>
    <dc:type rdf:resource="http://purl.org/dc/dcmitype/StillImage"/>
    <dc:date>2025-04-09T13:08:56.040693</dc:date>
    <dc:format>image/svg+xml</dc:format>
    <dc:creator>
     <cc:Agent>
      <dc:title>Matplotlib v3.7.0, https://matplotlib.org/</dc:title>
     </cc:Agent>
    </dc:creator>
   </cc:Work>
  </rdf:RDF>
 </metadata>
 <defs>
  <style type="text/css">*{stroke-linejoin: round; stroke-linecap: butt}</style>
 </defs>
 <g id="figure_1">
  <g id="patch_1">
   <path d="M 0 288 
L 360 288 
L 360 0 
L 0 0 
z
" style="fill: #ffffff"/>
  </g>
  <g id="axes_1">
   <g id="patch_2">
    <path d="M 61.060559 246.161281 
L 260.318199 246.161281 
L 260.318199 12.42 
L 61.060559 12.42 
z
" style="fill: #ffffff"/>
   </g>
   <g id="PathCollection_1">
    <defs>
     <path id="m0c7b72608f" d="M -2.5 -0 
L 2.5 2.5 
L 2.5 -2.5 
z
" style="stroke: #000000"/>
    </defs>
    <g clip-path="url(#pac6ef01543)">
     <use xlink:href="#m0c7b72608f" x="77.009797" y="124.39458" style="stroke: #000000"/>
    </g>
   </g>
   <g id="PathCollection_2">
    <g clip-path="url(#pac6ef01543)">
     <use xlink:href="#m0c7b72608f" x="89.366783" y="123.204765" style="stroke: #000000"/>
    </g>
   </g>
   <g id="PathCollection_3">
    <g clip-path="url(#pac6ef01543)">
     <use xlink:href="#m0c7b72608f" x="103.169579" y="120.519506" style="stroke: #000000"/>
    </g>
   </g>
   <g id="PathCollection_4">
    <g clip-path="url(#pac6ef01543)">
     <use xlink:href="#m0c7b72608f" x="118.149604" y="115.925014" style="stroke: #000000"/>
    </g>
   </g>
   <g id="PathCollection_5">
    <g clip-path="url(#pac6ef01543)">
     <use xlink:href="#m0c7b72608f" x="134.340961" y="108.965685" style="stroke: #000000"/>
    </g>
   </g>
   <g id="PathCollection_6">
    <g clip-path="url(#pac6ef01543)">
     <use xlink:href="#m0c7b72608f" x="152.077417" y="99.031899" style="stroke: #000000"/>
    </g>
   </g>
   <g id="PathCollection_7">
    <g clip-path="url(#pac6ef01543)">
     <use xlink:href="#m0c7b72608f" x="171.265171" y="85.582301" style="stroke: #000000"/>
    </g>
   </g>
   <g id="PathCollection_8">
    <g clip-path="url(#pac6ef01543)">
     <use xlink:href="#m0c7b72608f" x="191.313459" y="68.371514" style="stroke: #000000"/>
    </g>
   </g>
   <g id="PathCollection_9">
    <g clip-path="url(#pac6ef01543)">
     <use xlink:href="#m0c7b72608f" x="211.590571" y="47.432439" style="stroke: #000000"/>
    </g>
   </g>
   <g id="PathCollection_10">
    <g clip-path="url(#pac6ef01543)">
     <use xlink:href="#m0c7b72608f" x="231.599039" y="23.044604" style="stroke: #000000"/>
    </g>
   </g>
   <g id="line2d_1">
    <path d="M 70.117724 124.568451 
L 71.947455 124.488386 
L 73.777185 124.43283 
L 75.606915 124.401784 
L 77.436646 124.395247 
L 79.266376 124.413219 
L 81.096107 124.455701 
L 82.925837 124.522692 
L 84.755567 124.614192 
L 86.585298 124.730201 
L 88.415028 124.87072 
L 90.244759 125.035748 
L 92.074489 125.225286 
L 93.904219 125.439333 
L 95.73395 125.677889 
L 97.56368 125.940954 
L 99.393411 126.228529 
L 101.223141 126.540613 
L 103.052871 126.877206 
L 104.882602 127.238309 
L 106.712332 127.623921 
L 108.542062 128.034042 
L 110.371793 128.468672 
L 112.201523 128.927812 
L 114.031254 129.411462 
L 115.860984 129.91962 
L 117.690714 130.452288 
L 119.520445 131.009465 
L 121.350175 131.591151 
L 123.179906 132.197347 
L 125.009636 132.828052 
L 126.839366 133.483266 
L 128.669097 134.16299 
L 130.498827 134.867223 
L 132.328558 135.595965 
L 134.158288 136.349217 
L 135.988018 137.126978 
L 137.817749 137.929248 
L 139.647479 138.756027 
L 141.47721 139.607316 
L 143.30694 140.483114 
L 145.13667 141.383422 
L 146.966401 142.308238 
L 148.796131 143.257564 
L 150.625862 144.2314 
L 152.455592 145.229744 
L 154.285322 146.252598 
L 156.115053 147.299961 
L 157.944783 148.371834 
L 159.774514 149.468216 
L 161.604244 150.589107 
L 163.433974 151.734508 
L 165.263705 152.904417 
L 167.093435 154.098836 
L 168.923166 155.317765 
L 170.752896 156.561203 
L 172.582626 157.82915 
L 174.412357 159.121606 
L 176.242087 160.438572 
L 178.071818 161.780047 
L 179.901548 163.146031 
L 181.731278 164.536524 
L 183.561009 165.951527 
L 185.390739 167.39104 
L 187.220469 168.855061 
L 189.0502 170.343592 
L 190.87993 171.856632 
L 192.709661 173.394181 
L 194.539391 174.95624 
L 196.369121 176.542808 
L 198.198852 178.153886 
L 200.028582 179.789472 
L 201.858313 181.449568 
L 203.688043 183.134173 
L 205.517773 184.843288 
L 207.347504 186.576912 
L 209.177234 188.335045 
L 211.006965 190.117688 
L 212.836695 191.924839 
L 214.666425 193.756501 
L 216.496156 195.612671 
L 218.325886 197.493351 
L 220.155617 199.39854 
L 221.985347 201.328238 
L 223.815077 203.282446 
L 225.644808 205.261163 
L 227.474538 207.264389 
L 229.304269 209.292125 
L 231.133999 211.34437 
L 232.963729 213.421124 
L 234.79346 215.522387 
L 236.62319 217.64816 
L 238.452921 219.798442 
L 240.282651 221.973234 
L 242.112381 224.172534 
L 243.942112 226.396344 
L 245.771842 228.644664 
L 247.601573 230.917493 
L 249.431303 233.214831 
L 251.261033 235.536678 
" clip-path="url(#pac6ef01543)" style="fill: none; stroke: #f0a3ff; stroke-width: 1.1; stroke-linecap: square"/>
   </g>
   <g id="line2d_2">
    <path d="M 70.117724 124.568451 
L 71.947455 124.32152 
L 73.777185 124.099233 
L 75.606915 123.90159 
L 77.436646 123.72859 
L 79.266376 123.580233 
L 81.096107 123.456519 
L 82.925837 123.357449 
L 84.755567 123.283022 
L 86.585298 123.233239 
L 88.415028 123.208098 
L 90.244759 123.207602 
L 92.074489 123.231748 
L 93.904219 123.280538 
L 95.73395 123.353971 
L 97.56368 123.452048 
L 99.393411 123.574768 
L 101.223141 123.722131 
L 103.052871 123.894137 
L 104.882602 124.090787 
L 106.712332 124.31208 
L 108.542062 124.558017 
L 110.371793 124.828597 
L 112.201523 125.12382 
L 114.031254 125.443687 
L 115.860984 125.788197 
L 117.690714 126.15735 
L 119.520445 126.551147 
L 121.350175 126.969586 
L 123.179906 127.41267 
L 125.009636 127.880396 
L 126.839366 128.372766 
L 128.669097 128.88978 
L 130.498827 129.431436 
L 132.328558 129.997736 
L 134.158288 130.58868 
L 135.988018 131.204266 
L 137.817749 131.844496 
L 139.647479 132.50937 
L 141.47721 133.198887 
L 143.30694 133.913047 
L 145.13667 134.65185 
L 146.966401 135.415297 
L 148.796131 136.203387 
L 150.625862 137.01612 
L 152.455592 137.853497 
L 154.285322 138.715517 
L 156.115053 139.602181 
L 157.944783 140.513487 
L 159.774514 141.449437 
L 161.604244 142.410031 
L 163.433974 143.395268 
L 165.263705 144.405148 
L 167.093435 145.439671 
L 168.923166 146.498838 
L 170.752896 147.582648 
L 172.582626 148.691102 
L 174.412357 149.824199 
L 176.242087 150.981939 
L 178.071818 152.164322 
L 179.901548 153.371349 
L 181.731278 154.60302 
L 183.561009 155.859333 
L 185.390739 157.14029 
L 187.220469 158.44589 
L 189.0502 159.776134 
L 190.87993 161.131021 
L 192.709661 162.510551 
L 194.539391 163.914725 
L 196.369121 165.343542 
L 198.198852 166.797002 
L 200.028582 168.275105 
L 201.858313 169.777852 
L 203.688043 171.305243 
L 205.517773 172.857276 
L 207.347504 174.433953 
L 209.177234 176.035274 
L 211.006965 177.661237 
L 212.836695 179.311844 
L 214.666425 180.987095 
L 216.496156 182.686988 
L 218.325886 184.411525 
L 220.155617 186.160706 
L 221.985347 187.93453 
L 223.815077 189.732997 
L 225.644808 191.556107 
L 227.474538 193.403861 
L 229.304269 195.276258 
L 231.133999 197.173298 
L 232.963729 199.094982 
L 234.79346 201.041309 
L 236.62319 203.01228 
L 238.452921 205.007893 
L 240.282651 207.028151 
L 242.112381 209.073051 
L 243.942112 211.142595 
L 245.771842 213.236782 
L 247.601573 215.355613 
L 249.431303 217.499086 
L 251.261033 219.667204 
" clip-path="url(#pac6ef01543)" style="fill: none; stroke: #0075dc; stroke-width: 1.1; stroke-linecap: square"/>
   </g>
   <g id="line2d_3">
    <path d="M 70.117724 124.568451 
L 71.947455 124.132565 
L 73.777185 123.721497 
L 75.606915 123.335246 
L 77.436646 122.973812 
L 79.266376 122.637196 
L 81.096107 122.325397 
L 82.925837 122.038415 
L 84.755567 121.77625 
L 86.585298 121.538903 
L 88.415028 121.326373 
L 90.244759 121.138661 
L 92.074489 120.975765 
L 93.904219 120.837687 
L 95.73395 120.724427 
L 97.56368 120.635983 
L 99.393411 120.572357 
L 101.223141 120.533548 
L 103.052871 120.519556 
L 104.882602 120.530382 
L 106.712332 120.566025 
L 108.542062 120.626485 
L 110.371793 120.711763 
L 112.201523 120.821858 
L 114.031254 120.95677 
L 115.860984 121.116499 
L 117.690714 121.301046 
L 119.520445 121.51041 
L 121.350175 121.744591 
L 123.179906 122.00359 
L 125.009636 122.287406 
L 126.839366 122.596039 
L 128.669097 122.92949 
L 130.498827 123.287757 
L 132.328558 123.670842 
L 134.158288 124.078745 
L 135.988018 124.511464 
L 137.817749 124.969001 
L 139.647479 125.451356 
L 141.47721 125.958527 
L 143.30694 126.490516 
L 145.13667 127.047322 
L 146.966401 127.628945 
L 148.796131 128.235386 
L 150.625862 128.866644 
L 152.455592 129.522719 
L 154.285322 130.203612 
L 156.115053 130.909322 
L 157.944783 131.639849 
L 159.774514 132.395193 
L 161.604244 133.175355 
L 163.433974 133.980334 
L 165.263705 134.81013 
L 167.093435 135.664744 
L 168.923166 136.544174 
L 170.752896 137.448423 
L 172.582626 138.377488 
L 174.412357 139.331371 
L 176.242087 140.310071 
L 178.071818 141.313588 
L 179.901548 142.341923 
L 181.731278 143.395075 
L 183.561009 144.473044 
L 185.390739 145.57583 
L 187.220469 146.703434 
L 189.0502 147.855855 
L 190.87993 149.033093 
L 192.709661 150.235149 
L 194.539391 151.462022 
L 196.369121 152.713712 
L 198.198852 153.99022 
L 200.028582 155.291544 
L 201.858313 156.617687 
L 203.688043 157.968646 
L 205.517773 159.344423 
L 207.347504 160.745017 
L 209.177234 162.170428 
L 211.006965 163.620656 
L 212.836695 165.095702 
L 214.666425 166.595565 
L 216.496156 168.120246 
L 218.325886 169.669743 
L 220.155617 171.244058 
L 221.985347 172.843191 
L 223.815077 174.46714 
L 225.644808 176.115907 
L 227.474538 177.789491 
L 229.304269 179.487893 
L 231.133999 181.211111 
L 232.963729 182.959147 
L 234.79346 184.732001 
L 236.62319 186.529671 
L 238.452921 188.352159 
L 240.282651 190.199464 
L 242.112381 192.071587 
L 243.942112 193.968527 
L 245.771842 195.890284 
L 247.601573 197.836858 
L 249.431303 199.80825 
L 251.261033 201.804459 
" clip-path="url(#pac6ef01543)" style="fill: none; stroke: #993f00; stroke-width: 1.1; stroke-linecap: square"/>
   </g>
   <g id="line2d_4">
    <path d="M 70.117724 124.568451 
L 71.947455 123.922466 
L 73.777185 123.301567 
L 75.606915 122.705755 
L 77.436646 122.135028 
L 79.266376 121.589388 
L 81.096107 121.068833 
L 82.925837 120.573365 
L 84.755567 120.102982 
L 86.585298 119.657686 
L 88.415028 119.237475 
L 90.244759 118.842351 
L 92.074489 118.472312 
L 93.904219 118.12736 
L 95.73395 117.807493 
L 97.56368 117.512712 
L 99.393411 117.243018 
L 101.223141 116.998409 
L 103.052871 116.778887 
L 104.882602 116.58445 
L 106.712332 116.4151 
L 108.542062 116.270835 
L 110.371793 116.151657 
L 112.201523 116.057564 
L 114.031254 115.988558 
L 115.860984 115.944638 
L 117.690714 115.925803 
L 119.520445 115.932055 
L 121.350175 115.963392 
L 123.179906 116.019816 
L 125.009636 116.101325 
L 126.839366 116.207921 
L 128.669097 116.339602 
L 130.498827 116.49637 
L 132.328558 116.678223 
L 134.158288 116.885163 
L 135.988018 117.117189 
L 137.817749 117.3743 
L 139.647479 117.656498 
L 141.47721 117.963781 
L 143.30694 118.296151 
L 145.13667 118.653606 
L 146.966401 119.036148 
L 148.796131 119.443776 
L 150.625862 119.876489 
L 152.455592 120.334289 
L 154.285322 120.817174 
L 156.115053 121.325146 
L 157.944783 121.858204 
L 159.774514 122.416347 
L 161.604244 122.999577 
L 163.433974 123.607892 
L 165.263705 124.241294 
L 167.093435 124.899782 
L 168.923166 125.583355 
L 170.752896 126.292015 
L 172.582626 127.025761 
L 174.412357 127.784592 
L 176.242087 128.56851 
L 178.071818 129.377514 
L 179.901548 130.211603 
L 181.731278 131.070779 
L 183.561009 131.955041 
L 185.390739 132.864388 
L 187.220469 133.798822 
L 189.0502 134.758342 
L 190.87993 135.742947 
L 192.709661 136.752639 
L 194.539391 137.787417 
L 196.369121 138.84728 
L 198.198852 139.93223 
L 200.028582 141.042266 
L 201.858313 142.177387 
L 203.688043 143.337595 
L 205.517773 144.522889 
L 207.347504 145.733269 
L 209.177234 146.968734 
L 211.006965 148.229286 
L 212.836695 149.514924 
L 214.666425 150.825647 
L 216.496156 152.161457 
L 218.325886 153.522353 
L 220.155617 154.908335 
L 221.985347 156.319402 
L 223.815077 157.755556 
L 225.644808 159.216796 
L 227.474538 160.703122 
L 229.304269 162.214533 
L 231.133999 163.751031 
L 232.963729 165.312615 
L 234.79346 166.899285 
L 236.62319 168.51104 
L 238.452921 170.147882 
L 240.282651 171.80981 
L 242.112381 173.496824 
L 243.942112 175.208924 
L 245.771842 176.946109 
L 247.601573 178.708381 
L 249.431303 180.495739 
L 251.261033 182.308183 
" clip-path="url(#pac6ef01543)" style="fill: none; stroke: #4c005c; stroke-width: 1.1; stroke-linecap: square"/>
   </g>
   <g id="line2d_5">
    <path d="M 70.117724 124.568451 
L 71.947455 123.692065 
L 73.777185 122.841008 
L 75.606915 122.01528 
L 77.436646 121.214882 
L 79.266376 120.439812 
L 81.096107 119.690072 
L 82.925837 118.965661 
L 84.755567 118.26658 
L 86.585298 117.592827 
L 88.415028 116.944404 
L 90.244759 116.32131 
L 92.074489 115.723545 
L 93.904219 115.151109 
L 95.73395 114.604003 
L 97.56368 114.082226 
L 99.393411 113.585777 
L 101.223141 113.114659 
L 103.052871 112.668869 
L 104.882602 112.248408 
L 106.712332 111.853277 
L 108.542062 111.483475 
L 110.371793 111.139002 
L 112.201523 110.819858 
L 114.031254 110.526044 
L 115.860984 110.257558 
L 117.690714 110.014402 
L 119.520445 109.796575 
L 121.350175 109.604078 
L 123.179906 109.436909 
L 125.009636 109.29507 
L 126.839366 109.178559 
L 128.669097 109.087379 
L 130.498827 109.021527 
L 132.328558 108.981004 
L 134.158288 108.965811 
L 135.988018 108.975947 
L 137.817749 109.011412 
L 139.647479 109.072206 
L 141.47721 109.158329 
L 143.30694 109.269782 
L 145.13667 109.406564 
L 146.966401 109.568675 
L 148.796131 109.756115 
L 150.625862 109.968884 
L 152.455592 110.206983 
L 154.285322 110.470411 
L 156.115053 110.759168 
L 157.944783 111.073254 
L 159.774514 111.412669 
L 161.604244 111.777414 
L 163.433974 112.167488 
L 165.263705 112.582891 
L 167.093435 113.023623 
L 168.923166 113.489684 
L 170.752896 113.981075 
L 172.582626 114.497795 
L 174.412357 115.039843 
L 176.242087 115.607222 
L 178.071818 116.199929 
L 179.901548 116.817966 
L 181.731278 117.461331 
L 183.561009 118.130026 
L 185.390739 118.82405 
L 187.220469 119.543404 
L 189.0502 120.288086 
L 190.87993 121.058098 
L 192.709661 121.853439 
L 194.539391 122.674109 
L 196.369121 123.520108 
L 198.198852 124.391437 
L 200.028582 125.288095 
L 201.858313 126.210081 
L 203.688043 127.157398 
L 205.517773 128.130043 
L 207.347504 129.128017 
L 209.177234 130.151321 
L 211.006965 131.199954 
L 212.836695 132.273916 
L 214.666425 133.373207 
L 216.496156 134.497828 
L 218.325886 135.647777 
L 220.155617 136.823056 
L 221.985347 138.023664 
L 223.815077 139.249602 
L 225.644808 140.500868 
L 227.474538 141.777464 
L 229.304269 143.079389 
L 231.133999 144.406643 
L 232.963729 145.759226 
L 234.79346 147.137138 
L 236.62319 148.54038 
L 238.452921 149.968951 
L 240.282651 151.422851 
L 242.112381 152.90208 
L 243.942112 154.406638 
L 245.771842 155.936526 
L 247.601573 157.491743 
L 249.431303 159.072289 
L 251.261033 160.678164 
" clip-path="url(#pac6ef01543)" style="fill: none; stroke: #426600; stroke-width: 1.1; stroke-linecap: square"/>
   </g>
   <g id="line2d_6">
    <path d="M 70.117724 124.568451 
L 71.947455 123.440983 
L 73.777185 122.33897 
L 75.606915 121.262412 
L 77.436646 120.211308 
L 79.266376 119.185659 
L 81.096107 118.185464 
L 82.925837 117.210724 
L 84.755567 116.261439 
L 86.585298 115.337608 
L 88.415028 114.439232 
L 90.244759 113.56631 
L 92.074489 112.718843 
L 93.904219 111.89683 
L 95.73395 111.100272 
L 97.56368 110.329169 
L 99.393411 109.58352 
L 101.223141 108.863326 
L 103.052871 108.168586 
L 104.882602 107.499301 
L 106.712332 106.85547 
L 108.542062 106.237094 
L 110.371793 105.644173 
L 112.201523 105.076706 
L 114.031254 104.534694 
L 115.860984 104.018136 
L 117.690714 103.527033 
L 119.520445 103.061384 
L 121.350175 102.62119 
L 123.179906 102.206451 
L 125.009636 101.817166 
L 126.839366 101.453336 
L 128.669097 101.11496 
L 130.498827 100.802039 
L 132.328558 100.514572 
L 134.158288 100.25256 
L 135.988018 100.016003 
L 137.817749 99.8049 
L 139.647479 99.619252 
L 141.47721 99.459058 
L 143.30694 99.324319 
L 145.13667 99.215035 
L 146.966401 99.131205 
L 148.796131 99.072829 
L 150.625862 99.039908 
L 152.455592 99.032442 
L 154.285322 99.050431 
L 156.115053 99.093873 
L 157.944783 99.162771 
L 159.774514 99.257123 
L 161.604244 99.37693 
L 163.433974 99.522191 
L 165.263705 99.692907 
L 167.093435 99.889077 
L 168.923166 100.110702 
L 170.752896 100.357781 
L 172.582626 100.630315 
L 174.412357 100.928304 
L 176.242087 101.251747 
L 178.071818 101.600645 
L 179.901548 101.974997 
L 181.731278 102.374804 
L 183.561009 102.800066 
L 185.390739 103.250782 
L 187.220469 103.726952 
L 189.0502 104.228578 
L 190.87993 104.755657 
L 192.709661 105.308192 
L 194.539391 105.886181 
L 196.369121 106.489624 
L 198.198852 107.118522 
L 200.028582 107.772875 
L 201.858313 108.452682 
L 203.688043 109.157944 
L 205.517773 109.88866 
L 207.347504 110.644831 
L 209.177234 111.426457 
L 211.006965 112.233537 
L 212.836695 113.066072 
L 214.666425 113.924061 
L 216.496156 114.807505 
L 218.325886 115.716403 
L 220.155617 116.650756 
L 221.985347 117.610564 
L 223.815077 118.595826 
L 225.644808 119.606542 
L 227.474538 120.642714 
L 229.304269 121.70434 
L 231.133999 122.79142 
L 232.963729 123.903955 
L 234.79346 125.041944 
L 236.62319 126.205389 
L 238.452921 127.394287 
L 240.282651 128.608641 
L 242.112381 129.848448 
L 243.942112 131.113711 
L 245.771842 132.404428 
L 247.601573 133.720599 
L 249.431303 135.062225 
L 251.261033 136.429306 
" clip-path="url(#pac6ef01543)" style="fill: none; stroke: #ff0010; stroke-width: 1.1; stroke-linecap: square"/>
   </g>
   <g id="line2d_7">
    <path d="M 70.117724 124.568451 
L 71.947455 123.17071 
L 73.777185 121.798485 
L 75.606915 120.451776 
L 77.436646 119.130582 
L 79.266376 117.834904 
L 81.096107 116.564741 
L 82.925837 115.320094 
L 84.755567 114.100963 
L 86.585298 112.907346 
L 88.415028 111.739246 
L 90.244759 110.596661 
L 92.074489 109.479591 
L 93.904219 108.388037 
L 95.73395 107.321999 
L 97.56368 106.281476 
L 99.393411 105.266469 
L 101.223141 104.276977 
L 103.052871 103.313001 
L 104.882602 102.37454 
L 106.712332 101.461595 
L 108.542062 100.574165 
L 110.371793 99.712251 
L 112.201523 98.875852 
L 114.031254 98.064969 
L 115.860984 97.279602 
L 117.690714 96.51975 
L 119.520445 95.785413 
L 121.350175 95.076593 
L 123.179906 94.393287 
L 125.009636 93.735497 
L 126.839366 93.103223 
L 128.669097 92.496464 
L 130.498827 91.915221 
L 132.328558 91.359493 
L 134.158288 90.829281 
L 135.988018 90.324585 
L 137.817749 89.845403 
L 139.647479 89.391738 
L 141.47721 88.963588 
L 143.30694 88.560953 
L 145.13667 88.183835 
L 146.966401 87.832231 
L 148.796131 87.506143 
L 150.625862 87.205571 
L 152.455592 86.930514 
L 154.285322 86.680973 
L 156.115053 86.456947 
L 157.944783 86.258437 
L 159.774514 86.085442 
L 161.604244 85.937963 
L 163.433974 85.816 
L 165.263705 85.719552 
L 167.093435 85.648619 
L 168.923166 85.603202 
L 170.752896 85.583301 
L 172.582626 85.588915 
L 174.412357 85.620045 
L 176.242087 85.67669 
L 178.071818 85.75885 
L 179.901548 85.866527 
L 181.731278 85.999718 
L 183.561009 86.158426 
L 185.390739 86.342649 
L 187.220469 86.552387 
L 189.0502 86.787641 
L 190.87993 87.04841 
L 192.709661 87.334695 
L 194.539391 87.646496 
L 196.369121 87.983812 
L 198.198852 88.346644 
L 200.028582 88.734991 
L 201.858313 89.148854 
L 203.688043 89.588232 
L 205.517773 90.053126 
L 207.347504 90.543535 
L 209.177234 91.05946 
L 211.006965 91.6009 
L 212.836695 92.167856 
L 214.666425 92.760327 
L 216.496156 93.378314 
L 218.325886 94.021817 
L 220.155617 94.690835 
L 221.985347 95.385369 
L 223.815077 96.105418 
L 225.644808 96.850982 
L 227.474538 97.622063 
L 229.304269 98.418658 
L 231.133999 99.24077 
L 232.963729 100.088396 
L 234.79346 100.961539 
L 236.62319 101.860197 
L 238.452921 102.78437 
L 240.282651 103.734059 
L 242.112381 104.709263 
L 243.942112 105.709983 
L 245.771842 106.736219 
L 247.601573 107.78797 
L 249.431303 108.865237 
L 251.261033 109.968019 
" clip-path="url(#pac6ef01543)" style="fill: none; stroke: #9dcc00; stroke-width: 1.1; stroke-linecap: square"/>
   </g>
   <g id="line2d_8">
    <path d="M 70.117724 124.568451 
L 71.947455 122.884414 
L 73.777185 121.225994 
L 75.606915 119.593193 
L 77.436646 117.98601 
L 79.266376 116.404444 
L 81.096107 114.848496 
L 82.925837 113.318166 
L 84.755567 111.813454 
L 86.585298 110.334359 
L 88.415028 108.880882 
L 90.244759 107.453024 
L 92.074489 106.050783 
L 93.904219 104.67416 
L 95.73395 103.323154 
L 97.56368 101.997767 
L 99.393411 100.697997 
L 101.223141 99.423845 
L 103.052871 98.175311 
L 104.882602 96.952395 
L 106.712332 95.755096 
L 108.542062 94.583416 
L 110.371793 93.437353 
L 112.201523 92.316908 
L 114.031254 91.222081 
L 115.860984 90.152872 
L 117.690714 89.10928 
L 119.520445 88.091306 
L 121.350175 87.098951 
L 123.179906 86.132213 
L 125.009636 85.191092 
L 126.839366 84.27559 
L 128.669097 83.385705 
L 130.498827 82.521439 
L 132.328558 81.68279 
L 134.158288 80.869759 
L 135.988018 80.082345 
L 137.817749 79.32055 
L 139.647479 78.584372 
L 141.47721 77.873812 
L 143.30694 77.18887 
L 145.13667 76.529546 
L 146.966401 75.89584 
L 148.796131 75.287751 
L 150.625862 74.70528 
L 152.455592 74.148427 
L 154.285322 73.617192 
L 156.115053 73.111575 
L 157.944783 72.631576 
L 159.774514 72.177194 
L 161.604244 71.74843 
L 163.433974 71.345284 
L 165.263705 70.967756 
L 167.093435 70.615846 
L 168.923166 70.289553 
L 170.752896 69.988878 
L 172.582626 69.713822 
L 174.412357 69.464383 
L 176.242087 69.240561 
L 178.071818 69.042358 
L 179.901548 68.869772 
L 181.731278 68.722804 
L 183.561009 68.601454 
L 185.390739 68.505722 
L 187.220469 68.435608 
L 189.0502 68.391112 
L 190.87993 68.372233 
L 192.709661 68.378972 
L 194.539391 68.411329 
L 196.369121 68.469304 
L 198.198852 68.552896 
L 200.028582 68.662107 
L 201.858313 68.796935 
L 203.688043 68.957381 
L 205.517773 69.143445 
L 207.347504 69.355127 
L 209.177234 69.592426 
L 211.006965 69.855343 
L 212.836695 70.143879 
L 214.666425 70.458032 
L 216.496156 70.797802 
L 218.325886 71.163191 
L 220.155617 71.554197 
L 221.985347 71.970822 
L 223.815077 72.413064 
L 225.644808 72.880924 
L 227.474538 73.374401 
L 229.304269 73.893497 
L 231.133999 74.43821 
L 232.963729 75.008541 
L 234.79346 75.60449 
L 236.62319 76.226057 
L 238.452921 76.873242 
L 240.282651 77.546044 
L 242.112381 78.244465 
L 243.942112 78.968503 
L 245.771842 79.718159 
L 247.601573 80.493432 
L 249.431303 81.294324 
L 251.261033 82.120833 
" clip-path="url(#pac6ef01543)" style="fill: none; stroke: #c20088; stroke-width: 1.1; stroke-linecap: square"/>
   </g>
   <g id="line2d_9">
    <path d="M 70.117724 124.568451 
L 71.947455 122.586086 
L 73.777185 120.629526 
L 75.606915 118.698773 
L 77.436646 116.793825 
L 79.266376 114.914683 
L 81.096107 113.061346 
L 82.925837 111.233815 
L 84.755567 109.43209 
L 86.585298 107.656171 
L 88.415028 105.906057 
L 90.244759 104.181748 
L 92.074489 102.483246 
L 93.904219 100.810549 
L 95.73395 99.163658 
L 97.56368 97.542572 
L 99.393411 95.947293 
L 101.223141 94.377818 
L 103.052871 92.83415 
L 104.882602 91.316287 
L 106.712332 89.82423 
L 108.542062 88.357979 
L 110.371793 86.917533 
L 112.201523 85.502893 
L 114.031254 84.114058 
L 115.860984 82.751029 
L 117.690714 81.413806 
L 119.520445 80.102389 
L 121.350175 78.816777 
L 123.179906 77.556971 
L 125.009636 76.322971 
L 126.839366 75.114776 
L 128.669097 73.932387 
L 130.498827 72.775804 
L 132.328558 71.645026 
L 134.158288 70.540054 
L 135.988018 69.460888 
L 137.817749 68.407527 
L 139.647479 67.379972 
L 141.47721 66.378222 
L 143.30694 65.402279 
L 145.13667 64.452141 
L 146.966401 63.527809 
L 148.796131 62.629282 
L 150.625862 61.756561 
L 152.455592 60.909646 
L 154.285322 60.088536 
L 156.115053 59.293232 
L 157.944783 58.523734 
L 159.774514 57.780041 
L 161.604244 57.062154 
L 163.433974 56.370073 
L 165.263705 55.703797 
L 167.093435 55.063327 
L 168.923166 54.448663 
L 170.752896 53.859805 
L 172.582626 53.296752 
L 174.412357 52.759505 
L 176.242087 52.248063 
L 178.071818 51.762427 
L 179.901548 51.302597 
L 181.731278 50.868572 
L 183.561009 50.460354 
L 185.390739 50.07794 
L 187.220469 49.721333 
L 189.0502 49.390531 
L 190.87993 49.085535 
L 192.709661 48.806344 
L 194.539391 48.55296 
L 196.369121 48.32538 
L 198.198852 48.123607 
L 200.028582 47.947639 
L 201.858313 47.797477 
L 203.688043 47.673121 
L 205.517773 47.57457 
L 207.347504 47.501825 
L 209.177234 47.454885 
L 211.006965 47.433752 
L 212.836695 47.438424 
L 214.666425 47.468901 
L 216.496156 47.525184 
L 218.325886 47.607273 
L 220.155617 47.715168 
L 221.985347 47.848868 
L 223.815077 48.008374 
L 225.644808 48.193686 
L 227.474538 48.404803 
L 229.304269 48.641726 
L 231.133999 48.904455 
L 232.963729 49.192989 
L 234.79346 49.507329 
L 236.62319 49.847475 
L 238.452921 50.213426 
L 240.282651 50.605183 
L 242.112381 51.022746 
L 243.942112 51.466114 
L 245.771842 51.935288 
L 247.601573 52.430268 
L 249.431303 52.951053 
L 251.261033 53.497645 
" clip-path="url(#pac6ef01543)" style="fill: none; stroke: #003380; stroke-width: 1.1; stroke-linecap: square"/>
   </g>
   <g id="line2d_10">
    <path d="M 70.117724 124.568451 
L 71.947455 122.28077 
L 73.777185 120.019158 
L 75.606915 117.783616 
L 77.436646 115.574143 
L 79.266376 113.390739 
L 81.096107 111.233404 
L 82.925837 109.102139 
L 84.755567 106.996942 
L 86.585298 104.917815 
L 88.415028 102.864757 
L 90.244759 100.837769 
L 92.074489 98.836849 
L 93.904219 96.861999 
L 95.73395 94.913218 
L 97.56368 92.990506 
L 99.393411 91.093863 
L 101.223141 89.223289 
L 103.052871 87.378785 
L 104.882602 85.56035 
L 106.712332 83.767984 
L 108.542062 82.001687 
L 110.371793 80.26146 
L 112.201523 78.547301 
L 114.031254 76.859212 
L 115.860984 75.197192 
L 117.690714 73.561242 
L 119.520445 71.95136 
L 121.350175 70.367548 
L 123.179906 68.809805 
L 125.009636 67.278131 
L 126.839366 65.772526 
L 128.669097 64.29299 
L 130.498827 62.839524 
L 132.328558 61.412127 
L 134.158288 60.010799 
L 135.988018 58.63554 
L 137.817749 57.286351 
L 139.647479 55.963231 
L 141.47721 54.666179 
L 143.30694 53.395198 
L 145.13667 52.150285 
L 146.966401 50.931441 
L 148.796131 49.738667 
L 150.625862 48.571962 
L 152.455592 47.431326 
L 154.285322 46.316759 
L 156.115053 45.228262 
L 157.944783 44.165833 
L 159.774514 43.129474 
L 161.604244 42.119184 
L 163.433974 41.134964 
L 165.263705 40.176812 
L 167.093435 39.24473 
L 168.923166 38.338717 
L 170.752896 37.458773 
L 172.582626 36.604898 
L 174.412357 35.777093 
L 176.242087 34.975356 
L 178.071818 34.199689 
L 179.901548 33.450091 
L 181.731278 32.726563 
L 183.561009 32.029103 
L 185.390739 31.357713 
L 187.220469 30.712392 
L 189.0502 30.09314 
L 190.87993 29.499957 
L 192.709661 28.932844 
L 194.539391 28.391799 
L 196.369121 27.876824 
L 198.198852 27.387918 
L 200.028582 26.925082 
L 201.858313 26.488314 
L 203.688043 26.077616 
L 205.517773 25.692987 
L 207.347504 25.334427 
L 209.177234 25.001936 
L 211.006965 24.695515 
L 212.836695 24.415163 
L 214.666425 24.160879 
L 216.496156 23.932666 
L 218.325886 23.730521 
L 220.155617 23.554445 
L 221.985347 23.404439 
L 223.815077 23.280502 
L 225.644808 23.182634 
L 227.474538 23.110835 
L 229.304269 23.065106 
L 231.133999 23.045446 
L 232.963729 23.051855 
L 234.79346 23.084333 
L 236.62319 23.14288 
L 238.452921 23.227497 
L 240.282651 23.338182 
L 242.112381 23.474937 
L 243.942112 23.637761 
L 245.771842 23.826655 
L 247.601573 24.041617 
L 249.431303 24.282649 
L 251.261033 24.54975 
" clip-path="url(#pac6ef01543)" style="fill: none; stroke: #ffa405; stroke-width: 1.1; stroke-linecap: square"/>
   </g>
   <g id="patch_3">
    <path d="M 61.060559 246.161281 
L 61.060559 12.42 
" style="fill: none; stroke: #000000; stroke-width: 0.8; stroke-linejoin: miter; stroke-linecap: square"/>
   </g>
   <g id="patch_4">
    <path d="M 260.318199 246.161281 
L 260.318199 12.42 
" style="fill: none; stroke: #000000; stroke-width: 0.8; stroke-linejoin: miter; stroke-linecap: square"/>
   </g>
   <g id="patch_5">
    <path d="M 61.060559 246.161281 
L 260.318199 246.161281 
" style="fill: none; stroke: #000000; stroke-width: 0.8; stroke-linejoin: miter; stroke-linecap: square"/>
   </g>
   <g id="patch_6">
    <path d="M 61.060559 12.42 
L 260.318199 12.42 
" style="fill: none; stroke: #000000; stroke-width: 0.8; stroke-linejoin: miter; stroke-linecap: square"/>
   </g>
   <g id="matplotlib.axis_1">
    <g id="xtick_1">
     <g id="line2d_11">
      <path d="M 70.117724 246.161281 
L 70.117724 12.42 
" clip-path="url(#pac6ef01543)" style="fill: none; stroke-dasharray: 1.85,0.8; stroke-dashoffset: 0; stroke: #000000; stroke-width: 0.5"/>
     </g>
     <g id="line2d_12">
      <defs>
       <path id="m46567a8f7c" d="M 0 0 
L 0 -3.5 
" style="stroke: #000000; stroke-width: 0.8"/>
      </defs>
      <g>
       <use xlink:href="#m46567a8f7c" x="70.117724" y="246.161281" style="stroke: #000000; stroke-width: 0.8"/>
      </g>
     </g>
     <g id="text_1">
      <!-- $\mathdefault{0.0}$ -->
      <g transform="translate(62.797937 258.32435) scale(0.115 -0.115)">
       <defs>
        <path id="CMR17-30" d="M 2688 2038 
C 2688 2430 2682 3099 2413 3613 
C 2176 4063 1798 4224 1466 4224 
C 1158 4224 768 4082 525 3620 
C 269 3137 243 2539 243 2038 
C 243 1671 250 1112 448 623 
C 723 -39 1216 -128 1466 -128 
C 1760 -128 2208 -7 2470 604 
C 2662 1048 2688 1568 2688 2038 
z
M 1466 -26 
C 1056 -26 813 328 723 816 
C 653 1196 653 1749 653 2109 
C 653 2604 653 3015 736 3407 
C 858 3954 1216 4121 1466 4121 
C 1728 4121 2067 3947 2189 3420 
C 2272 3054 2278 2623 2278 2109 
C 2278 1691 2278 1176 2202 797 
C 2067 96 1690 -26 1466 -26 
z
" transform="scale(0.015625)"/>
        <path id="CMMI12-3a" d="M 1178 307 
C 1178 492 1024 620 870 620 
C 685 620 557 467 557 313 
C 557 128 710 0 864 0 
C 1050 0 1178 153 1178 307 
z
" transform="scale(0.015625)"/>
       </defs>
       <use xlink:href="#CMR17-30" transform="scale(0.996264)"/>
       <use xlink:href="#CMMI12-3a" transform="translate(45.690477 0) scale(0.996264)"/>
       <use xlink:href="#CMR17-30" transform="translate(72.787654 0) scale(0.996264)"/>
      </g>
     </g>
    </g>
    <g id="xtick_2">
     <g id="line2d_13">
      <path d="M 148.765703 246.161281 
L 148.765703 12.42 
" clip-path="url(#pac6ef01543)" style="fill: none; stroke-dasharray: 1.85,0.8; stroke-dashoffset: 0; stroke: #000000; stroke-width: 0.5"/>
     </g>
     <g id="line2d_14">
      <g>
       <use xlink:href="#m46567a8f7c" x="148.765703" y="246.161281" style="stroke: #000000; stroke-width: 0.8"/>
      </g>
     </g>
     <g id="text_2">
      <!-- $\mathdefault{0.2}$ -->
      <g transform="translate(141.445916 258.32435) scale(0.115 -0.115)">
       <defs>
        <path id="CMR17-32" d="M 2669 990 
L 2554 990 
C 2490 537 2438 460 2413 422 
C 2381 371 1920 371 1830 371 
L 602 371 
C 832 620 1280 1073 1824 1596 
C 2214 1966 2669 2400 2669 3033 
C 2669 3788 2067 4224 1395 4224 
C 691 4224 262 3603 262 3027 
C 262 2777 448 2745 525 2745 
C 589 2745 781 2783 781 3007 
C 781 3206 614 3264 525 3264 
C 486 3264 448 3257 422 3244 
C 544 3788 915 4057 1306 4057 
C 1862 4057 2227 3616 2227 3033 
C 2227 2477 1901 1998 1536 1583 
L 262 147 
L 262 0 
L 2515 0 
L 2669 990 
z
" transform="scale(0.015625)"/>
       </defs>
       <use xlink:href="#CMR17-30" transform="scale(0.996264)"/>
       <use xlink:href="#CMMI12-3a" transform="translate(45.690477 0) scale(0.996264)"/>
       <use xlink:href="#CMR17-32" transform="translate(72.787654 0) scale(0.996264)"/>
      </g>
     </g>
    </g>
    <g id="xtick_3">
     <g id="line2d_15">
      <path d="M 227.413682 246.161281 
L 227.413682 12.42 
" clip-path="url(#pac6ef01543)" style="fill: none; stroke-dasharray: 1.85,0.8; stroke-dashoffset: 0; stroke: #000000; stroke-width: 0.5"/>
     </g>
     <g id="line2d_16">
      <g>
       <use xlink:href="#m46567a8f7c" x="227.413682" y="246.161281" style="stroke: #000000; stroke-width: 0.8"/>
      </g>
     </g>
     <g id="text_3">
      <!-- $\mathdefault{0.4}$ -->
      <g transform="translate(220.093895 258.32435) scale(0.115 -0.115)">
       <defs>
        <path id="CMR17-34" d="M 2150 4147 
C 2150 4281 2144 4288 2029 4288 
L 128 1254 
L 128 1088 
L 1779 1088 
L 1779 460 
C 1779 230 1766 166 1318 166 
L 1197 166 
L 1197 0 
C 1402 12 1747 12 1965 12 
C 2182 12 2528 12 2733 0 
L 2733 166 
L 2611 166 
C 2163 166 2150 230 2150 460 
L 2150 1088 
L 2803 1088 
L 2803 1254 
L 2150 1254 
L 2150 4147 
z
M 1798 3723 
L 1798 1254 
L 256 1254 
L 1798 3723 
z
" transform="scale(0.015625)"/>
       </defs>
       <use xlink:href="#CMR17-30" transform="scale(0.996264)"/>
       <use xlink:href="#CMMI12-3a" transform="translate(45.690477 0) scale(0.996264)"/>
       <use xlink:href="#CMR17-34" transform="translate(72.787654 0) scale(0.996264)"/>
      </g>
     </g>
    </g>
    <g id="text_4">
     <!-- Current (A) -->
     <g transform="translate(132.362248 273.139719) scale(0.115 -0.115)">
      <defs>
       <path id="NimbusSanL-Regu-43" d="M 4237 3219 
C 4051 4236 3462 4736 2438 4736 
C 1811 4736 1306 4537 960 4154 
C 538 3696 307 3035 307 2284 
C 307 1522 544 867 986 415 
C 1344 44 1805 -128 2413 -128 
C 3552 -128 4192 485 4333 1712 
L 3718 1712 
C 3667 1394 3603 1178 3507 994 
C 3315 612 2918 396 2419 396 
C 1491 396 902 1134 902 2291 
C 902 3480 1466 4211 2368 4211 
C 2746 4211 3098 4096 3290 3918 
C 3462 3759 3558 3562 3629 3219 
L 4237 3219 
z
" transform="scale(0.015625)"/>
       <path id="NimbusSanL-Regu-75" d="M 3085 19 
L 3085 3328 
L 2554 3328 
L 2554 1454 
C 2554 780 2195 339 1638 339 
C 1216 339 947 591 947 988 
L 947 3328 
L 416 3328 
L 416 780 
C 416 230 832 -128 1485 -128 
C 1978 -128 2291 44 2605 484 
L 2605 19 
L 3085 19 
z
" transform="scale(0.015625)"/>
       <path id="NimbusSanL-Regu-72" d="M 442 3328 
L 442 0 
L 979 0 
L 979 1727 
C 979 2203 1101 2514 1357 2698 
C 1523 2819 1683 2857 2054 2863 
L 2054 3404 
C 1965 3449 1920 3456 1850 3456 
C 1504 3456 1242 3251 934 2750 
L 934 3328 
L 442 3328 
z
" transform="scale(0.015625)"/>
       <path id="NimbusSanL-Regu-65" d="M 3283 1484 
C 3283 1998 3245 2311 3149 2565 
C 2931 3123 2419 3456 1792 3456 
C 858 3456 256 2734 256 1619 
C 256 545 838 -128 1779 -128 
C 2547 -128 3078 307 3213 1018 
L 2675 1018 
C 2528 588 2227 364 1798 364 
C 1459 364 1171 514 992 787 
C 864 974 819 1161 813 1484 
L 3283 1484 
z
M 826 1920 
C 870 2552 1248 2963 1786 2963 
C 2310 2963 2714 2519 2714 1959 
C 2714 1946 2714 1933 2707 1920 
L 826 1920 
z
" transform="scale(0.015625)"/>
       <path id="NimbusSanL-Regu-6e" d="M 448 3328 
L 448 0 
L 986 0 
L 986 1835 
C 986 2539 1344 2988 1894 2988 
C 2317 2988 2586 2732 2586 2328 
L 2586 0 
L 3117 0 
L 3117 2539 
C 3117 3097 2701 3456 2054 3456 
C 1555 3456 1235 3263 941 2796 
L 941 3328 
L 448 3328 
z
" transform="scale(0.015625)"/>
       <path id="NimbusSanL-Regu-74" d="M 1626 3328 
L 1075 3328 
L 1075 4249 
L 544 4249 
L 544 3328 
L 90 3328 
L 90 2892 
L 544 2892 
L 544 402 
C 544 64 774 -128 1190 -128 
C 1318 -128 1446 -116 1626 -84 
L 1626 364 
C 1555 345 1472 339 1370 339 
C 1139 339 1075 402 1075 634 
L 1075 2892 
L 1626 2892 
L 1626 3328 
z
" transform="scale(0.015625)"/>
       <path id="NimbusSanL-Regu-28" d="M 1510 4672 
C 870 3833 467 2668 467 1663 
C 467 652 870 -513 1510 -1351 
L 1862 -1351 
C 1299 -436 986 639 986 1663 
C 986 2681 1299 3763 1862 4672 
L 1510 4672 
z
" transform="scale(0.015625)"/>
       <path id="NimbusSanL-Regu-41" d="M 3034 1408 
L 3514 0 
L 4179 0 
L 2541 4672 
L 1773 4672 
L 109 0 
L 742 0 
L 1235 1408 
L 3034 1408 
z
M 2867 1907 
L 1382 1907 
L 2150 4032 
L 2867 1907 
z
" transform="scale(0.015625)"/>
       <path id="NimbusSanL-Regu-29" d="M 595 -1351 
C 1235 -513 1638 652 1638 1657 
C 1638 2668 1235 3833 595 4672 
L 243 4672 
C 806 3756 1120 2681 1120 1657 
C 1120 639 806 -442 243 -1351 
L 595 -1351 
z
" transform="scale(0.015625)"/>
      </defs>
      <use xlink:href="#NimbusSanL-Regu-43" transform="scale(0.996264)"/>
      <use xlink:href="#NimbusSanL-Regu-75" transform="translate(71.929985 0) scale(0.996264)"/>
      <use xlink:href="#NimbusSanL-Regu-72" transform="translate(127.321662 0) scale(0.996264)"/>
      <use xlink:href="#NimbusSanL-Regu-72" transform="translate(160.496892 0) scale(0.996264)"/>
      <use xlink:href="#NimbusSanL-Regu-65" transform="translate(193.672121 0) scale(0.996264)"/>
      <use xlink:href="#NimbusSanL-Regu-6e" transform="translate(249.063798 0) scale(0.996264)"/>
      <use xlink:href="#NimbusSanL-Regu-74" transform="translate(304.455475 0) scale(0.996264)"/>
      <use xlink:href="#NimbusSanL-Regu-28" transform="translate(359.845814 0) scale(0.996264)"/>
      <use xlink:href="#NimbusSanL-Regu-41" transform="translate(393.021044 0) scale(0.996264)"/>
      <use xlink:href="#NimbusSanL-Regu-29" transform="translate(459.471075 0) scale(0.996264)"/>
     </g>
    </g>
   </g>
   <g id="matplotlib.axis_2">
    <g id="ytick_1">
     <g id="line2d_17">
      <path d="M 61.060559 209.706331 
L 260.318199 209.706331 
" clip-path="url(#pac6ef01543)" style="fill: none; stroke-dasharray: 1.85,0.8; stroke-dashoffset: 0; stroke: #000000; stroke-width: 0.5"/>
     </g>
     <g id="line2d_18">
      <defs>
       <path id="mcf97c7392f" d="M 0 0 
L 3.5 0 
" style="stroke: #000000; stroke-width: 0.8"/>
      </defs>
      <g>
       <use xlink:href="#mcf97c7392f" x="61.060559" y="209.706331" style="stroke: #000000; stroke-width: 0.8"/>
      </g>
     </g>
     <g id="text_5">
      <!-- $\mathdefault{−2000}$ -->
      <g transform="translate(27.235369 213.787865) scale(0.115 -0.115)">
       <defs>
        <path id="CMSY10-0" d="M 4218 1472 
C 4326 1472 4442 1472 4442 1600 
C 4442 1728 4326 1728 4218 1728 
L 755 1728 
C 646 1728 531 1728 531 1600 
C 531 1472 646 1472 755 1472 
L 4218 1472 
z
" transform="scale(0.015625)"/>
       </defs>
       <use xlink:href="#CMSY10-0" transform="scale(0.996264)"/>
       <use xlink:href="#CMR17-32" transform="translate(77.487468 0) scale(0.996264)"/>
       <use xlink:href="#CMR17-30" transform="translate(123.177945 0) scale(0.996264)"/>
       <use xlink:href="#CMR17-30" transform="translate(168.868422 0) scale(0.996264)"/>
       <use xlink:href="#CMR17-30" transform="translate(214.558899 0) scale(0.996264)"/>
      </g>
     </g>
    </g>
    <g id="ytick_2">
     <g id="line2d_19">
      <path d="M 61.060559 167.137391 
L 260.318199 167.137391 
" clip-path="url(#pac6ef01543)" style="fill: none; stroke-dasharray: 1.85,0.8; stroke-dashoffset: 0; stroke: #000000; stroke-width: 0.5"/>
     </g>
     <g id="line2d_20">
      <g>
       <use xlink:href="#mcf97c7392f" x="61.060559" y="167.137391" style="stroke: #000000; stroke-width: 0.8"/>
      </g>
     </g>
     <g id="text_6">
      <!-- $\mathdefault{−1000}$ -->
      <g transform="translate(27.235369 171.218925) scale(0.115 -0.115)">
       <defs>
        <path id="CMR17-31" d="M 1702 4083 
C 1702 4217 1696 4224 1606 4224 
C 1357 3927 979 3833 621 3820 
C 602 3820 570 3820 563 3808 
C 557 3795 557 3782 557 3648 
C 755 3648 1088 3686 1344 3839 
L 1344 467 
C 1344 243 1331 166 781 166 
L 589 166 
L 589 0 
C 896 6 1216 12 1523 12 
C 1830 12 2150 6 2458 0 
L 2458 166 
L 2266 166 
C 1715 166 1702 236 1702 467 
L 1702 4083 
z
" transform="scale(0.015625)"/>
       </defs>
       <use xlink:href="#CMSY10-0" transform="scale(0.996264)"/>
       <use xlink:href="#CMR17-31" transform="translate(77.487468 0) scale(0.996264)"/>
       <use xlink:href="#CMR17-30" transform="translate(123.177945 0) scale(0.996264)"/>
       <use xlink:href="#CMR17-30" transform="translate(168.868422 0) scale(0.996264)"/>
       <use xlink:href="#CMR17-30" transform="translate(214.558899 0) scale(0.996264)"/>
      </g>
     </g>
    </g>
    <g id="ytick_3">
     <g id="line2d_21">
      <path d="M 61.060559 124.568451 
L 260.318199 124.568451 
" clip-path="url(#pac6ef01543)" style="fill: none; stroke-dasharray: 1.85,0.8; stroke-dashoffset: 0; stroke: #000000; stroke-width: 0.5"/>
     </g>
     <g id="line2d_22">
      <g>
       <use xlink:href="#mcf97c7392f" x="61.060559" y="124.568451" style="stroke: #000000; stroke-width: 0.8"/>
      </g>
     </g>
     <g id="text_7">
      <!-- $\mathdefault{0}$ -->
      <g transform="translate(53.332025 128.649985) scale(0.115 -0.115)">
       <use xlink:href="#CMR17-30" transform="scale(0.996264)"/>
      </g>
     </g>
    </g>
    <g id="ytick_4">
     <g id="line2d_23">
      <path d="M 61.060559 81.99951 
L 260.318199 81.99951 
" clip-path="url(#pac6ef01543)" style="fill: none; stroke-dasharray: 1.85,0.8; stroke-dashoffset: 0; stroke: #000000; stroke-width: 0.5"/>
     </g>
     <g id="line2d_24">
      <g>
       <use xlink:href="#mcf97c7392f" x="61.060559" y="81.99951" style="stroke: #000000; stroke-width: 0.8"/>
      </g>
     </g>
     <g id="text_8">
      <!-- $\mathdefault{1000}$ -->
      <g transform="translate(36.146426 86.081044) scale(0.115 -0.115)">
       <use xlink:href="#CMR17-31" transform="scale(0.996264)"/>
       <use xlink:href="#CMR17-30" transform="translate(45.690477 0) scale(0.996264)"/>
       <use xlink:href="#CMR17-30" transform="translate(91.380954 0) scale(0.996264)"/>
       <use xlink:href="#CMR17-30" transform="translate(137.071431 0) scale(0.996264)"/>
      </g>
     </g>
    </g>
    <g id="ytick_5">
     <g id="line2d_25">
      <path d="M 61.060559 39.43057 
L 260.318199 39.43057 
" clip-path="url(#pac6ef01543)" style="fill: none; stroke-dasharray: 1.85,0.8; stroke-dashoffset: 0; stroke: #000000; stroke-width: 0.5"/>
     </g>
     <g id="line2d_26">
      <g>
       <use xlink:href="#mcf97c7392f" x="61.060559" y="39.43057" style="stroke: #000000; stroke-width: 0.8"/>
      </g>
     </g>
     <g id="text_9">
      <!-- $\mathdefault{2000}$ -->
      <g transform="translate(36.146426 43.512104) scale(0.115 -0.115)">
       <use xlink:href="#CMR17-32" transform="scale(0.996264)"/>
       <use xlink:href="#CMR17-30" transform="translate(45.690477 0) scale(0.996264)"/>
       <use xlink:href="#CMR17-30" transform="translate(91.380954 0) scale(0.996264)"/>
       <use xlink:href="#CMR17-30" transform="translate(137.071431 0) scale(0.996264)"/>
      </g>
     </g>
    </g>
    <g id="text_10">
     <!-- Power ($\mu$W) -->
     <g transform="translate(20.795088 159.362518) rotate(-90) scale(0.115 -0.115)">
      <defs>
       <path id="NimbusSanL-Regu-50" d="M 1178 1984 
L 2643 1984 
C 3008 1984 3296 2092 3546 2316 
C 3827 2572 3949 2873 3949 3302 
C 3949 4179 3430 4672 2509 4672 
L 582 4672 
L 582 0 
L 1178 0 
L 1178 1984 
z
M 1178 2508 
L 1178 4147 
L 2419 4147 
C 2989 4147 3328 3839 3328 3327 
C 3328 2816 2989 2508 2419 2508 
L 1178 2508 
z
" transform="scale(0.015625)"/>
       <path id="NimbusSanL-Regu-6f" d="M 1741 3456 
C 800 3456 230 2784 230 1663 
C 230 543 794 -128 1747 -128 
C 2688 -128 3264 543 3264 1638 
C 3264 2791 2707 3456 1741 3456 
z
M 1747 2963 
C 2349 2963 2707 2472 2707 1644 
C 2707 861 2336 364 1747 364 
C 1152 364 787 855 787 1663 
C 787 2466 1152 2963 1747 2963 
z
" transform="scale(0.015625)"/>
       <path id="NimbusSanL-Regu-77" d="M 3546 0 
L 4531 3328 
L 3930 3328 
L 3264 737 
L 2605 3328 
L 1952 3328 
L 1312 737 
L 627 3328 
L 38 3328 
L 1011 0 
L 1613 0 
L 2259 2609 
L 2938 0 
L 3546 0 
z
" transform="scale(0.015625)"/>
       <path id="CMMI12-16" d="M 922 140 
C 1082 -7 1318 -64 1536 -64 
C 1946 -64 2227 210 2374 408 
C 2438 70 2707 -64 2931 -64 
C 3123 -64 3277 51 3392 281 
C 3494 498 3584 887 3584 913 
C 3584 944 3558 970 3520 970 
C 3462 970 3456 938 3430 842 
C 3334 466 3213 64 2950 64 
C 2765 64 2752 229 2752 357 
C 2752 504 2810 734 2854 925 
L 3034 1615 
C 3059 1736 3130 2023 3162 2138 
C 3200 2291 3270 2566 3270 2591 
C 3270 2687 3194 2752 3098 2752 
C 3040 2752 2906 2726 2854 2534 
L 2406 759 
C 2374 632 2374 619 2291 517 
C 2214 408 1965 64 1562 64 
C 1203 64 1088 325 1088 625 
C 1088 811 1146 1034 1171 1143 
L 1459 2292 
C 1491 2413 1542 2617 1542 2656 
C 1542 2758 1459 2816 1376 2816 
C 1318 2816 1178 2796 1126 2592 
L 198 -1085 
C 192 -1116 179 -1154 179 -1191 
C 179 -1287 256 -1351 352 -1351 
C 538 -1351 576 -1204 621 -1029 
L 922 140 
z
" transform="scale(0.015625)"/>
       <path id="NimbusSanL-Regu-57" d="M 4762 0 
L 5946 4672 
L 5280 4672 
L 4422 877 
L 3360 4672 
L 2720 4672 
L 1683 877 
L 806 4672 
L 141 4672 
L 1338 0 
L 1990 0 
L 3034 3838 
L 4109 0 
L 4762 0 
z
" transform="scale(0.015625)"/>
      </defs>
      <use xlink:href="#NimbusSanL-Regu-50" transform="scale(0.996264)"/>
      <use xlink:href="#NimbusSanL-Regu-6f" transform="translate(61.468681 0) scale(0.996264)"/>
      <use xlink:href="#NimbusSanL-Regu-77" transform="translate(115.366965 0) scale(0.996264)"/>
      <use xlink:href="#NimbusSanL-Regu-65" transform="translate(186.300853 0) scale(0.996264)"/>
      <use xlink:href="#NimbusSanL-Regu-72" transform="translate(241.69253 0) scale(0.996264)"/>
      <use xlink:href="#NimbusSanL-Regu-28" transform="translate(302.562929 0) scale(0.996264)"/>
      <use xlink:href="#CMMI12-16" transform="translate(335.738159 0) scale(0.996264)"/>
      <use xlink:href="#NimbusSanL-Regu-57" transform="translate(394.42958 0) scale(0.996264)"/>
      <use xlink:href="#NimbusSanL-Regu-29" transform="translate(488.47635 0) scale(0.996264)"/>
     </g>
    </g>
   </g>
   <g id="legend_1">
    <g id="line2d_27">
     <path d="M 270.668199 26.908068 
L 279.293199 26.908068 
L 287.918199 26.908068 
" style="fill: none; stroke: #f0a3ff; stroke-width: 1.1; stroke-linecap: square"/>
    </g>
    <g id="text_11">
     <!-- 323.15 K -->
     <g transform="translate(297.118199 30.933068) scale(0.115 -0.115)">
      <defs>
       <path id="NimbusSanL-Regu-33" d="M 1414 2093 
L 1485 2093 
L 1722 2099 
C 2342 2099 2662 1819 2662 1276 
C 2662 709 2310 371 1722 371 
C 1107 371 806 677 768 1334 
L 205 1334 
C 230 970 294 734 403 530 
C 634 96 1082 -128 1702 -128 
C 2637 -128 3238 428 3238 1283 
C 3238 1857 3014 2176 2470 2361 
C 2893 2526 3104 2845 3104 3298 
C 3104 4076 2586 4544 1722 4544 
C 806 4544 320 4044 301 3081 
L 864 3081 
C 870 3356 896 3509 966 3649 
C 1094 3898 1376 4051 1728 4051 
C 2227 4051 2528 3757 2528 3279 
C 2528 2960 2413 2769 2163 2667 
C 2010 2603 1811 2577 1414 2571 
L 1414 2093 
z
" transform="scale(0.015625)"/>
       <path id="NimbusSanL-Regu-32" d="M 3238 556 
L 851 556 
C 909 928 1114 1165 1670 1493 
L 2310 1839 
C 2944 2185 3270 2653 3270 3211 
C 3270 3589 3117 3942 2848 4185 
C 2579 4428 2246 4544 1818 4544 
C 1242 4544 813 4339 563 3955 
C 403 3711 333 3429 320 2967 
L 883 2967 
C 902 3275 941 3461 1018 3608 
C 1165 3884 1459 4051 1798 4051 
C 2310 4051 2694 3685 2694 3198 
C 2694 2839 2483 2531 2080 2300 
L 1491 1967 
C 544 1428 269 999 218 0 
L 3238 0 
L 3238 556 
z
" transform="scale(0.015625)"/>
       <path id="NimbusSanL-Regu-2e" d="M 1222 665 
L 557 665 
L 557 0 
L 1222 0 
L 1222 665 
z
" transform="scale(0.015625)"/>
       <path id="NimbusSanL-Regu-31" d="M 1658 3232 
L 1658 0 
L 2221 0 
L 2221 4537 
L 1850 4537 
C 1651 3840 1523 3744 653 3635 
L 653 3232 
L 1658 3232 
z
" transform="scale(0.015625)"/>
       <path id="NimbusSanL-Regu-35" d="M 3046 4544 
L 704 4544 
L 365 2076 
L 883 2076 
C 1146 2387 1363 2496 1715 2496 
C 2323 2496 2707 2082 2707 1414 
C 2707 765 2330 371 1715 371 
C 1222 371 922 619 787 1128 
L 224 1128 
C 301 759 365 581 499 415 
C 755 70 1216 -128 1728 -128 
C 2643 -128 3283 536 3283 1490 
C 3283 2381 2688 2995 1818 2995 
C 1498 2995 1242 2912 979 2720 
L 1158 3987 
L 3046 3987 
L 3046 4544 
z
" transform="scale(0.015625)"/>
       <path id="NimbusSanL-Regu-4b" d="M 1101 1634 
L 1862 2396 
L 3507 0 
L 4211 0 
L 2291 2768 
L 4192 4672 
L 3424 4672 
L 1101 2307 
L 1101 4672 
L 506 4672 
L 506 0 
L 1101 0 
L 1101 1634 
z
" transform="scale(0.015625)"/>
      </defs>
      <use xlink:href="#NimbusSanL-Regu-33" transform="scale(0.996264)"/>
      <use xlink:href="#NimbusSanL-Regu-32" transform="translate(55.391677 0) scale(0.996264)"/>
      <use xlink:href="#NimbusSanL-Regu-33" transform="translate(110.783354 0) scale(0.996264)"/>
      <use xlink:href="#NimbusSanL-Regu-2e" transform="translate(166.175031 0) scale(0.996264)"/>
      <use xlink:href="#NimbusSanL-Regu-31" transform="translate(193.8702 0) scale(0.996264)"/>
      <use xlink:href="#NimbusSanL-Regu-35" transform="translate(249.261877 0) scale(0.996264)"/>
      <use xlink:href="#NimbusSanL-Regu-4b" transform="translate(332.348724 0) scale(0.996264)"/>
     </g>
    </g>
    <g id="line2d_28">
     <path d="M 270.668199 43.261418 
L 279.293199 43.261418 
L 287.918199 43.261418 
" style="fill: none; stroke: #0075dc; stroke-width: 1.1; stroke-linecap: square"/>
    </g>
    <g id="text_12">
     <!-- 373.15 K -->
     <g transform="translate(297.118199 47.286418) scale(0.115 -0.115)">
      <defs>
       <path id="NimbusSanL-Regu-37" d="M 3328 4544 
L 294 4544 
L 294 3987 
L 2746 3987 
C 1664 2442 1222 1493 883 0 
L 1485 0 
C 1734 1454 2304 2704 3328 4070 
L 3328 4544 
z
" transform="scale(0.015625)"/>
      </defs>
      <use xlink:href="#NimbusSanL-Regu-33" transform="scale(0.996264)"/>
      <use xlink:href="#NimbusSanL-Regu-37" transform="translate(55.391677 0) scale(0.996264)"/>
      <use xlink:href="#NimbusSanL-Regu-33" transform="translate(110.783354 0) scale(0.996264)"/>
      <use xlink:href="#NimbusSanL-Regu-2e" transform="translate(166.175031 0) scale(0.996264)"/>
      <use xlink:href="#NimbusSanL-Regu-31" transform="translate(193.8702 0) scale(0.996264)"/>
      <use xlink:href="#NimbusSanL-Regu-35" transform="translate(249.261877 0) scale(0.996264)"/>
      <use xlink:href="#NimbusSanL-Regu-4b" transform="translate(332.348724 0) scale(0.996264)"/>
     </g>
    </g>
    <g id="line2d_29">
     <path d="M 270.668199 59.614768 
L 279.293199 59.614768 
L 287.918199 59.614768 
" style="fill: none; stroke: #993f00; stroke-width: 1.1; stroke-linecap: square"/>
    </g>
    <g id="text_13">
     <!-- 423.15 K -->
     <g transform="translate(297.118199 63.639768) scale(0.115 -0.115)">
      <defs>
       <path id="NimbusSanL-Regu-34" d="M 2093 1088 
L 2093 0 
L 2656 0 
L 2656 1088 
L 3328 1088 
L 3328 1593 
L 2656 1593 
L 2656 4537 
L 2240 4537 
L 179 1683 
L 179 1088 
L 2093 1088 
z
M 2093 1593 
L 672 1593 
L 2093 3577 
L 2093 1593 
z
" transform="scale(0.015625)"/>
      </defs>
      <use xlink:href="#NimbusSanL-Regu-34" transform="scale(0.996264)"/>
      <use xlink:href="#NimbusSanL-Regu-32" transform="translate(55.391677 0) scale(0.996264)"/>
      <use xlink:href="#NimbusSanL-Regu-33" transform="translate(110.783354 0) scale(0.996264)"/>
      <use xlink:href="#NimbusSanL-Regu-2e" transform="translate(166.175031 0) scale(0.996264)"/>
      <use xlink:href="#NimbusSanL-Regu-31" transform="translate(193.8702 0) scale(0.996264)"/>
      <use xlink:href="#NimbusSanL-Regu-35" transform="translate(249.261877 0) scale(0.996264)"/>
      <use xlink:href="#NimbusSanL-Regu-4b" transform="translate(332.348724 0) scale(0.996264)"/>
     </g>
    </g>
    <g id="line2d_30">
     <path d="M 270.668199 75.968117 
L 279.293199 75.968117 
L 287.918199 75.968117 
" style="fill: none; stroke: #4c005c; stroke-width: 1.1; stroke-linecap: square"/>
    </g>
    <g id="text_14">
     <!-- 473.15 K -->
     <g transform="translate(297.118199 79.993117) scale(0.115 -0.115)">
      <use xlink:href="#NimbusSanL-Regu-34" transform="scale(0.996264)"/>
      <use xlink:href="#NimbusSanL-Regu-37" transform="translate(55.391677 0) scale(0.996264)"/>
      <use xlink:href="#NimbusSanL-Regu-33" transform="translate(110.783354 0) scale(0.996264)"/>
      <use xlink:href="#NimbusSanL-Regu-2e" transform="translate(166.175031 0) scale(0.996264)"/>
      <use xlink:href="#NimbusSanL-Regu-31" transform="translate(193.8702 0) scale(0.996264)"/>
      <use xlink:href="#NimbusSanL-Regu-35" transform="translate(249.261877 0) scale(0.996264)"/>
      <use xlink:href="#NimbusSanL-Regu-4b" transform="translate(332.348724 0) scale(0.996264)"/>
     </g>
    </g>
    <g id="line2d_31">
     <path d="M 270.668199 92.321467 
L 279.293199 92.321467 
L 287.918199 92.321467 
" style="fill: none; stroke: #426600; stroke-width: 1.1; stroke-linecap: square"/>
    </g>
    <g id="text_15">
     <!-- 523.15 K -->
     <g transform="translate(297.118199 96.346467) scale(0.115 -0.115)">
      <use xlink:href="#NimbusSanL-Regu-35" transform="scale(0.996264)"/>
      <use xlink:href="#NimbusSanL-Regu-32" transform="translate(55.391677 0) scale(0.996264)"/>
      <use xlink:href="#NimbusSanL-Regu-33" transform="translate(110.783354 0) scale(0.996264)"/>
      <use xlink:href="#NimbusSanL-Regu-2e" transform="translate(166.175031 0) scale(0.996264)"/>
      <use xlink:href="#NimbusSanL-Regu-31" transform="translate(193.8702 0) scale(0.996264)"/>
      <use xlink:href="#NimbusSanL-Regu-35" transform="translate(249.261877 0) scale(0.996264)"/>
      <use xlink:href="#NimbusSanL-Regu-4b" transform="translate(332.348724 0) scale(0.996264)"/>
     </g>
    </g>
    <g id="line2d_32">
     <path d="M 270.668199 108.674816 
L 279.293199 108.674816 
L 287.918199 108.674816 
" style="fill: none; stroke: #ff0010; stroke-width: 1.1; stroke-linecap: square"/>
    </g>
    <g id="text_16">
     <!-- 573.15 K -->
     <g transform="translate(297.118199 112.699816) scale(0.115 -0.115)">
      <use xlink:href="#NimbusSanL-Regu-35" transform="scale(0.996264)"/>
      <use xlink:href="#NimbusSanL-Regu-37" transform="translate(55.391677 0) scale(0.996264)"/>
      <use xlink:href="#NimbusSanL-Regu-33" transform="translate(110.783354 0) scale(0.996264)"/>
      <use xlink:href="#NimbusSanL-Regu-2e" transform="translate(166.175031 0) scale(0.996264)"/>
      <use xlink:href="#NimbusSanL-Regu-31" transform="translate(193.8702 0) scale(0.996264)"/>
      <use xlink:href="#NimbusSanL-Regu-35" transform="translate(249.261877 0) scale(0.996264)"/>
      <use xlink:href="#NimbusSanL-Regu-4b" transform="translate(332.348724 0) scale(0.996264)"/>
     </g>
    </g>
    <g id="line2d_33">
     <path d="M 270.668199 125.028166 
L 279.293199 125.028166 
L 287.918199 125.028166 
" style="fill: none; stroke: #9dcc00; stroke-width: 1.1; stroke-linecap: square"/>
    </g>
    <g id="text_17">
     <!-- 623.15 K -->
     <g transform="translate(297.118199 129.053166) scale(0.115 -0.115)">
      <defs>
       <path id="NimbusSanL-Regu-36" d="M 3187 3352 
C 3078 4102 2592 4544 1901 4544 
C 1402 4544 954 4300 685 3895 
C 403 3449 275 2887 275 2064 
C 275 1312 390 832 659 434 
C 902 70 1299 -128 1798 -128 
C 2662 -128 3283 510 3283 1388 
C 3283 2221 2707 2816 1894 2816 
C 1446 2816 1094 2643 851 2310 
C 858 3423 1216 4044 1862 4044 
C 2259 4044 2534 3792 2624 3352 
L 3187 3352 
z
M 1824 2316 
C 2368 2316 2707 1944 2707 1343 
C 2707 781 2323 371 1805 371 
C 1280 371 883 800 883 1375 
C 883 1931 1267 2316 1824 2316 
z
" transform="scale(0.015625)"/>
      </defs>
      <use xlink:href="#NimbusSanL-Regu-36" transform="scale(0.996264)"/>
      <use xlink:href="#NimbusSanL-Regu-32" transform="translate(55.391677 0) scale(0.996264)"/>
      <use xlink:href="#NimbusSanL-Regu-33" transform="translate(110.783354 0) scale(0.996264)"/>
      <use xlink:href="#NimbusSanL-Regu-2e" transform="translate(166.175031 0) scale(0.996264)"/>
      <use xlink:href="#NimbusSanL-Regu-31" transform="translate(193.8702 0) scale(0.996264)"/>
      <use xlink:href="#NimbusSanL-Regu-35" transform="translate(249.261877 0) scale(0.996264)"/>
      <use xlink:href="#NimbusSanL-Regu-4b" transform="translate(332.348724 0) scale(0.996264)"/>
     </g>
    </g>
    <g id="line2d_34">
     <path d="M 270.668199 141.381516 
L 279.293199 141.381516 
L 287.918199 141.381516 
" style="fill: none; stroke: #c20088; stroke-width: 1.1; stroke-linecap: square"/>
    </g>
    <g id="text_18">
     <!-- 673.15 K -->
     <g transform="translate(297.118199 145.406516) scale(0.115 -0.115)">
      <use xlink:href="#NimbusSanL-Regu-36" transform="scale(0.996264)"/>
      <use xlink:href="#NimbusSanL-Regu-37" transform="translate(55.391677 0) scale(0.996264)"/>
      <use xlink:href="#NimbusSanL-Regu-33" transform="translate(110.783354 0) scale(0.996264)"/>
      <use xlink:href="#NimbusSanL-Regu-2e" transform="translate(166.175031 0) scale(0.996264)"/>
      <use xlink:href="#NimbusSanL-Regu-31" transform="translate(193.8702 0) scale(0.996264)"/>
      <use xlink:href="#NimbusSanL-Regu-35" transform="translate(249.261877 0) scale(0.996264)"/>
      <use xlink:href="#NimbusSanL-Regu-4b" transform="translate(332.348724 0) scale(0.996264)"/>
     </g>
    </g>
    <g id="line2d_35">
     <path d="M 270.668199 157.734865 
L 279.293199 157.734865 
L 287.918199 157.734865 
" style="fill: none; stroke: #003380; stroke-width: 1.1; stroke-linecap: square"/>
    </g>
    <g id="text_19">
     <!-- 723.15 K -->
     <g transform="translate(297.118199 161.759865) scale(0.115 -0.115)">
      <use xlink:href="#NimbusSanL-Regu-37" transform="scale(0.996264)"/>
      <use xlink:href="#NimbusSanL-Regu-32" transform="translate(55.391677 0) scale(0.996264)"/>
      <use xlink:href="#NimbusSanL-Regu-33" transform="translate(110.783354 0) scale(0.996264)"/>
      <use xlink:href="#NimbusSanL-Regu-2e" transform="translate(166.175031 0) scale(0.996264)"/>
      <use xlink:href="#NimbusSanL-Regu-31" transform="translate(193.8702 0) scale(0.996264)"/>
      <use xlink:href="#NimbusSanL-Regu-35" transform="translate(249.261877 0) scale(0.996264)"/>
      <use xlink:href="#NimbusSanL-Regu-4b" transform="translate(332.348724 0) scale(0.996264)"/>
     </g>
    </g>
    <g id="line2d_36">
     <path d="M 270.668199 174.088215 
L 279.293199 174.088215 
L 287.918199 174.088215 
" style="fill: none; stroke: #ffa405; stroke-width: 1.1; stroke-linecap: square"/>
    </g>
    <g id="text_20">
     <!-- 773.15 K -->
     <g transform="translate(297.118199 178.113215) scale(0.115 -0.115)">
      <use xlink:href="#NimbusSanL-Regu-37" transform="scale(0.996264)"/>
      <use xlink:href="#NimbusSanL-Regu-37" transform="translate(55.391677 0) scale(0.996264)"/>
      <use xlink:href="#NimbusSanL-Regu-33" transform="translate(110.783354 0) scale(0.996264)"/>
      <use xlink:href="#NimbusSanL-Regu-2e" transform="translate(166.175031 0) scale(0.996264)"/>
      <use xlink:href="#NimbusSanL-Regu-31" transform="translate(193.8702 0) scale(0.996264)"/>
      <use xlink:href="#NimbusSanL-Regu-35" transform="translate(249.261877 0) scale(0.996264)"/>
      <use xlink:href="#NimbusSanL-Regu-4b" transform="translate(332.348724 0) scale(0.996264)"/>
     </g>
    </g>
   </g>
  </g>
 </g>
 <defs>
  <clipPath id="pac6ef01543">
   <rect x="61.060559" y="12.42" width="199.25764" height="233.741281"/>
  </clipPath>
 </defs>
</svg>
